<svg id="Capa_1" data-name="Capa 1" xmlns="http://www.w3.org/2000/svg" viewBox="0 0 221 221"><defs><style>.cls-1{fill:#b5386d;}.cls-2{fill:#0c1041;}.cls-3{fill:#fff;}</style></defs><rect class="cls-1" x="68" width="85" height="195"/><polygon class="cls-2" points="221 68 153 68 153 0 68 0 68 68 0 68 0 153 68 153 68 221 153 221 153 153 221 153 221 68"/><circle id="Elipse_6-4" data-name="Elipse 6-4" class="cls-3" cx="115.46" cy="152.41" r="1.42"/><circle id="Elipse_7-4" data-name="Elipse 7-4" class="cls-3" cx="212.39" cy="87.6" r="0.71"/><circle id="Elipse_8-4" data-name="Elipse 8-4" class="cls-3" cx="46.99" cy="93.4" r="0.71"/><circle id="Elipse_11-4" data-name="Elipse 11-4" class="cls-3" cx="130.04" cy="86.24" r="0.71"/><circle id="Elipse_12-12" data-name="Elipse 12-12" class="cls-3" cx="6.1" cy="89.05" r="0.71"/><circle id="Elipse_9-15" data-name="Elipse 9-15" class="cls-3" cx="78.15" cy="129.23" r="0.71"/><circle id="Elipse_9-15-2" data-name="Elipse 9-15" class="cls-3" cx="40.13" cy="120.32" r="0.71"/><circle id="Elipse_9-15-3" data-name="Elipse 9-15" class="cls-3" cx="180.13" cy="110.32" r="0.71"/><circle id="Elipse_9-15-4" data-name="Elipse 9-15" class="cls-3" cx="100.13" cy="40.32" r="0.71"/><circle id="Elipse_6-4-2" data-name="Elipse 6-4" class="cls-3" cx="90.13" cy="200.32" r="1.42"/><circle id="Elipse_6-4-3" data-name="Elipse 6-4" class="cls-3" cx="10.13" cy="140.32" r="1.42"/><circle id="Elipse_6-4-4" data-name="Elipse 6-4" class="cls-3" cx="100.13" cy="70.32" r="1.42"/><circle id="Elipse_6-4-5" data-name="Elipse 6-4" class="cls-3" cx="190.13" cy="90.32" r="1.42"/><circle id="Elipse_9-15-5" data-name="Elipse 9-15" class="cls-3" cx="210.13" cy="140.32" r="0.71"/><circle id="Elipse_11-4-2" data-name="Elipse 11-4" class="cls-3" cx="145.36" cy="7.38" r="0.71"/></svg>