<svg id="Capa_1" data-name="Capa 1" xmlns="http://www.w3.org/2000/svg" viewBox="0 0 1366 768"><defs><style>.cls-1{fill:#0f1560;}.cls-2{fill:#fff;}</style></defs><rect id="Rectángulo_234" data-name="Rectángulo 234" class="cls-1" x="1042.27" y="503.05" width="8.52" height="7.81"/><circle id="Elipse_2" data-name="Elipse 2" class="cls-2" cx="192.97" cy="145.88" r="1.42"/><circle id="Elipse_3" data-name="Elipse 3" class="cls-2" cx="115.6" cy="158.01" r="1.42"/><circle id="Elipse_4" data-name="Elipse 4" class="cls-2" cx="270.99" cy="54.25" r="1.42"/><circle id="Elipse_5" data-name="Elipse 5" class="cls-2" cx="71.59" cy="156.62" r="1.42"/><circle id="Elipse_6" data-name="Elipse 6" class="cls-2" cx="43.14" cy="79.97" r="1.42"/><circle id="Elipse_7" data-name="Elipse 7" class="cls-2" cx="82.2" cy="104.79" r="0.71"/><circle id="Elipse_8" data-name="Elipse 8" class="cls-2" cx="247.6" cy="98.99" r="0.71"/><circle id="Elipse_9" data-name="Elipse 9" class="cls-2" cx="82.16" cy="48.71" r="0.71"/><circle id="Elipse_10" data-name="Elipse 10" class="cls-2" cx="26.89" cy="187.89" r="0.71"/><circle id="Elipse_11" data-name="Elipse 11" class="cls-2" cx="164.55" cy="106.15" r="0.71"/><circle id="Elipse_12" data-name="Elipse 12" class="cls-2" cx="27.49" cy="41.65" r="0.71"/><circle id="Elipse_13" data-name="Elipse 13" class="cls-2" cx="122.63" cy="55.07" r="0.71"/><circle id="Elipse_14" data-name="Elipse 14" class="cls-2" cx="164.48" cy="20.96" r="0.71"/><circle id="Elipse_15" data-name="Elipse 15" class="cls-2" cx="195.74" cy="44.37" r="1.42"/><circle id="Elipse_2-2" data-name="Elipse 2-2" class="cls-2" cx="135.53" cy="429.71" r="1.42"/><circle id="Elipse_3-2" data-name="Elipse 3-2" class="cls-2" cx="207.05" cy="461.7" r="1.42"/><circle id="Elipse_4-2" data-name="Elipse 4-2" class="cls-2" cx="20.13" cy="464.06" r="1.42"/><circle id="Elipse_5-2" data-name="Elipse 5-2" class="cls-2" cx="243.22" cy="486.85" r="1.42"/><circle id="Elipse_6-2" data-name="Elipse 6-2" class="cls-2" cx="225.32" cy="566.67" r="1.42"/><circle id="Elipse_7-2" data-name="Elipse 7-2" class="cls-2" cx="89.07" cy="470.56" r="0.71"/><circle id="Elipse_8-2" data-name="Elipse 8-2" class="cls-2" cx="64.14" cy="439.28" r="0.71"/><circle id="Elipse_9-2" data-name="Elipse 9-2" class="cls-2" cx="178.54" cy="527.63" r="0.71"/><circle id="Elipse_10-2" data-name="Elipse 10-2" class="cls-2" cx="297.77" cy="484.98" r="0.71"/><circle id="Elipse_11-2" data-name="Elipse 11-2" class="cls-2" cx="6.72" cy="510.53" r="0.71"/><circle id="Elipse_12-2" data-name="Elipse 12-2" class="cls-2" cx="181.56" cy="481.35" r="0.71"/><circle id="Elipse_13-2" data-name="Elipse 13-2" class="cls-2" cx="252.06" cy="527.24" r="0.71"/><circle id="Elipse_14-2" data-name="Elipse 14-2" class="cls-2" cx="198.35" cy="407.04" r="0.71"/><circle id="Elipse_15-2" data-name="Elipse 15-2" class="cls-2" cx="131.88" cy="498.37" r="1.42"/><g id="Grupo_1472" data-name="Grupo 1472"><circle id="Elipse_2-3" data-name="Elipse 2-3" class="cls-2" cx="154.02" cy="280.98" r="1.42"/><circle id="Elipse_3-3" data-name="Elipse 3-3" class="cls-2" cx="145.69" cy="358.86" r="1.42"/><circle id="Elipse_4-3" data-name="Elipse 4-3" class="cls-2" cx="85.71" cy="181.88" r="1.42"/><circle id="Elipse_5-3" data-name="Elipse 5-3" class="cls-2" cx="132.95" cy="401.02" r="1.42"/><circle id="Elipse_6-3" data-name="Elipse 6-3" class="cls-2" cx="51.54" cy="408.65" r="1.42"/><circle id="Elipse_7-3" data-name="Elipse 7-3" class="cls-2" cx="85.63" cy="377.35" r="0.71"/><circle id="Elipse_8-3" data-name="Elipse 8-3" class="cls-2" cx="122.87" cy="216.07" r="0.71"/><circle id="Elipse_9-3" data-name="Elipse 9-3" class="cls-2" cx="31.45" cy="362.86" r="0.71"/><circle id="Elipse_10-3" data-name="Elipse 10-3" class="cls-2" cx="151.58" cy="452.3" r="0.71"/><circle id="Elipse_11-3" data-name="Elipse 11-3" class="cls-2" cx="108.28" cy="298.15" r="0.71"/><circle id="Elipse_12-3" data-name="Elipse 12-3" class="cls-2" cx="10.47" cy="413.84" r="0.71"/><circle id="Elipse_13-3" data-name="Elipse 13-3" class="cls-2" cx="48.07" cy="325.41" r="0.71"/><circle id="Elipse_14-3" data-name="Elipse 14-3" class="cls-2" cx="25.97" cy="276.14" r="0.71"/><circle id="Elipse_15-3" data-name="Elipse 15-3" class="cls-2" cx="56.67" cy="252.02" r="1.42"/></g><circle id="Elipse_2-4" data-name="Elipse 2-4" class="cls-2" cx="342.06" cy="476.85" r="1.42"/><circle id="Elipse_3-4" data-name="Elipse 3-4" class="cls-2" cx="419.43" cy="464.73" r="1.42"/><circle id="Elipse_4-4" data-name="Elipse 4-4" class="cls-2" cx="208.04" cy="514.49" r="1.42"/><circle id="Elipse_5-4" data-name="Elipse 5-4" class="cls-2" cx="463.45" cy="466.12" r="1.42"/><circle id="Elipse_6-4" data-name="Elipse 6-4" class="cls-2" cx="1313.9" cy="41.77" r="1.42"/><circle id="Elipse_7-4" data-name="Elipse 7-4" class="cls-2" cx="1274.84" cy="16.95" r="0.71"/><circle id="Elipse_8-4" data-name="Elipse 8-4" class="cls-2" cx="1109.44" cy="22.75" r="0.71"/><circle id="Elipse_9-4" data-name="Elipse 9-4" class="cls-2" cx="1274.88" cy="73.03" r="0.71"/><circle id="Elipse_10-4" data-name="Elipse 10-4" class="cls-2" cx="508.15" cy="434.85" r="0.71"/><circle id="Elipse_11-4" data-name="Elipse 11-4" class="cls-2" cx="1192.49" cy="15.59" r="0.71"/><circle id="Elipse_12-4" data-name="Elipse 12-4" class="cls-2" cx="1329.54" cy="80.09" r="0.71"/><circle id="Elipse_13-4" data-name="Elipse 13-4" class="cls-2" cx="1234.41" cy="66.67" r="0.71"/><circle id="Elipse_14-4" data-name="Elipse 14-4" class="cls-2" cx="1192.55" cy="100.77" r="0.71"/><circle id="Elipse_15-4" data-name="Elipse 15-4" class="cls-2" cx="1161.3" cy="77.37" r="1.42"/><circle id="Elipse_2-5" data-name="Elipse 2-5" class="cls-2" cx="416.54" cy="196.57" r="1.42"/><circle id="Elipse_3-5" data-name="Elipse 3-5" class="cls-2" cx="345.02" cy="164.57" r="1.42"/><circle id="Elipse_4-5" data-name="Elipse 4-5" class="cls-2" cx="531.94" cy="162.21" r="1.42"/><circle id="Elipse_5-5" data-name="Elipse 5-5" class="cls-2" cx="308.85" cy="139.42" r="1.42"/><circle id="Elipse_6-5" data-name="Elipse 6-5" class="cls-2" cx="326.75" cy="59.61" r="1.42"/><circle id="Elipse_7-5" data-name="Elipse 7-5" class="cls-2" cx="346" cy="101.72" r="0.71"/><circle id="Elipse_8-5" data-name="Elipse 8-5" class="cls-2" cx="487.93" cy="187" r="0.71"/><circle id="Elipse_9-5" data-name="Elipse 9-5" class="cls-2" cx="376.53" cy="54.64" r="0.71"/><circle id="Elipse_10-5" data-name="Elipse 10-5" class="cls-2" cx="254.31" cy="141.29" r="0.71"/><circle id="Elipse_11-5" data-name="Elipse 11-5" class="cls-2" cx="414.35" cy="147.74" r="0.71"/><circle id="Elipse_12-5" data-name="Elipse 12-5" class="cls-2" cx="334.51" cy="18.93" r="0.71"/><circle id="Elipse_13-5" data-name="Elipse 13-5" class="cls-2" cx="407.02" cy="82.04" r="0.71"/><circle id="Elipse_14-5" data-name="Elipse 14-5" class="cls-2" cx="460.73" cy="76.23" r="0.71"/><circle id="Elipse_15-5" data-name="Elipse 15-5" class="cls-2" cx="474.19" cy="112.9" r="1.42"/><g id="Grupo_1475" data-name="Grupo 1475"><circle id="Elipse_2-6" data-name="Elipse 2-6" class="cls-2" cx="380.34" cy="398.55" r="1.42"/><circle id="Elipse_3-6" data-name="Elipse 3-6" class="cls-2" cx="388.67" cy="320.67" r="1.42"/><circle id="Elipse_4-6" data-name="Elipse 4-6" class="cls-2" cx="448.65" cy="497.65" r="1.42"/><circle id="Elipse_5-6" data-name="Elipse 5-6" class="cls-2" cx="401.41" cy="278.51" r="1.42"/><circle id="Elipse_6-6" data-name="Elipse 6-6" class="cls-2" cx="482.82" cy="270.88" r="1.42"/><circle id="Elipse_7-6" data-name="Elipse 7-6" class="cls-2" cx="448.73" cy="302.18" r="0.71"/><circle id="Elipse_8-6" data-name="Elipse 8-6" class="cls-2" cx="411.49" cy="463.46" r="0.71"/><circle id="Elipse_9-6" data-name="Elipse 9-6" class="cls-2" cx="502.92" cy="316.67" r="0.71"/><circle id="Elipse_10-6" data-name="Elipse 10-6" class="cls-2" cx="382.78" cy="227.23" r="0.71"/><circle id="Elipse_11-6" data-name="Elipse 11-6" class="cls-2" cx="426.09" cy="381.38" r="0.71"/><circle id="Elipse_12-6" data-name="Elipse 12-6" class="cls-2" cx="523.9" cy="265.69" r="0.71"/><circle id="Elipse_13-6" data-name="Elipse 13-6" class="cls-2" cx="486.29" cy="354.11" r="0.71"/><circle id="Elipse_14-6" data-name="Elipse 14-6" class="cls-2" cx="508.4" cy="403.38" r="0.71"/><circle id="Elipse_15-6" data-name="Elipse 15-6" class="cls-2" cx="477.69" cy="427.51" r="1.42"/></g><g id="Grupo_1476" data-name="Grupo 1476"><circle id="Elipse_2-7" data-name="Elipse 2-7" class="cls-2" cx="200.63" cy="371.11" r="1.42"/><circle id="Elipse_3-7" data-name="Elipse 3-7" class="cls-2" cx="213.01" cy="293.79" r="1.42"/><circle id="Elipse_4-7" data-name="Elipse 4-7" class="cls-2" cx="263.67" cy="473.63" r="1.42"/><circle id="Elipse_5-7" data-name="Elipse 5-7" class="cls-2" cx="227.93" cy="252.36" r="1.42"/><circle id="Elipse_6-7" data-name="Elipse 6-7" class="cls-2" cx="309.61" cy="248.99" r="1.42"/><circle id="Elipse_7-7" data-name="Elipse 7-7" class="cls-2" cx="273.94" cy="278.46" r="0.71"/><circle id="Elipse_8-7" data-name="Elipse 8-7" class="cls-2" cx="228.35" cy="437.55" r="0.71"/><circle id="Elipse_9-7" data-name="Elipse 9-7" class="cls-2" cx="327.29" cy="295.76" r="0.71"/><circle id="Elipse_10-7" data-name="Elipse 10-7" class="cls-2" cx="212.01" cy="200.19" r="0.71"/><circle id="Elipse_11-7" data-name="Elipse 11-7" class="cls-2" cx="247.2" cy="356.36" r="0.71"/><circle id="Elipse_12-7" data-name="Elipse 12-7" class="cls-2" cx="350.89" cy="245.95" r="0.71"/><circle id="Elipse_13-7" data-name="Elipse 13-7" class="cls-2" cx="308.73" cy="332.28" r="0.71"/><circle id="Elipse_14-7" data-name="Elipse 14-7" class="cls-2" cx="328.23" cy="382.62" r="0.71"/><circle id="Elipse_15-7" data-name="Elipse 15-7" class="cls-2" cx="296.32" cy="405.11" r="1.42"/></g><circle id="Elipse_2-8" data-name="Elipse 2-8" class="cls-2" cx="924.86" cy="125.48" r="1.42"/><circle id="Elipse_3-8" data-name="Elipse 3-8" class="cls-2" cx="847.49" cy="137.6" r="1.42"/><circle id="Elipse_4-8" data-name="Elipse 4-8" class="cls-2" cx="1002.88" cy="33.84" r="1.42"/><circle id="Elipse_5-8" data-name="Elipse 5-8" class="cls-2" cx="803.47" cy="136.21" r="1.42"/><circle id="Elipse_6-8" data-name="Elipse 6-8" class="cls-2" cx="775.02" cy="59.56" r="1.42"/><circle id="Elipse_7-8" data-name="Elipse 7-8" class="cls-2" cx="814.09" cy="84.38" r="0.71"/><circle id="Elipse_8-8" data-name="Elipse 8-8" class="cls-2" cx="979.49" cy="78.58" r="0.71"/><circle id="Elipse_9-8" data-name="Elipse 9-8" class="cls-2" cx="814.04" cy="28.3" r="0.71"/><circle id="Elipse_10-8" data-name="Elipse 10-8" class="cls-2" cx="758.77" cy="167.48" r="0.71"/><circle id="Elipse_11-8" data-name="Elipse 11-8" class="cls-2" cx="896.43" cy="85.74" r="0.71"/><circle id="Elipse_12-8" data-name="Elipse 12-8" class="cls-2" cx="759.38" cy="21.24" r="0.71"/><circle id="Elipse_13-8" data-name="Elipse 13-8" class="cls-2" cx="854.51" cy="34.66" r="0.71"/><circle id="Elipse_14-8" data-name="Elipse 14-8" class="cls-2" cx="896.37" cy="0.55" r="0.71"/><circle id="Elipse_15-8" data-name="Elipse 15-8" class="cls-2" cx="927.63" cy="23.96" r="1.42"/><circle id="Elipse_2-9" data-name="Elipse 2-9" class="cls-2" cx="953.31" cy="400.01" r="1.42"/><circle id="Elipse_3-9" data-name="Elipse 3-9" class="cls-2" cx="1024.83" cy="432" r="1.42"/><circle id="Elipse_4-9" data-name="Elipse 4-9" class="cls-2" cx="837.91" cy="434.37" r="1.42"/><circle id="Elipse_5-9" data-name="Elipse 5-9" class="cls-2" cx="1061" cy="457.15" r="1.42"/><circle id="Elipse_6-9" data-name="Elipse 6-9" class="cls-2" cx="684.1" cy="16.97" r="1.42"/><circle id="Elipse_7-9" data-name="Elipse 7-9" class="cls-2" cx="1023.85" cy="494.86" r="0.71"/><circle id="Elipse_8-9" data-name="Elipse 8-9" class="cls-2" cx="881.92" cy="409.58" r="0.71"/><circle id="Elipse_9-9" data-name="Elipse 9-9" class="cls-2" cx="634.32" cy="21.93" r="0.71"/><circle id="Elipse_10-9" data-name="Elipse 10-9" class="cls-2" cx="1115.55" cy="455.28" r="0.71"/><circle id="Elipse_11-9" data-name="Elipse 11-9" class="cls-2" cx="955.5" cy="448.84" r="0.71"/><circle id="Elipse_12-9" data-name="Elipse 12-9" class="cls-2" cx="676.34" cy="57.65" r="0.71"/><circle id="Elipse_13-9" data-name="Elipse 13-9" class="cls-2" cx="962.84" cy="514.54" r="0.71"/><circle id="Elipse_14-9" data-name="Elipse 14-9" class="cls-2" cx="550.13" cy="0.34" r="0.71"/><circle id="Elipse_15-9" data-name="Elipse 15-9" class="cls-2" cx="895.66" cy="483.67" r="1.42"/><circle id="Elipse_2-10" data-name="Elipse 2-10" class="cls-2" cx="971.8" cy="251.28" r="1.42"/><circle id="Elipse_3-10" data-name="Elipse 3-10" class="cls-2" cx="963.47" cy="329.16" r="1.42"/><circle id="Elipse_4-10" data-name="Elipse 4-10" class="cls-2" cx="903.49" cy="152.18" r="1.42"/><circle id="Elipse_5-10" data-name="Elipse 5-10" class="cls-2" cx="950.73" cy="371.32" r="1.42"/><circle id="Elipse_6-10" data-name="Elipse 6-10" class="cls-2" cx="869.32" cy="378.95" r="1.42"/><circle id="Elipse_7-10" data-name="Elipse 7-10" class="cls-2" cx="903.41" cy="347.65" r="0.71"/><circle id="Elipse_8-10" data-name="Elipse 8-10" class="cls-2" cx="940.65" cy="186.37" r="0.71"/><circle id="Elipse_9-10" data-name="Elipse 9-10" class="cls-2" cx="849.23" cy="333.16" r="0.71"/><circle id="Elipse_10-10" data-name="Elipse 10-10" class="cls-2" cx="969.36" cy="422.6" r="0.71"/><circle id="Elipse_11-10" data-name="Elipse 11-10" class="cls-2" cx="926.05" cy="268.45" r="0.71"/><circle id="Elipse_12-10" data-name="Elipse 12-10" class="cls-2" cx="828.25" cy="384.14" r="0.71"/><circle id="Elipse_13-10" data-name="Elipse 13-10" class="cls-2" cx="865.85" cy="295.72" r="0.71"/><circle id="Elipse_14-10" data-name="Elipse 14-10" class="cls-2" cx="843.75" cy="246.45" r="0.71"/><circle id="Elipse_15-10" data-name="Elipse 15-10" class="cls-2" cx="874.45" cy="222.32" r="1.42"/><circle id="Elipse_2-11" data-name="Elipse 2-11" class="cls-2" cx="1159.84" cy="447.16" r="1.42"/><circle id="Elipse_3-11" data-name="Elipse 3-11" class="cls-2" cx="1237.21" cy="435.03" r="1.42"/><circle id="Elipse_4-11" data-name="Elipse 4-11" class="cls-2" cx="722.82" cy="18.79" r="1.42"/><circle id="Elipse_5-11" data-name="Elipse 5-11" class="cls-2" cx="1281.23" cy="436.42" r="1.42"/><circle id="Elipse_6-11" data-name="Elipse 6-11" class="cls-2" cx="1309.68" cy="513.07" r="1.42"/><circle id="Elipse_7-11" data-name="Elipse 7-11" class="cls-2" cx="1270.62" cy="488.25" r="0.71"/><circle id="Elipse_8-11" data-name="Elipse 8-11" class="cls-2" cx="1105.21" cy="494.05" r="0.71"/><circle id="Elipse_10-11" data-name="Elipse 10-11" class="cls-2" cx="1325.93" cy="405.15" r="0.71"/><circle id="Elipse_11-11" data-name="Elipse 11-11" class="cls-2" cx="1188.27" cy="486.89" r="0.71"/><circle id="Elipse_13-11" data-name="Elipse 13-11" class="cls-2" cx="871.19" cy="17.97" r="0.71"/><circle id="Elipse_14-11" data-name="Elipse 14-11" class="cls-2" cx="829.33" cy="52.08" r="0.71"/><circle id="Elipse_15-11" data-name="Elipse 15-11" class="cls-2" cx="798.08" cy="28.67" r="1.42"/><circle id="Elipse_2-12" data-name="Elipse 2-12" class="cls-2" cx="1150.58" cy="196.04" r="1.42"/><circle id="Elipse_3-12" data-name="Elipse 3-12" class="cls-2" cx="1079.05" cy="164.04" r="1.42"/><circle id="Elipse_4-12" data-name="Elipse 4-12" class="cls-2" cx="1265.98" cy="161.68" r="1.42"/><circle id="Elipse_5-12" data-name="Elipse 5-12" class="cls-2" cx="1042.88" cy="138.89" r="1.42"/><circle id="Elipse_6-12" data-name="Elipse 6-12" class="cls-2" cx="1060.79" cy="59.08" r="1.42"/><circle id="Elipse_7-12" data-name="Elipse 7-12" class="cls-2" cx="1080.03" cy="101.19" r="0.71"/><circle id="Elipse_8-12" data-name="Elipse 8-12" class="cls-2" cx="1221.97" cy="186.47" r="0.71"/><circle id="Elipse_9-12" data-name="Elipse 9-12" class="cls-2" cx="1110.56" cy="54.11" r="0.71"/><circle id="Elipse_10-12" data-name="Elipse 10-12" class="cls-2" cx="988.34" cy="140.76" r="0.71"/><circle id="Elipse_11-12" data-name="Elipse 11-12" class="cls-2" cx="1148.38" cy="147.21" r="0.71"/><circle id="Elipse_12-12" data-name="Elipse 12-12" class="cls-2" cx="1068.54" cy="18.4" r="0.71"/><circle id="Elipse_13-12" data-name="Elipse 13-12" class="cls-2" cx="1141.05" cy="81.5" r="0.71"/><circle id="Elipse_14-12" data-name="Elipse 14-12" class="cls-2" cx="1194.76" cy="75.7" r="0.71"/><circle id="Elipse_15-12" data-name="Elipse 15-12" class="cls-2" cx="1208.22" cy="112.37" r="1.42"/><circle id="Elipse_2-13" data-name="Elipse 2-13" class="cls-2" cx="1198.12" cy="368.85" r="1.42"/><circle id="Elipse_3-13" data-name="Elipse 3-13" class="cls-2" cx="1206.45" cy="290.97" r="1.42"/><circle id="Elipse_4-13" data-name="Elipse 4-13" class="cls-2" cx="1266.43" cy="467.95" r="1.42"/><circle id="Elipse_5-13" data-name="Elipse 5-13" class="cls-2" cx="1219.19" cy="248.81" r="1.42"/><circle id="Elipse_6-13" data-name="Elipse 6-13" class="cls-2" cx="1300.6" cy="241.18" r="1.42"/><circle id="Elipse_7-13" data-name="Elipse 7-13" class="cls-2" cx="1266.51" cy="272.48" r="0.71"/><circle id="Elipse_8-13" data-name="Elipse 8-13" class="cls-2" cx="1229.27" cy="433.76" r="0.71"/><circle id="Elipse_9-13" data-name="Elipse 9-13" class="cls-2" cx="1320.7" cy="286.97" r="0.71"/><circle id="Elipse_10-13" data-name="Elipse 10-13" class="cls-2" cx="1200.56" cy="197.53" r="0.71"/><circle id="Elipse_11-13" data-name="Elipse 11-13" class="cls-2" cx="1243.87" cy="351.68" r="0.71"/><circle id="Elipse_12-13" data-name="Elipse 12-13" class="cls-2" cx="1341.67" cy="235.99" r="0.71"/><circle id="Elipse_13-13" data-name="Elipse 13-13" class="cls-2" cx="1304.07" cy="324.42" r="0.71"/><circle id="Elipse_14-13" data-name="Elipse 14-13" class="cls-2" cx="1326.18" cy="373.69" r="0.71"/><circle id="Elipse_15-13" data-name="Elipse 15-13" class="cls-2" cx="1295.47" cy="397.81" r="1.42"/><circle id="Elipse_2-14" data-name="Elipse 2-14" class="cls-2" cx="1018.41" cy="341.41" r="1.42"/><circle id="Elipse_3-14" data-name="Elipse 3-14" class="cls-2" cx="1030.79" cy="264.09" r="1.42"/><circle id="Elipse_4-14" data-name="Elipse 4-14" class="cls-2" cx="1081.44" cy="443.93" r="1.42"/><circle id="Elipse_5-14" data-name="Elipse 5-14" class="cls-2" cx="1045.71" cy="222.66" r="1.42"/><circle id="Elipse_6-14" data-name="Elipse 6-14" class="cls-2" cx="1127.39" cy="219.29" r="1.42"/><circle id="Elipse_7-14" data-name="Elipse 7-14" class="cls-2" cx="1091.72" cy="248.77" r="0.71"/><circle id="Elipse_8-14" data-name="Elipse 8-14" class="cls-2" cx="1046.13" cy="407.85" r="0.71"/><circle id="Elipse_9-14" data-name="Elipse 9-14" class="cls-2" cx="1145.07" cy="266.06" r="0.71"/><circle id="Elipse_10-14" data-name="Elipse 10-14" class="cls-2" cx="1029.78" cy="170.49" r="0.71"/><circle id="Elipse_11-14" data-name="Elipse 11-14" class="cls-2" cx="1064.98" cy="326.66" r="0.71"/><circle id="Elipse_12-14" data-name="Elipse 12-14" class="cls-2" cx="1168.67" cy="216.25" r="0.71"/><circle id="Elipse_13-14" data-name="Elipse 13-14" class="cls-2" cx="1126.51" cy="302.58" r="0.71"/><circle id="Elipse_14-14" data-name="Elipse 14-14" class="cls-2" cx="1146.01" cy="352.92" r="0.71"/><circle id="Elipse_15-14" data-name="Elipse 15-14" class="cls-2" cx="1114.1" cy="375.41" r="1.42"/><circle id="Elipse_2-15" data-name="Elipse 2-15" class="cls-2" cx="658.17" cy="451.7" r="1.42"/><circle id="Elipse_3-15" data-name="Elipse 3-15" class="cls-2" cx="1308.84" cy="108.58" r="1.42"/><circle id="Elipse_4-15" data-name="Elipse 4-15" class="cls-2" cx="589.86" cy="352.6" r="1.42"/><circle id="Elipse_5-15" data-name="Elipse 5-15" class="cls-2" cx="1296.1" cy="150.74" r="1.42"/><circle id="Elipse_6-15" data-name="Elipse 6-15" class="cls-2" cx="1214.69" cy="158.37" r="1.42"/><circle id="Elipse_7-15" data-name="Elipse 7-15" class="cls-2" cx="1248.78" cy="127.06" r="0.71"/><circle id="Elipse_8-15" data-name="Elipse 8-15" class="cls-2" cx="627.02" cy="386.79" r="0.71"/><circle id="Elipse_9-15" data-name="Elipse 9-15" class="cls-2" cx="1357.6" cy="32.58" r="0.71"/><circle id="Elipse_10-15" data-name="Elipse 10-15" class="cls-2" cx="1314.73" cy="202.02" r="0.71"/><circle id="Elipse_11-15" data-name="Elipse 11-15" class="cls-2" cx="612.43" cy="468.87" r="0.71"/><circle id="Elipse_12-15" data-name="Elipse 12-15" class="cls-2" cx="1336.62" cy="83.56" r="0.71"/><circle id="Elipse_13-15" data-name="Elipse 13-15" class="cls-2" cx="552.22" cy="496.13" r="0.71"/><circle id="Elipse_14-15" data-name="Elipse 14-15" class="cls-2" cx="530.12" cy="446.86" r="0.71"/><circle id="Elipse_15-15" data-name="Elipse 15-15" class="cls-2" cx="560.82" cy="422.74" r="1.42"/><circle id="Elipse_2-16" data-name="Elipse 2-16" class="cls-2" cx="657.94" cy="129.41" r="1.42"/><circle id="Elipse_3-16" data-name="Elipse 3-16" class="cls-2" cx="649.61" cy="207.29" r="1.42"/><circle id="Elipse_4-16" data-name="Elipse 4-16" class="cls-2" cx="589.63" cy="30.31" r="1.42"/><circle id="Elipse_5-16" data-name="Elipse 5-16" class="cls-2" cx="636.87" cy="249.45" r="1.42"/><circle id="Elipse_6-16" data-name="Elipse 6-16" class="cls-2" cx="555.46" cy="257.08" r="1.42"/><circle id="Elipse_7-16" data-name="Elipse 7-16" class="cls-2" cx="589.55" cy="225.77" r="0.71"/><circle id="Elipse_8-16" data-name="Elipse 8-16" class="cls-2" cx="626.79" cy="64.49" r="0.71"/><circle id="Elipse_9-16" data-name="Elipse 9-16" class="cls-2" cx="535.36" cy="211.29" r="0.71"/><circle id="Elipse_10-16" data-name="Elipse 10-16" class="cls-2" cx="655.5" cy="300.73" r="0.71"/><circle id="Elipse_11-16" data-name="Elipse 11-16" class="cls-2" cx="612.19" cy="146.58" r="0.71"/><circle id="Elipse_12-16" data-name="Elipse 12-16" class="cls-2" cx="514.39" cy="262.27" r="0.71"/><circle id="Elipse_13-16" data-name="Elipse 13-16" class="cls-2" cx="551.99" cy="173.84" r="0.71"/><circle id="Elipse_14-16" data-name="Elipse 14-16" class="cls-2" cx="529.89" cy="124.57" r="0.71"/><circle id="Elipse_15-16" data-name="Elipse 15-16" class="cls-2" cx="560.59" cy="100.44" r="1.42"/><circle id="Elipse_2-17" data-name="Elipse 2-17" class="cls-2" cx="787.72" cy="156.32" r="1.42"/><circle id="Elipse_3-17" data-name="Elipse 3-17" class="cls-2" cx="824.38" cy="225.52" r="1.42"/><circle id="Elipse_4-17" data-name="Elipse 4-17" class="cls-2" cx="675.68" cy="112.38" r="1.42"/><circle id="Elipse_5-17" data-name="Elipse 5-17" class="cls-2" cx="837.39" cy="267.59" r="1.42"/><circle id="Elipse_6-17" data-name="Elipse 6-17" class="cls-2" cx="774.18" cy="319.45" r="1.42"/><circle id="Elipse_7-17" data-name="Elipse 7-17" class="cls-2" cx="784.93" cy="274.43" r="0.71"/><circle id="Elipse_8-17" data-name="Elipse 8-17" class="cls-2" cx="725.6" cy="119.93" r="0.71"/><circle id="Elipse_9-17" data-name="Elipse 9-17" class="cls-2" cx="731.92" cy="292.73" r="0.71"/><circle id="Elipse_10-17" data-name="Elipse 10-17" class="cls-2" cx="881.51" cy="299.68" r="0.71"/><circle id="Elipse_11-17" data-name="Elipse 11-17" class="cls-2" cx="759.41" cy="196.13" r="0.71"/><circle id="Elipse_12-17" data-name="Elipse 12-17" class="cls-2" cx="743.04" cy="346.72" r="0.71"/><circle id="Elipse_13-17" data-name="Elipse 13-17" class="cls-2" cx="724.76" cy="252.4" r="0.71"/><circle id="Elipse_14-17" data-name="Elipse 14-17" class="cls-2" cx="678.88" cy="223.92" r="0.71"/><circle id="Elipse_15-17" data-name="Elipse 15-17" class="cls-2" cx="690.84" cy="186.75" r="1.42"/><circle id="Elipse_2-18" data-name="Elipse 2-18" class="cls-2" cx="756.35" cy="453.1" r="1.42"/><circle id="Elipse_3-18" data-name="Elipse 3-18" class="cls-2" cx="834.61" cy="455.96" r="1.42"/><circle id="Elipse_4-18" data-name="Elipse 4-18" class="cls-2" cx="1321.28" cy="107.16" r="1.42"/><circle id="Elipse_5-18" data-name="Elipse 5-18" class="cls-2" cx="877.55" cy="465.72" r="1.42"/><circle id="Elipse_6-18" data-name="Elipse 6-18" class="cls-2" cx="531.86" cy="26.39" r="1.42"/><circle id="Elipse_7-18" data-name="Elipse 7-18" class="cls-2" cx="857.25" cy="514.58" r="0.71"/><circle id="Elipse_8-18" data-name="Elipse 8-18" class="cls-2" cx="693.78" cy="488.71" r="0.71"/><circle id="Elipse_9-18" data-name="Elipse 9-18" class="cls-2" cx="487.59" cy="49.64" r="0.71"/><circle id="Elipse_10-18" data-name="Elipse 10-18" class="cls-2" cx="927.4" cy="443.56" r="0.71"/><circle id="Elipse_11-18" data-name="Elipse 11-18" class="cls-2" cx="776.67" cy="497.53" r="0.71"/><circle id="Elipse_12-18" data-name="Elipse 12-18" class="cls-2" cx="539.9" cy="67" r="0.71"/><circle id="Elipse_13-18" data-name="Elipse 13-18" class="cls-2" cx="449.07" cy="35.67" r="0.71"/><circle id="Elipse_14-18" data-name="Elipse 14-18" class="cls-2" cx="401.48" cy="61.16" r="0.71"/><circle id="Elipse_15-18" data-name="Elipse 15-18" class="cls-2" cx="375.26" cy="32.22" r="1.42"/></svg>