<svg id="Capa_1" data-name="Capa 1" xmlns="http://www.w3.org/2000/svg" viewBox="0 0 1366 50"><defs><style>.cls-1{fill:#fff;}</style></defs><circle id="Elipse_12" data-name="Elipse 12" class="cls-1" cx="28.49" cy="42.02" r="0.71"/><circle id="Elipse_14" data-name="Elipse 14" class="cls-1" cx="165.48" cy="21.33" r="0.71"/><circle id="Elipse_15" data-name="Elipse 15" class="cls-1" cx="196.74" cy="44.73" r="1.42"/><circle id="Elipse_6-4" data-name="Elipse 6-4" class="cls-1" cx="1314.9" cy="42.13" r="1.42"/><circle id="Elipse_7-4" data-name="Elipse 7-4" class="cls-1" cx="1275.84" cy="17.32" r="0.71"/><circle id="Elipse_8-4" data-name="Elipse 8-4" class="cls-1" cx="1110.44" cy="23.12" r="0.71"/><circle id="Elipse_11-4" data-name="Elipse 11-4" class="cls-1" cx="1193.49" cy="15.96" r="0.71"/><circle id="Elipse_12-5" data-name="Elipse 12-5" class="cls-1" cx="335.51" cy="19.3" r="0.71"/><circle id="Elipse_4-8" data-name="Elipse 4-8" class="cls-1" cx="1003.88" cy="34.21" r="1.42"/><circle id="Elipse_9-8" data-name="Elipse 9-8" class="cls-1" cx="815.04" cy="28.67" r="0.71"/><circle id="Elipse_12-8" data-name="Elipse 12-8" class="cls-1" cx="760.38" cy="21.61" r="0.71"/><circle id="Elipse_13-8" data-name="Elipse 13-8" class="cls-1" cx="855.51" cy="35.03" r="0.71"/><circle id="Elipse_14-8" data-name="Elipse 14-8" class="cls-1" cx="897.37" cy="0.92" r="0.71"/><circle id="Elipse_15-8" data-name="Elipse 15-8" class="cls-1" cx="928.63" cy="24.33" r="1.42"/><circle id="Elipse_6-9" data-name="Elipse 6-9" class="cls-1" cx="685.1" cy="17.34" r="1.42"/><circle id="Elipse_9-9" data-name="Elipse 9-9" class="cls-1" cx="635.32" cy="22.3" r="0.71"/><circle id="Elipse_14-9" data-name="Elipse 14-9" class="cls-1" cx="551.13" cy="0.71" r="0.71"/><circle id="Elipse_4-11" data-name="Elipse 4-11" class="cls-1" cx="723.82" cy="19.16" r="1.42"/><circle id="Elipse_13-11" data-name="Elipse 13-11" class="cls-1" cx="872.19" cy="18.34" r="0.71"/><circle id="Elipse_15-11" data-name="Elipse 15-11" class="cls-1" cx="799.08" cy="29.04" r="1.42"/><circle id="Elipse_12-12" data-name="Elipse 12-12" class="cls-1" cx="1069.54" cy="18.76" r="0.71"/><circle id="Elipse_9-15" data-name="Elipse 9-15" class="cls-1" cx="1358.6" cy="32.95" r="0.71"/><circle id="Elipse_4-16" data-name="Elipse 4-16" class="cls-1" cx="590.63" cy="30.68" r="1.42"/><circle id="Elipse_6-18" data-name="Elipse 6-18" class="cls-1" cx="532.86" cy="26.76" r="1.42"/><circle id="Elipse_13-18" data-name="Elipse 13-18" class="cls-1" cx="450.07" cy="36.04" r="0.71"/><circle id="Elipse_15-18" data-name="Elipse 15-18" class="cls-1" cx="376.26" cy="32.59" r="1.42"/></svg>