<svg id="Capa_1" data-name="Capa 1" xmlns="http://www.w3.org/2000/svg" xmlns:xlink="http://www.w3.org/1999/xlink" viewBox="0 0 1917.27 968.03"><defs><style>.cls-1,.cls-5{fill:none;}.cls-2{clip-path:url(#clip-path);}.cls-3{fill:#5470fd;}.cls-4,.cls-5{isolation:isolate;}.cls-5{font-size:241px;stroke:#fff;stroke-width:0.5px;font-family:Montserrat-ExtraBold, Montserrat;font-weight:800;}.cls-6{letter-spacing:-0.01em;}.cls-7{letter-spacing:-0.01em;}.cls-8{letter-spacing:0em;}.cls-9{fill:#b5386d;}</style><clipPath id="clip-path"><rect class="cls-1" y="3.03" width="1915" height="965"/></clipPath></defs><g class="cls-2"><path id="Unión_20" data-name="Unión 20" class="cls-3" d="M-3.87,967.6v-91h-91v-70h91v-91h5V3.6h1920v805h-230.5a4.83,4.83,0,0,0-4.38,0h-17.52a4.94,4.94,0,0,0-4.52,0h-17.5a5,5,0,0,0-4.47,0h-17.47a5.13,5.13,0,0,0-4.52,0h-17.46a5.21,5.21,0,0,0-4.56,0h-17.38a5.34,5.34,0,0,0-4.62,0H1558.9a5.43,5.43,0,0,0-4.66,0h-17.31a5.54,5.54,0,0,0-4.71,0H1515a5.68,5.68,0,0,0-4.77,0H1493a5.75,5.75,0,0,0-4.8,0h-17.15a5.86,5.86,0,0,0-4.85,0h-17.12a6,6,0,0,0-4.9,0h-17a6.07,6.07,0,0,0-4.94,0h-17a6.19,6.19,0,0,0-5,0h-17a6.31,6.31,0,0,0-5,0h-16.94a6.41,6.41,0,0,0-5.08,0h-16.87a6.22,6.22,0,0,0-1.65-.46l.78.46H157.13v68h-91v91Zm1334.6-166.84a6,6,0,1,0,6.54-5.47l-.54,0a5.77,5.77,0,0,0-6,5.5Zm22.07-.09a5.93,5.93,0,1,0,6.43-5.38,4.53,4.53,0,0,0-.52,0,5.68,5.68,0,0,0-5.91,5.41Zm22.09-.09a5.83,5.83,0,1,0,6.33-5.29,4.41,4.41,0,0,0-.52,0,5.58,5.58,0,0,0-5.81,5.32Zm22.07-.09a5.74,5.74,0,1,0,6.22-5.2l-.51,0a5.5,5.5,0,0,0-5.71,5.23Zm22.1-.09a5.64,5.64,0,1,0,6.11-5.11,4.19,4.19,0,0,0-.5,0,5.4,5.4,0,0,0-5.62,5.14Zm22.07-.09a5.54,5.54,0,1,0,6-5l-.49,0a5.31,5.31,0,0,0-5.52,5Zm22.09-.09a5.44,5.44,0,1,0,5.9-4.94l-.48,0a5.22,5.22,0,0,0-5.43,5Zm22.07-.09a5.34,5.34,0,1,0,5.79-4.85l-.47,0a5.13,5.13,0,0,0-5.33,4.87Zm22.09-.08a5.25,5.25,0,1,0,5.69-4.77l-.46,0a5,5,0,0,0-5.23,4.79Zm22.07-.09a5.15,5.15,0,1,0,5.58-4.68l-.45,0a5,5,0,0,0-5.14,4.7Zm22.09-.09a5.05,5.05,0,1,0,5.48-4.58,3.39,3.39,0,0,0-.45,0,4.83,4.83,0,0,0-5,4.6Zm22.07-.09a5,5,0,1,0,5.37-4.5l-.43,0a4.74,4.74,0,0,0-4.94,4.52Zm22.07-.09a4.85,4.85,0,1,0,5.27-4.41l-.43,0a4.67,4.67,0,0,0-4.85,4.43Zm22.09-.09a4.76,4.76,0,1,0,5.16-4.32l-.42,0a4.56,4.56,0,0,0-4.74,4.34Zm22.07-.09a4.66,4.66,0,1,0,5.06-4.23l-.42,0a4.48,4.48,0,0,0-4.65,4.25Zm22.07-.09a4.59,4.59,0,1,0,5-4.16l-.41,0a4.39,4.39,0,0,0-4.57,4.18Zm-350.26-3.37,3,3.73,5.45,3.8a5.26,5.26,0,0,0,.77-2.73,5.86,5.86,0,0,0-6.1-5.58,6.55,6.55,0,0,0-3.12.77ZM1684,799.34a4.49,4.49,0,1,0,4.87-4.08l-.4,0a4.31,4.31,0,0,0-4.48,4.09Zm-414-4,.44.42,2.63.69,1-.35a6.84,6.84,0,0,0-3.22-.81A8.08,8.08,0,0,0,1269.93,795.31Zm-27.53-7a5.67,5.67,0,0,0,2,4.27l4.38,1.58a5.87,5.87,0,1,0-6.4-5.85Zm22.09-.09a6.32,6.32,0,1,0,6.86-5.74l-.56,0a6,6,0,0,0-6.29,5.76Zm44.16-.18a6.12,6.12,0,1,0,6.64-5.56l-.54,0a5.86,5.86,0,0,0-6.09,5.58Zm22.07-.09a6,6,0,1,0,6.54-5.47l-.54,0a5.77,5.77,0,0,0-6,5.49Zm22.07-.09a5.93,5.93,0,1,0,6.44-5.37l-.53,0a5.68,5.68,0,0,0-5.9,5.4Zm22.09-.08a5.83,5.83,0,1,0,6.33-5.3l-.52,0a5.59,5.59,0,0,0-5.8,5.32Zm22.07-.09a5.74,5.74,0,1,0,6.22-5.21l-.51,0a5.49,5.49,0,0,0-5.7,5.23Zm22.1-.09a5.64,5.64,0,1,0,6.11-5.12l-.5,0a5.4,5.4,0,0,0-5.61,5.14Zm22.06-.09a5.54,5.54,0,1,0,6-5l-.49,0a5.31,5.31,0,0,0-5.51,5.05Zm22.1-.09a5.44,5.44,0,1,0,5.9-4.94l-.48,0a5.22,5.22,0,0,0-5.42,5Zm22.07-.09a5.34,5.34,0,1,0,5.79-4.85l-.47,0a5.12,5.12,0,0,0-5.32,4.87Zm22.09-.09a5.25,5.25,0,1,0,5.69-4.76l-.47,0a5,5,0,0,0-5.21,4.78Zm22.07-.09a5.15,5.15,0,1,0,5.58-4.67l-.45,0a4.94,4.94,0,0,0-5.13,4.69Zm22.09-.08a5.05,5.05,0,1,0,5.48-4.58,3.39,3.39,0,0,0-.45,0,4.84,4.84,0,0,0-5,4.59Zm22.07-.09a5,5,0,1,0,5.37-4.5l-.44,0a4.74,4.74,0,0,0-4.92,4.51Zm22.07-.09a4.85,4.85,0,1,0,5.27-4.41l-.43,0a4.66,4.66,0,0,0-4.84,4.43Zm22.09-.09a4.76,4.76,0,1,0,5.16-4.32l-.42,0a4.56,4.56,0,0,0-4.73,4.34Zm22.07-.09a4.66,4.66,0,1,0,5.06-4.23l-.42,0a4.47,4.47,0,0,0-4.64,4.25Zm22.07-.09a4.59,4.59,0,1,0,5-4.16l-.4,0a4.39,4.39,0,0,0-4.56,4.18Zm22.07-.09a4.49,4.49,0,1,0,4.87-4.07l-.4,0a4.31,4.31,0,0,0-4.47,4.09Zm-463.51.68,8.16,2.24,4.68-.7c0-.1,0-.22,0-.35a6.24,6.24,0,0,0-6.49-5.93,6.4,6.4,0,0,0-6.36,4.74Zm78.45.25a6,6,0,0,0-6.15-5,6.59,6.59,0,0,0-3.51,1A5.83,5.83,0,0,0,1287,786l5.87-.1Zm-78.58-11.87a6.52,6.52,0,1,0,7.07-5.92l-.58,0A6.24,6.24,0,0,0,1220.33,775.56Zm22.07-.09a6.42,6.42,0,1,0,7-5.83l-.57,0a6.14,6.14,0,0,0-6.39,5.85Zm22.09-.09a6.32,6.32,0,1,0,6.86-5.74l-.56,0a6,6,0,0,0-6.29,5.76Zm22.07-.09a6.22,6.22,0,1,0,6.75-5.65l-.55,0a6,6,0,0,0-6.19,5.67Zm22.1-.09a6.12,6.12,0,1,0,6.64-5.56l-.54,0a5.87,5.87,0,0,0-6.1,5.58Zm22.06-.09a6,6,0,1,0,6.54-5.47l-.54,0a5.76,5.76,0,0,0-6,5.49Zm22.07-.09a5.93,5.93,0,1,0,6.44-5.37,4.71,4.71,0,0,0-.53,0,5.68,5.68,0,0,0-5.9,5.4Zm22.1-.08a5.83,5.83,0,1,0,6.32-5.3l-.51,0a5.58,5.58,0,0,0-5.81,5.31Zm22.07-.09a5.73,5.73,0,1,0,6.21-5.21l-.5,0a5.49,5.49,0,0,0-5.71,5.22Zm22.09-.09a5.64,5.64,0,1,0,6.11-5.12l-.5,0a5.4,5.4,0,0,0-5.61,5.14Zm22.07-.09a5.54,5.54,0,1,0,6-5l-.5,0a5.3,5.3,0,0,0-5.51,5Zm22.09-.09a5.44,5.44,0,1,0,5.9-4.94l-.48,0a5.22,5.22,0,0,0-5.42,5Zm22.07-.09a5.35,5.35,0,1,0,5.8-4.85l-.48,0a5.12,5.12,0,0,0-5.32,4.87Zm22.09-.09a5.25,5.25,0,1,0,5.69-4.76l-.46,0a5,5,0,0,0-5.22,4.78Zm22.07-.09a5.15,5.15,0,1,0,5.58-4.67l-.45,0a4.93,4.93,0,0,0-5.13,4.69Zm22.09-.09a5.06,5.06,0,1,0,5.49-4.58l-.45,0a4.85,4.85,0,0,0-5,4.6Zm22.07-.08a5,5,0,1,0,5.38-4.5l-.44,0a4.74,4.74,0,0,0-4.93,4.51Zm22.07-.09a4.86,4.86,0,1,0,5.27-4.41l-.43,0a4.66,4.66,0,0,0-4.84,4.42Zm22.09-.09a4.76,4.76,0,1,0,5.16-4.32l-.42,0a4.56,4.56,0,0,0-4.73,4.34Zm22.07-.09a4.66,4.66,0,1,0,5.06-4.23l-.41,0a4.47,4.47,0,0,0-4.65,4.25Zm22.07-.09a4.59,4.59,0,1,0,5-4.16l-.41,0a4.39,4.39,0,0,0-4.56,4.18Zm22.07-.09a4.49,4.49,0,1,0,4.87-4.07l-.4,0a4.3,4.3,0,0,0-4.47,4.09Zm22.09-.09a4.73,4.73,0,0,0,0,.53l8.71-.52a3.8,3.8,0,0,0-1.28-2.84,4.56,4.56,0,0,0-3.09-1.17,4.2,4.2,0,0,0-4.37,4Zm44.44-1.54.31.19,5.1.4,2.34-.72a4.33,4.33,0,0,0-7.75.13Zm-551.53-12,.85,1-.2,3.52.83,1.31,4.89,3a6.83,6.83,0,0,0,4.31-1.91,5.73,5.73,0,0,0,1.76-4.1,6.34,6.34,0,0,0-6.59-6A6.67,6.67,0,0,0,1199,760Zm21.36,2.68a6.52,6.52,0,1,0,7.07-5.92l-.58,0a6.24,6.24,0,0,0-6.49,5.93Zm22.07-.09a6.42,6.42,0,1,0,7-5.83l-.57,0a6.14,6.14,0,0,0-6.39,5.84Zm22.09-.09a6.32,6.32,0,1,0,6.86-5.74l-.56,0a6,6,0,0,0-6.29,5.76Zm22.07-.09a6.22,6.22,0,1,0,6.75-5.65l-.55,0a5.94,5.94,0,0,0-6.19,5.67Zm22.1-.09a6.12,6.12,0,1,0,6.64-5.56l-.54,0a5.87,5.87,0,0,0-6.1,5.58Zm22.06-.09a6,6,0,1,0,6.54-5.47,4.87,4.87,0,0,0-.54,0,5.76,5.76,0,0,0-6,5.49Zm22.07-.09a5.93,5.93,0,1,0,6.44-5.37,4.71,4.71,0,0,0-.53,0,5.67,5.67,0,0,0-5.9,5.4Zm22.1-.09a5.83,5.83,0,1,0,6.32-5.29l-.51,0a5.58,5.58,0,0,0-5.81,5.31ZM1397,762a5.73,5.73,0,1,0,6.21-5.21l-.5,0A5.49,5.49,0,0,0,1397,762Zm22.09-.09a5.64,5.64,0,1,0,6.11-5.12l-.5,0a5.4,5.4,0,0,0-5.61,5.13Zm22.07-.09a5.54,5.54,0,1,0,6-5l-.49,0a5.3,5.3,0,0,0-5.51,5Zm22.09-.09a5.44,5.44,0,1,0,5.9-4.94l-.48,0a5.21,5.21,0,0,0-5.42,5Zm22.07-.09a5.35,5.35,0,1,0,5.8-4.85l-.48,0a5.12,5.12,0,0,0-5.32,4.86Zm22.09-.09a5.25,5.25,0,1,0,5.69-4.76l-.46,0a5,5,0,0,0-5.22,4.78Zm22.07-.09a5.15,5.15,0,1,0,5.58-4.67l-.45,0a4.93,4.93,0,0,0-5.13,4.69Zm22.09-.09a5.06,5.06,0,1,0,5.49-4.58l-.45,0a4.84,4.84,0,0,0-5,4.6Zm22.07-.09a5,5,0,1,0,5.38-4.49l-.44,0a4.73,4.73,0,0,0-4.93,4.51Zm22.07-.08a4.86,4.86,0,1,0,5.27-4.41l-.43,0a4.66,4.66,0,0,0-4.84,4.42Zm22.09-.09a4.76,4.76,0,1,0,5.16-4.32l-.42,0a4.55,4.55,0,0,0-4.73,4.33Zm22.07-.09a4.66,4.66,0,1,0,5.06-4.23l-.41,0a4.46,4.46,0,0,0-4.65,4.24Zm22.07-.09a4.59,4.59,0,1,0,5-4.16,2.82,2.82,0,0,0-.41,0,4.38,4.38,0,0,0-4.56,4.17Zm22.07-.09a4.49,4.49,0,1,0,4.87-4.07,2.61,2.61,0,0,0-.4,0,4.3,4.3,0,0,0-4.47,4.09Zm22.09-.09a4.39,4.39,0,1,0,4.77-4l-.39,0a4.2,4.2,0,0,0-4.37,4Zm22.07-.09a4.3,4.3,0,1,0,4.66-3.89,2.36,2.36,0,0,0-.38,0,4.11,4.11,0,0,0-4.28,3.91Zm22.1-.09a4.2,4.2,0,1,0,4.55-3.8,2.3,2.3,0,0,0-.37,0,4,4,0,0,0-4.18,3.82Zm-568.81-3.66.39.15,3.06,3,1.92.71,2.44.31a6.19,6.19,0,0,0-2.39-3.06,7,7,0,0,0-4-1.21,6.87,6.87,0,0,0-1.43.14Zm-5.25-6.83a6.71,6.71,0,1,0,7.28-6.09l-.6,0a6.43,6.43,0,0,0-6.68,6.11Zm22.07-.09a6.61,6.61,0,1,0,7.17-6,5.68,5.68,0,0,0-.59,0,6.33,6.33,0,0,0-6.58,6Zm22.09-.09a6.52,6.52,0,1,0,7.07-5.92l-.58,0a6.25,6.25,0,0,0-6.49,5.93Zm22.07-.09a6.41,6.41,0,1,0,7-5.83l-.57,0a6.15,6.15,0,0,0-6.39,5.84Zm22.09-.09a6.32,6.32,0,1,0,6.86-5.74l-.56,0a6,6,0,0,0-6.29,5.75Zm22.07-.09a6.22,6.22,0,1,0,6.75-5.65l-.55,0a5.94,5.94,0,0,0-6.19,5.66Zm22.1-.09a6.12,6.12,0,1,0,6.64-5.56l-.54,0a5.87,5.87,0,0,0-6.1,5.58Zm22.06-.09a6,6,0,1,0,6.54-5.47l-.54,0a5.76,5.76,0,0,0-6,5.49Zm22.07-.09a5.93,5.93,0,1,0,6.44-5.37,4.71,4.71,0,0,0-.53,0,5.68,5.68,0,0,0-5.9,5.4Zm22.1-.08a5.83,5.83,0,1,0,6.32-5.3l-.52,0a5.59,5.59,0,0,0-5.8,5.31Zm22.06-.09a5.74,5.74,0,1,0,6.22-5.21l-.5,0a5.49,5.49,0,0,0-5.71,5.22Zm22.1-.09a5.64,5.64,0,1,0,6.11-5.12l-.5,0a5.4,5.4,0,0,0-5.61,5.13Zm22.07-.09a5.54,5.54,0,1,0,6-5l-.49,0a5.3,5.3,0,0,0-5.51,5Zm22.09-.09a5.44,5.44,0,1,0,5.9-4.94l-.48,0a5.21,5.21,0,0,0-5.42,4.95Zm22.07-.09a5.34,5.34,0,1,0,5.79-4.85l-.47,0a5.12,5.12,0,0,0-5.32,4.86Zm22.09-.09a5.25,5.25,0,1,0,5.69-4.76l-.46,0a5,5,0,0,0-5.22,4.78Zm22.07-.09A5.15,5.15,0,1,0,1535,744l-.45,0a4.94,4.94,0,0,0-5.13,4.69Zm22.09-.09A5.05,5.05,0,1,0,1557,744l-.45,0a4.84,4.84,0,0,0-5,4.6Zm22.07-.08A5,5,0,1,0,1579,744l-.44,0a4.74,4.74,0,0,0-4.93,4.51Zm22.07-.09a4.85,4.85,0,1,0,5.27-4.41l-.43,0a4.66,4.66,0,0,0-4.84,4.42Zm22.09-.09a4.76,4.76,0,1,0,5.16-4.32l-.42,0a4.55,4.55,0,0,0-4.73,4.33Zm22.07-.09a4.66,4.66,0,1,0,5.06-4.23l-.42,0a4.47,4.47,0,0,0-4.64,4.24Zm22.07-.09a4.59,4.59,0,1,0,5-4.16l-.41,0a4.38,4.38,0,0,0-4.56,4.17Zm-506.21-2,5.19,1.66,6.36,4.46a5.8,5.8,0,0,0,.4-2.1c0-3.42-3.05-6.21-6.78-6.21a7.06,7.06,0,0,0-5.17,2.18ZM1684,748.05a4.49,4.49,0,1,0,4.87-4.07l-.4,0A4.3,4.3,0,0,0,1684,748Zm22.09-.09a4.39,4.39,0,1,0,4.77-4l-.39,0a4.2,4.2,0,0,0-4.37,4Zm22.07-.09a4.3,4.3,0,0,0,8.56,0,3.59,3.59,0,0,0-.38-1.6l-6.7-1.35a3.78,3.78,0,0,0-1.48,3Zm22.09-.08a4,4,0,0,0,4.19,3.82,4.46,4.46,0,0,0,1.58-.28l-1.17-1.7-4.48-2.73a3.72,3.72,0,0,0-.11.88Zm-596.15-10.44c0,3.43,3,6.21,6.79,6.21s6.78-2.78,6.78-6.21-3.05-6.2-6.78-6.2-6.78,2.78-6.78,6.19Zm22.1-.08a6.71,6.71,0,1,0,7.28-6.09l-.6,0a6.43,6.43,0,0,0-6.68,6.11Zm22.07-.09a6.61,6.61,0,1,0,7.17-6,5.83,5.83,0,0,0-.59,0,6.34,6.34,0,0,0-6.58,6Zm22.09-.09a6.52,6.52,0,1,0,7.07-5.91l-.58,0a6.25,6.25,0,0,0-6.49,5.93Zm22.07-.09a6.41,6.41,0,1,0,7-5.83l-.57,0a6.15,6.15,0,0,0-6.39,5.84Zm22.09-.09a6.32,6.32,0,1,0,6.86-5.74l-.56,0a6,6,0,0,0-6.29,5.75Zm22.07-.09a6.22,6.22,0,1,0,6.75-5.65l-.55,0a6,6,0,0,0-6.19,5.66Zm22.09-.09a6.12,6.12,0,1,0,6.65-5.56l-.55,0a5.87,5.87,0,0,0-6.09,5.57Zm22.07-.09a6,6,0,1,0,6.54-5.47l-.54,0a5.76,5.76,0,0,0-6,5.48Zm22.07-.09a5.93,5.93,0,1,0,6.44-5.37l-.53,0a5.68,5.68,0,0,0-5.9,5.4Zm22.09-.08a5.83,5.83,0,1,0,6.33-5.3l-.52,0a5.58,5.58,0,0,0-5.8,5.31Zm22.07-.09a5.74,5.74,0,1,0,6.22-5.21l-.51,0a5.49,5.49,0,0,0-5.7,5.22Zm22.1-.09a5.64,5.64,0,1,0,6.11-5.12l-.5,0a5.4,5.4,0,0,0-5.61,5.13Zm22.06-.09a5.54,5.54,0,1,0,6-5l-.49,0a5.3,5.3,0,0,0-5.51,5Zm22.1-.09a5.44,5.44,0,1,0,5.9-4.94l-.48,0a5.22,5.22,0,0,0-5.42,5Zm22.07-.09a5.34,5.34,0,1,0,5.79-4.85l-.47,0a5.12,5.12,0,0,0-5.32,4.86Zm22.09-.09a5.25,5.25,0,1,0,5.69-4.76l-.47,0a5,5,0,0,0-5.21,4.77Zm22.07-.09a5.15,5.15,0,1,0,5.58-4.67l-.45,0a4.93,4.93,0,0,0-5.13,4.68Zm22.09-.09a5.05,5.05,0,1,0,5.48-4.58l-.45,0a4.85,4.85,0,0,0-5,4.59Zm22.07-.08a5,5,0,1,0,5.37-4.5l-.44,0a4.74,4.74,0,0,0-4.92,4.5Zm22.07-.09a4.85,4.85,0,1,0,5.27-4.41l-.43,0a4.66,4.66,0,0,0-4.84,4.42Zm22.09-.09a4.76,4.76,0,1,0,5.16-4.32l-.42,0a4.55,4.55,0,0,0-4.73,4.33Zm22.07-.09a4.66,4.66,0,1,0,5.06-4.23l-.42,0a4.47,4.47,0,0,0-4.64,4.24Zm22.07-.09a4.59,4.59,0,1,0,5-4.16l-.4,0a4.38,4.38,0,0,0-4.56,4.17Zm22.07-.09a4.49,4.49,0,1,0,4.87-4.07l-.4,0a4.31,4.31,0,0,0-4.47,4.08Zm22.09-.09a4.21,4.21,0,0,0,4.38,4,4.43,4.43,0,0,0,3.86-2.12l0-3.81a4.44,4.44,0,0,0-3.83-2.07,4.2,4.2,0,0,0-4.37,4Zm-564.28,2,4,.83a5.12,5.12,0,0,0,0-.56c0-3.47-3.08-6.3-6.88-6.3a7.11,7.11,0,0,0-5,2l4.5,2,2.07,2.64,1.33-.64Zm763.93-5a3,3,0,0,0-.93,2.17,3.2,3.2,0,0,0,2,2.9l3.06-.66-1.24-2-.64-3.45a3.56,3.56,0,0,0-2.27,1ZM1132,724.64c0,3.47,3.08,6.29,6.88,6.29s6.88-2.82,6.88-6.29-3.09-6.3-6.88-6.3-6.88,2.81-6.88,6.28Zm22.07-.09c0,3.42,3,6.2,6.78,6.2s6.78-2.78,6.78-6.2a6.52,6.52,0,0,0-6.78-6.21c-3.74,0-6.78,2.77-6.78,6.2Zm22.09-.09a6.71,6.71,0,1,0,7.28-6.09l-.6,0a6.44,6.44,0,0,0-6.68,6.11Zm22.07-.09a6.61,6.61,0,1,0,7.17-6,5.63,5.63,0,0,0-.58,0,6.33,6.33,0,0,0-6.59,6Zm22.09-.09a6.52,6.52,0,1,0,7.07-5.91,5.63,5.63,0,0,0-.58,0,6.25,6.25,0,0,0-6.49,5.93Zm22.07-.09a6.42,6.42,0,1,0,7-5.82l-.57,0a6.15,6.15,0,0,0-6.39,5.84Zm22.09-.09a6.32,6.32,0,1,0,6.86-5.73,5.25,5.25,0,0,0-.56,0,6.05,6.05,0,0,0-6.29,5.75Zm22.07-.09a6.22,6.22,0,1,0,6.75-5.64,4.93,4.93,0,0,0-.55,0,6,6,0,0,0-6.19,5.66Zm22.1-.09a6.12,6.12,0,1,0,6.64-5.55l-.54,0a5.87,5.87,0,0,0-6.1,5.57Zm22.06-.08a6,6,0,1,0,6.54-5.47l-.54,0a5.76,5.76,0,0,0-6,5.48Zm22.07-.09a5.93,5.93,0,1,0,6.44-5.38,4.7,4.7,0,0,0-.53,0,5.67,5.67,0,0,0-5.9,5.38Zm22.1-.09a5.83,5.83,0,1,0,6.32-5.29l-.51,0a5.58,5.58,0,0,0-5.81,5.3Zm22.07-.09a5.73,5.73,0,1,0,6.22-5.2l-.51,0a5.5,5.5,0,0,0-5.71,5.22Zm22.09-.09a5.64,5.64,0,1,0,6.11-5.12l-.5,0a5.4,5.4,0,0,0-5.61,5.13Zm22.07-.09a5.54,5.54,0,1,0,6-5l-.5,0a5.3,5.3,0,0,0-5.51,5Zm22.09-.09a5.44,5.44,0,1,0,5.9-4.94l-.48,0a5.22,5.22,0,0,0-5.42,4.95Zm22.07-.09a5.35,5.35,0,1,0,5.8-4.85l-.48,0a5.12,5.12,0,0,0-5.32,4.86Zm22.09-.09a5.25,5.25,0,1,0,5.69-4.76l-.46,0a5,5,0,0,0-5.22,4.77Zm22.07-.08a5.15,5.15,0,1,0,5.58-4.68l-.45,0a4.94,4.94,0,0,0-5.13,4.68Zm22.09-.09a5.06,5.06,0,1,0,5.49-4.58,3.39,3.39,0,0,0-.45,0,4.84,4.84,0,0,0-5,4.58Zm22.07-.09a5,5,0,1,0,5.38-4.5l-.44,0a4.75,4.75,0,0,0-4.93,4.5Zm22.07-.09a4.86,4.86,0,1,0,5.27-4.41l-.43,0a4.66,4.66,0,0,0-4.84,4.42Zm22.09-.09a4.76,4.76,0,1,0,5.17-4.32l-.43,0a4.56,4.56,0,0,0-4.73,4.33Zm22.07-.09a4.66,4.66,0,1,0,5.06-4.23l-.41,0a4.48,4.48,0,0,0-4.65,4.24Zm22.07-.09a4.59,4.59,0,1,0,5-4.16l-.41,0a4.38,4.38,0,0,0-4.56,4.17Zm22.07-.09a4.49,4.49,0,1,0,4.87-4.07l-.4,0a4.31,4.31,0,0,0-4.47,4.08Zm22.09-.08a4.23,4.23,0,0,0,4.38,4,4.51,4.51,0,0,0,3.78-2l0-4.07a4.41,4.41,0,0,0-3.75-1.95,4.2,4.2,0,0,0-4.37,4Zm198.72-.8a3.22,3.22,0,0,0,2,2.88l-.41-2.28-.8-2.6a3.07,3.07,0,0,0-.76,2ZM1132,711.81c0,3.47,3.08,6.29,6.88,6.29s6.87-2.82,6.87-6.29a6.61,6.61,0,0,0-6.87-6.3c-3.8,0-6.88,2.81-6.88,6.28Zm22.07-.09c0,3.42,3,6.2,6.78,6.2s6.78-2.79,6.78-6.2a6.52,6.52,0,0,0-6.78-6.21c-3.74,0-6.78,2.77-6.78,6.19Zm22.09-.09a6.71,6.71,0,1,0,7.28-6.09l-.6,0a6.43,6.43,0,0,0-6.68,6.1Zm22.07-.09a6.61,6.61,0,1,0,7.17-6,5.68,5.68,0,0,0-.59,0,6.34,6.34,0,0,0-6.58,6Zm22.09-.09a6.52,6.52,0,1,0,7.07-5.91,5.63,5.63,0,0,0-.58,0,6.24,6.24,0,0,0-6.49,5.92Zm22.07-.09a6.42,6.42,0,1,0,7-5.82l-.57,0a6.16,6.16,0,0,0-6.39,5.83Zm-132.46.54a5.76,5.76,0,0,0,.37,2.05l5.9.95,4.59,2,.13.26a6.27,6.27,0,0,0,3-5.22c0-3.52-3.13-6.39-7-6.39s-7,2.85-7,6.37Zm154.55-.63a6.32,6.32,0,1,0,6.86-5.73,5.25,5.25,0,0,0-.56,0,6.05,6.05,0,0,0-6.29,5.75Zm22.07-.09a6.22,6.22,0,1,0,6.75-5.64,4.93,4.93,0,0,0-.55,0,6,6,0,0,0-6.19,5.66Zm22.1-.08a6.12,6.12,0,1,0,6.64-5.56l-.54,0a5.87,5.87,0,0,0-6.1,5.57Zm22.06-.09a6,6,0,1,0,6.54-5.47l-.54,0a5.78,5.78,0,0,0-6,5.48Zm22.07-.09a5.93,5.93,0,1,0,6.44-5.38l-.53,0a5.67,5.67,0,0,0-5.9,5.38Zm22.1-.09a5.83,5.83,0,1,0,6.32-5.29,4.41,4.41,0,0,0-.52,0,5.58,5.58,0,0,0-5.8,5.3Zm22.06-.09a5.74,5.74,0,1,0,6.22-5.2,4.19,4.19,0,0,0-.5,0,5.5,5.5,0,0,0-5.71,5.21Zm22.1-.09a5.64,5.64,0,1,0,6.11-5.11,4.07,4.07,0,0,0-.5,0,5.41,5.41,0,0,0-5.61,5.12Zm22.07-.09a5.54,5.54,0,1,0,6-5,3.91,3.91,0,0,0-.49,0,5.3,5.3,0,0,0-5.51,5Zm22.09-.09a5.44,5.44,0,1,0,5.9-4.93l-.48,0a5.22,5.22,0,0,0-5.42,5Zm22.07-.09a5.34,5.34,0,1,0,5.79-4.84,3.59,3.59,0,0,0-.47,0,5.13,5.13,0,0,0-5.32,4.86Zm22.09-.08a5.25,5.25,0,1,0,5.69-4.77l-.46,0a5,5,0,0,0-5.22,4.77Zm22.07-.09a5.15,5.15,0,1,0,5.58-4.68l-.45,0a4.94,4.94,0,0,0-5.13,4.68Zm22.09-.09a5.05,5.05,0,1,0,5.49-4.58,3.54,3.54,0,0,0-.46,0,4.84,4.84,0,0,0-5,4.58Zm22.07-.09a5,5,0,1,0,5.38-4.5h-.44a4.73,4.73,0,0,0-4.93,4.49Zm22.07-.09a4.85,4.85,0,1,0,5.27-4.41l-.43,0a4.67,4.67,0,0,0-4.84,4.41Zm22.09-.09a4.76,4.76,0,1,0,5.16-4.32h-.42a4.55,4.55,0,0,0-4.73,4.31Zm22.07-.09a4.66,4.66,0,1,0,5.06-4.23h-.42a4.46,4.46,0,0,0-4.64,4.22Zm22.07-.09a4.59,4.59,0,1,0,5-4.16l-.41,0a4.39,4.39,0,0,0-4.56,4.16Zm22.07-.08a4.49,4.49,0,1,0,4.87-4.08l-.4,0a4.31,4.31,0,0,0-4.47,4.08Zm22.09-.09a4.23,4.23,0,0,0,4.38,4,4.48,4.48,0,0,0,3.7-1.87l0-4.31a4.47,4.47,0,0,0-3.67-1.83,4.2,4.2,0,0,0-4.37,4Zm111.58-3h5.42A4.16,4.16,0,0,0,1817.64,706.5Zm-22-.07,5.34,0A4.26,4.26,0,0,0,1795.69,706.43Zm-21.93-.07,5.25,0A4.38,4.38,0,0,0,1773.76,706.36Zm-21.91-.07,5.13,0A4.48,4.48,0,0,0,1751.85,706.29Zm-630.2-6.69-2.43.65-5.86,4.32a7.44,7.44,0,0,0,3.55.88,7.36,7.36,0,0,0,4.59-1.58,6.2,6.2,0,0,0,2.31-3.9Zm17.23,5.67c3.79,0,6.88-2.82,6.88-6.29a6.47,6.47,0,0,0-5.56-6.18l1.13,2.07-2.74,8.9-2.21.13-3-1.07a7.09,7.09,0,0,0,5.46,2.42Zm15.19-6.38a6.81,6.81,0,1,0,6.78-6.21,6.52,6.52,0,0,0-6.78,6.21Zm22.09-.09a6.71,6.71,0,1,0,7.28-6.09,5.82,5.82,0,0,0-.59,0,6.42,6.42,0,0,0-6.68,6.09Zm22.07-.09a6.62,6.62,0,1,0,7.17-6,5.62,5.62,0,0,0-.58,0,6.33,6.33,0,0,0-6.58,6Zm22.1-.11a6.52,6.52,0,1,0,7.07-5.92l-.58,0A6.24,6.24,0,0,0,1220.33,698.6Zm22.07-.07a6.42,6.42,0,1,0,7-5.82l-.57,0a6.15,6.15,0,0,0-6.39,5.86Zm22.09-.09a6.32,6.32,0,1,0,6.86-5.73,5.25,5.25,0,0,0-.56,0,6,6,0,0,0-6.29,5.77Zm22.07-.09a6.22,6.22,0,1,0,6.75-5.64,4.93,4.93,0,0,0-.55,0,6,6,0,0,0-6.19,5.68Zm22.1-.09a6.12,6.12,0,1,0,6.64-5.56l-.54,0a5.87,5.87,0,0,0-6.1,5.59Zm22.06-.08a6,6,0,1,0,6.54-5.48l-.54,0a5.77,5.77,0,0,0-6,5.5Zm22.07-.09a5.93,5.93,0,1,0,6.44-5.38,4.7,4.7,0,0,0-.53,0,5.66,5.66,0,0,0-5.9,5.4Zm22.1-.09a5.83,5.83,0,1,0,6.32-5.3l-.51,0a5.59,5.59,0,0,0-5.81,5.32Zm22.07-.09a5.73,5.73,0,1,0,6.21-5.21l-.5,0a5.5,5.5,0,0,0-5.71,5.23Zm22.09-.09a5.64,5.64,0,1,0,6.11-5.12l-.5,0a5.4,5.4,0,0,0-5.61,5.14Zm22.07-.09a5.54,5.54,0,1,0,6-5l-.49,0a5.3,5.3,0,0,0-5.51,5.05Zm22.09-.09a5.44,5.44,0,1,0,5.9-4.94l-.48,0a5.22,5.22,0,0,0-5.42,5Zm22.07-.09a5.35,5.35,0,1,0,5.8-4.85l-.48,0a5.13,5.13,0,0,0-5.32,4.88Zm22.09-.09a5.25,5.25,0,1,0,5.69-4.76l-.46,0a5,5,0,0,0-5.22,4.79Zm22.07-.08a5.15,5.15,0,1,0,5.58-4.68l-.45,0a4.94,4.94,0,0,0-5.13,4.7Zm22.09-.09a5.06,5.06,0,1,0,5.49-4.58,3.39,3.39,0,0,0-.45,0,4.84,4.84,0,0,0-5,4.6Zm22.07-.09a5,5,0,1,0,5.38-4.5l-.44,0a4.74,4.74,0,0,0-4.93,4.52Zm22.07-.09a4.86,4.86,0,1,0,5.27-4.41l-.43,0a4.66,4.66,0,0,0-4.84,4.43Zm22.09-.09a4.76,4.76,0,1,0,5.16-4.32l-.42,0a4.56,4.56,0,0,0-4.73,4.34Zm22.07-.09a4.66,4.66,0,1,0,5.06-4.23l-.41,0a4.47,4.47,0,0,0-4.65,4.25Zm22.07-.09a4.59,4.59,0,1,0,5-4.16l-.41,0a4.39,4.39,0,0,0-4.56,4.18Zm22.07-.09a4.49,4.49,0,1,0,4.87-4.07l-.4,0a4.31,4.31,0,0,0-4.47,4.1Zm22.09-.08a4.39,4.39,0,1,0,4.77-4h-.39a4.2,4.2,0,0,0-4.37,4Zm22.07-.09a4.3,4.3,0,1,0,4.66-3.9l-.38,0a4.12,4.12,0,0,0-4.28,3.92Zm22.1-.09a4.2,4.2,0,1,0,4.55-3.81l-.37,0a4,4,0,0,0-4.18,3.83Zm22.07-.09a4.1,4.1,0,1,0,4.44-3.72l-.36,0a3.92,3.92,0,0,0-4.08,3.74Zm22.06-.09a4,4,0,1,0,4.34-3.63l-.35,0a3.83,3.83,0,0,0-4,3.65Zm44.17-.18a3.81,3.81,0,1,0,4.12-3.45l-.33,0a3.65,3.65,0,0,0-3.79,3.47Zm-22.07.09a3.57,3.57,0,0,0,2.5,3.32l-.26-.76,3.12-5.86a4.34,4.34,0,0,0-1.47-.26,3.74,3.74,0,0,0-3.89,3.56Zm67.66-2.9,4.54,5.1a3.18,3.18,0,0,0,1.22-2.47,3.46,3.46,0,0,0-3.6-3.29,3.87,3.87,0,0,0-2.16.66Zm-750.88-10.77,1,3.51,3.82,2.75,1.94,3.55a7,7,0,0,0,4.12-2.11,6,6,0,0,0,1.67-4.1c0-3.47-3.09-6.29-6.88-6.29A7.1,7.1,0,0,0,1133.24,682.55Zm20.84,3.51c0,3.42,3,6.2,6.78,6.2s6.78-2.78,6.78-6.2a6.81,6.81,0,0,0-13.56,0Zm22.09-.09a6.71,6.71,0,1,0,7.28-6.09l-.59,0A6.44,6.44,0,0,0,1176.17,686Zm22.07-.09a6.62,6.62,0,1,0,7.17-6,5.63,5.63,0,0,0-.58,0A6.34,6.34,0,0,0,1198.24,685.88Zm22.09-.09a6.52,6.52,0,1,0,7.07-5.91,5.49,5.49,0,0,0-.58,0,6.25,6.25,0,0,0-6.49,5.94Zm22.07-.09a6.42,6.42,0,1,0,7-5.82,5.25,5.25,0,0,0-.56,0,6.15,6.15,0,0,0-6.4,5.85Zm22.1-.09a6.32,6.32,0,1,0,6.85-5.73,5.12,5.12,0,0,0-.56,0,6,6,0,0,0-6.29,5.76Zm22.07-.09a6.22,6.22,0,1,0,6.74-5.64l-.54,0A6,6,0,0,0,1286.57,685.52Zm22.09-.08a6.12,6.12,0,1,0,6.64-5.56l-.54,0a5.87,5.87,0,0,0-6.1,5.58Zm22.07-.09a6,6,0,1,0,6.53-5.47,4.71,4.71,0,0,0-.53,0,5.77,5.77,0,0,0-6,5.49Zm22.07-.09a5.93,5.93,0,1,0,6.43-5.38,4.61,4.61,0,0,0-.53,0,5.67,5.67,0,0,0-5.9,5.4Zm22.09-.09a5.83,5.83,0,1,0,6.32-5.29l-.51,0a5.59,5.59,0,0,0-5.81,5.32Zm22.07-.09a5.73,5.73,0,1,0,6.22-5.2l-.51,0a5.49,5.49,0,0,0-5.71,5.23Zm22.09-.09a5.64,5.64,0,1,0,6.12-5.11l-.51,0a5.4,5.4,0,0,0-5.61,5.14Zm22.07-.09a5.54,5.54,0,1,0,6-5l-.49,0a5.3,5.3,0,0,0-5.52,5Zm22.09-.09a5.44,5.44,0,1,0,5.9-4.94l-.48,0a5.22,5.22,0,0,0-5.42,5Zm22.07-.09a5.35,5.35,0,1,0,5.8-4.85l-.48,0a5.12,5.12,0,0,0-5.32,4.87Zm22.09-.08a5.25,5.25,0,1,0,5.69-4.77l-.46,0a5,5,0,0,0-5.22,4.78Zm22.07-.09a5.15,5.15,0,1,0,5.59-4.68l-.46,0a4.94,4.94,0,0,0-5.13,4.69Zm22.1-.09a5.05,5.05,0,1,0,5.48-4.58,3.39,3.39,0,0,0-.45,0,4.84,4.84,0,0,0-5,4.59Zm22.06-.09a5,5,0,1,0,5.38-4.5l-.44,0a4.74,4.74,0,0,0-4.93,4.52Zm22.07-.09a4.86,4.86,0,1,0,5.27-4.41l-.43,0a4.66,4.66,0,0,0-4.84,4.43Zm22.1-.09a4.76,4.76,0,1,0,5.16-4.32l-.42,0a4.56,4.56,0,0,0-4.74,4.34Zm22.07-.09a4.66,4.66,0,1,0,5.05-4.23l-.41,0a4.48,4.48,0,0,0-4.65,4.25Zm22.06-.09a4.59,4.59,0,1,0,5-4.16l-.41,0a4.39,4.39,0,0,0-4.56,4.18Zm22.07-.09a4.49,4.49,0,1,0,4.87-4.07l-.39,0a4.31,4.31,0,0,0-4.48,4.09Zm22.1-.08a4.39,4.39,0,1,0,4.76-4h-.39a4.19,4.19,0,0,0-4.37,4Zm22.07-.09a4.29,4.29,0,1,0,4.65-3.9l-.38,0a4.11,4.11,0,0,0-4.28,3.91Zm22.09-.09a4.2,4.2,0,1,0,4.56-3.81l-.38,0a4,4,0,0,0-4.18,3.82Zm22.07-.09a4.1,4.1,0,1,0,4.44-3.72l-.36,0a3.93,3.93,0,0,0-4.08,3.74Zm22.07-.09a4,4,0,1,0,4.33-3.63l-.35,0a3.83,3.83,0,0,0-4,3.65Zm22.09-.09a3.9,3.9,0,1,0,4.22-3.54l-.33,0a3.74,3.74,0,0,0-3.89,3.56Zm22.07-.09a3.81,3.81,0,1,0,4.13-3.45l-.34,0a3.65,3.65,0,0,0-3.79,3.47Zm22.09-.09a3.47,3.47,0,0,0,2.76,3.28l4.45-2.22a3.19,3.19,0,0,0,.18-1.06,3.71,3.71,0,0,0-7.39,0Zm22.07-.08a3.61,3.61,0,1,0,3.92-3.28l-.32,0a3.46,3.46,0,0,0-3.6,3.29ZM1138.43,667,1133,676.6a7,7,0,0,0,5.87,3c3.79,0,6.88-2.83,6.88-6.3s-3.09-6.29-6.88-6.29Zm15.65,6.19a6.81,6.81,0,0,0,13.56,0c0-3.42-3-6.2-6.78-6.2s-6.78,2.78-6.78,6.2Zm22.09-.09a6.71,6.71,0,1,0,7.28-6.08l-.6,0a6.43,6.43,0,0,0-6.68,6.11Zm22.07-.08a6.61,6.61,0,1,0,7.17-6,5.68,5.68,0,0,0-.59,0,6.34,6.34,0,0,0-6.58,6Zm22.09-.09a6.52,6.52,0,1,0,7.07-5.92l-.58,0a6.24,6.24,0,0,0-6.49,5.94Zm22.07-.09a6.41,6.41,0,1,0,7-5.83l-.57,0a6.14,6.14,0,0,0-6.39,5.85Zm22.09-.09a6.32,6.32,0,1,0,6.86-5.74l-.56,0a6,6,0,0,0-6.29,5.76Zm22.07-.09a6.22,6.22,0,1,0,6.75-5.65l-.55,0a6,6,0,0,0-6.19,5.67Zm22.1-.09a6.12,6.12,0,1,0,6.64-5.56l-.54,0a5.87,5.87,0,0,0-6.1,5.58Zm22.06-.09a6,6,0,1,0,6.54-5.47l-.54,0a5.76,5.76,0,0,0-6,5.49Zm22.07-.06a5.93,5.93,0,1,0,6.43-5.39l-.52,0a5.67,5.67,0,0,0-5.9,5.41Zm22.1-.09a5.83,5.83,0,1,0,6.32-5.3l-.52,0a5.59,5.59,0,0,0-5.8,5.32Zm22.06-.09a5.74,5.74,0,1,0,6.22-5.21l-.5,0a5.49,5.49,0,0,0-5.71,5.23Zm22.1-.09a5.64,5.64,0,1,0,6.11-5.12l-.5,0a5.4,5.4,0,0,0-5.61,5.14Zm22.07-.09a5.54,5.54,0,1,0,6-5l-.49,0a5.31,5.31,0,0,0-5.51,5.05Zm22.09-.09a5.44,5.44,0,1,0,5.9-4.94l-.48,0a5.22,5.22,0,0,0-5.42,5Zm22.07-.09a5.34,5.34,0,1,0,5.79-4.85l-.47,0a5.12,5.12,0,0,0-5.32,4.87Zm22.09-.09a5.25,5.25,0,1,0,5.69-4.76l-.46,0a5,5,0,0,0-5.22,4.78Zm22.07-.08a5.15,5.15,0,1,0,5.58-4.68l-.45,0a4.94,4.94,0,0,0-5.13,4.69Zm22.09-.09a5.06,5.06,0,1,0,5.49-4.58,3.46,3.46,0,0,0-.46,0,4.84,4.84,0,0,0-5,4.59Zm22.07-.09a5,5,0,1,0,5.38-4.5l-.44,0a4.74,4.74,0,0,0-4.93,4.52Zm22.07-.09a4.85,4.85,0,1,0,5.27-4.41l-.43,0a4.66,4.66,0,0,0-4.84,4.43Zm22.09-.09a4.76,4.76,0,1,0,5.16-4.32l-.42,0a4.56,4.56,0,0,0-4.73,4.34Zm22.07-.09a4.66,4.66,0,1,0,5.06-4.23l-.42,0a4.47,4.47,0,0,0-4.64,4.25Zm22.07-.09a4.59,4.59,0,1,0,5-4.16l-.41,0a4.39,4.39,0,0,0-4.56,4.18Zm22.07-.09a4.49,4.49,0,1,0,4.87-4.07l-.4,0a4.31,4.31,0,0,0-4.47,4.09Zm22.09-.09a4.39,4.39,0,1,0,4.77-4l-.39,0a4.21,4.21,0,0,0-4.37,4Zm22.07-.08a4.3,4.3,0,1,0,4.66-3.9l-.38,0a4.12,4.12,0,0,0-4.28,3.91Zm22.1-.09a4.2,4.2,0,1,0,4.55-3.81l-.37,0a4,4,0,0,0-4.18,3.82Zm22.06-.09a4.1,4.1,0,1,0,4.45-3.72l-.36,0a3.92,3.92,0,0,0-4.08,3.73Zm22.07-.09a4,4,0,1,0,4.34-3.63l-.35,0a3.83,3.83,0,0,0-4,3.65Zm22.1-.09a3.9,3.9,0,1,0,4.22-3.54l-.34,0a3.74,3.74,0,0,0-3.88,3.56Zm22.06-.09a3.81,3.81,0,1,0,4.13-3.45l-.33,0a3.65,3.65,0,0,0-3.79,3.47Zm22.1-.09a3.71,3.71,0,1,0,4-3.36l-.33,0a3.55,3.55,0,0,0-3.69,3.38Zm22.07-.09a3.47,3.47,0,0,0,3.6,3.3,3.81,3.81,0,0,0,1-.12l0-.2,2.64-3.43a3.52,3.52,0,0,0-3.56-2.84,3.46,3.46,0,0,0-3.6,3.29Zm-742.64-6.14-1.48,2.62h.32a7,7,0,0,0,6.06-3.32l-2.1.3-2.24,2.62Zm14.77-.92a6.85,6.85,0,0,0,6,3.37c3.74,0,6.78-2.78,6.78-6.2v-.14l-7.8-1.58Zm26.1-8.78-.35,1.81-2.43,2.22-1.79.42a5.54,5.54,0,0,0-.18,1.4,6.71,6.71,0,0,0,13.37,0,5.8,5.8,0,0,0-1.88-4.24l-1.16.13-2.43-1.07-.53-.9-.69,0a7.66,7.66,0,0,0-1.26.11l.44,1.31-.45-1.31q-.33.06-.66.15Zm17.32,5.77a6.61,6.61,0,1,0,7.17-6,5.68,5.68,0,0,0-.59,0,6.34,6.34,0,0,0-6.58,6Zm22.09-.09a6.52,6.52,0,1,0,7.07-5.91l-.58,0a6.24,6.24,0,0,0-6.49,5.93Zm22.07-.09a6.41,6.41,0,1,0,7-5.82l-.57,0a6.14,6.14,0,0,0-6.39,5.85Zm22.09-.09a6.32,6.32,0,1,0,6.86-5.73l-.56,0a6.05,6.05,0,0,0-6.29,5.76Zm22.07-.09a6.22,6.22,0,1,0,6.75-5.65l-.55,0a6,6,0,0,0-6.19,5.67Zm22.09-.09a6.12,6.12,0,1,0,6.65-5.56l-.55,0a5.86,5.86,0,0,0-6.09,5.58Zm22.07-.09a6,6,0,1,0,6.54-5.47l-.54,0a5.76,5.76,0,0,0-6,5.49Zm22.07-.08a5.93,5.93,0,1,0,6.44-5.38,4.7,4.7,0,0,0-.53,0,5.67,5.67,0,0,0-5.9,5.39Zm22.09-.09a5.83,5.83,0,1,0,6.33-5.3l-.52,0a5.59,5.59,0,0,0-5.8,5.31Zm22.07-.09a5.74,5.74,0,1,0,6.22-5.21l-.51,0a5.49,5.49,0,0,0-5.7,5.22Zm22.1-.09a5.64,5.64,0,1,0,6.11-5.12l-.5,0a5.4,5.4,0,0,0-5.61,5.13Zm22.07-.09a5.54,5.54,0,1,0,6-5l-.49,0a5.3,5.3,0,0,0-5.51,5Zm22.09-.09a5.44,5.44,0,1,0,5.9-4.94l-.48,0a5.22,5.22,0,0,0-5.42,5Zm22.07-.09a5.34,5.34,0,1,0,5.79-4.85l-.47,0a5.12,5.12,0,0,0-5.32,4.87Zm22.09-.09a5.25,5.25,0,1,0,5.69-4.76l-.46,0a5,5,0,0,0-5.22,4.78Zm22.07-.09a5.15,5.15,0,1,0,5.58-4.67l-.45,0a4.94,4.94,0,0,0-5.13,4.69Zm22.09-.08a5.05,5.05,0,1,0,5.48-4.58,3.39,3.39,0,0,0-.45,0,4.84,4.84,0,0,0-5,4.59Zm22.07-.09a5,5,0,1,0,5.37-4.5l-.43,0a4.74,4.74,0,0,0-4.93,4.51Zm22.07-.09a4.85,4.85,0,1,0,5.27-4.41l-.43,0a4.66,4.66,0,0,0-4.84,4.42Zm22.09-.09a4.76,4.76,0,1,0,5.16-4.32l-.42,0a4.56,4.56,0,0,0-4.73,4.33Zm22.07-.09a4.66,4.66,0,1,0,5.06-4.23l-.42,0a4.47,4.47,0,0,0-4.64,4.24Zm22.07-.09a4.59,4.59,0,1,0,5-4.16l-.41,0a4.39,4.39,0,0,0-4.56,4.18Zm22.07-.09a4.49,4.49,0,1,0,4.87-4.07l-.4,0a4.31,4.31,0,0,0-4.47,4.09Zm22.09-.09a4.39,4.39,0,1,0,4.77-4l-.39,0a4.2,4.2,0,0,0-4.37,4Zm22.07-.09a4.3,4.3,0,1,0,4.66-3.9l-.38,0A4.12,4.12,0,0,0,1728.13,658.1Zm22.1-.09a4.2,4.2,0,1,0,4.55-3.81l-.37,0a4,4,0,0,0-4.18,3.83Zm22.06-.09a4.1,4.1,0,1,0,4.45-3.72l-.36,0a3.93,3.93,0,0,0-4.08,3.74Zm22.07-.09a4,4,0,1,0,4.34-3.63l-.35,0a3.83,3.83,0,0,0-4,3.65Zm22.1-.09a3.9,3.9,0,1,0,4.22-3.54l-.34,0a3.74,3.74,0,0,0-3.88,3.56Zm22.06-.09a3.81,3.81,0,1,0,4.13-3.45l-.33,0a3.67,3.67,0,0,0-3.79,3.47Zm22.1-.08a3.71,3.71,0,1,0,4-3.37l-.33,0a3.56,3.56,0,0,0-3.69,3.39Zm-679.42-4.45.11.32a7.2,7.2,0,0,0,1.54.17h.31l-1.72-2.91Zm17-5.72a6.61,6.61,0,1,0,7.17-6,5.68,5.68,0,0,0-.59,0,6.34,6.34,0,0,0-6.58,6Zm22.09-.09a6.52,6.52,0,1,0,7.07-5.91l-.58,0a6.24,6.24,0,0,0-6.49,5.94Zm22.07-.09a6.42,6.42,0,1,0,7-5.82l-.57,0a6.16,6.16,0,0,0-6.39,5.85Zm22.09-.09a6.32,6.32,0,1,0,6.86-5.73l-.56,0a6,6,0,0,0-6.29,5.76Zm22.07-.08a6.22,6.22,0,1,0,6.75-5.65,5.07,5.07,0,0,0-.55,0,6,6,0,0,0-6.19,5.68Zm22.09-.09a6.12,6.12,0,1,0,6.65-5.56,4.93,4.93,0,0,0-.55,0,5.86,5.86,0,0,0-6.09,5.59Zm22.07-.09a6,6,0,1,0,6.54-5.47l-.54,0a5.77,5.77,0,0,0-6,5.5Zm22.07-.09a5.93,5.93,0,1,0,6.44-5.38l-.53,0a5.67,5.67,0,0,0-5.9,5.4Zm22.09-.09a5.83,5.83,0,1,0,6.33-5.29,4.41,4.41,0,0,0-.52,0,5.59,5.59,0,0,0-5.8,5.32Zm22.07-.09a5.74,5.74,0,1,0,6.22-5.2l-.51,0a5.49,5.49,0,0,0-5.7,5.23Zm22.1-.09a5.64,5.64,0,1,0,6.11-5.11,4.19,4.19,0,0,0-.5,0,5.41,5.41,0,0,0-5.61,5.14Zm22.07-.09a5.54,5.54,0,1,0,6-5,3.91,3.91,0,0,0-.49,0,5.31,5.31,0,0,0-5.51,5Zm22.09-.09a5.44,5.44,0,1,0,5.9-4.93l-.48,0a5.22,5.22,0,0,0-5.42,5Zm22.07-.06a5.34,5.34,0,1,0,5.79-4.85,3.62,3.62,0,0,0-.47,0,5.12,5.12,0,0,0-5.32,4.87Zm22.09-.09a5.25,5.25,0,1,0,5.69-4.76,3.54,3.54,0,0,0-.46,0,5,5,0,0,0-5.22,4.78Zm22.07-.09a5.15,5.15,0,1,0,5.58-4.67,3.39,3.39,0,0,0-.45,0,4.93,4.93,0,0,0-5.13,4.69Zm22.09-.09a5.05,5.05,0,1,0,5.48-4.58l-.45,0a4.84,4.84,0,0,0-5,4.6Zm22.07-.09a5,5,0,1,0,5.37-4.49,3.1,3.1,0,0,0-.43,0,4.73,4.73,0,0,0-4.93,4.51Zm22.07-.09a4.85,4.85,0,1,0,5.27-4.4,3.17,3.17,0,0,0-.43,0,4.65,4.65,0,0,0-4.84,4.42Zm22.09-.09a4.76,4.76,0,1,0,5.16-4.31,3,3,0,0,0-.42,0,4.55,4.55,0,0,0-4.73,4.33Zm22.07-.08a4.66,4.66,0,1,0,5.06-4.23,3,3,0,0,0-.42,0,4.46,4.46,0,0,0-4.64,4.24Zm22.07-.09a4.59,4.59,0,1,0,5-4.17h-.41a4.38,4.38,0,0,0-4.56,4.17Zm22.07-.09a4.49,4.49,0,1,0,4.87-4.08h-.4a4.3,4.3,0,0,0-4.47,4.09Zm22.09-.09a4.39,4.39,0,1,0,4.77-4,2.55,2.55,0,0,0-.39,0,4.2,4.2,0,0,0-4.37,4Zm22.07-.09a4.3,4.3,0,1,0,4.66-3.9l-.38,0A4.12,4.12,0,0,0,1728.13,645.29Zm22.1-.09a4.2,4.2,0,1,0,4.55-3.81l-.37,0a4,4,0,0,0-4.18,3.83Zm22.06-.09a4.1,4.1,0,1,0,4.45-3.72l-.36,0a3.93,3.93,0,0,0-4.08,3.74Zm22.07-.09a4,4,0,1,0,4.34-3.63l-.35,0a3.83,3.83,0,0,0-4,3.65Zm22.1-.09a3.9,3.9,0,1,0,4.22-3.54l-.34,0a3.74,3.74,0,0,0-3.88,3.56Zm22.06-.09a3.81,3.81,0,1,0,4.13-3.45l-.33,0a3.66,3.66,0,0,0-3.79,3.47Zm22.1-.08a3.55,3.55,0,0,0,3.69,3.38,4,4,0,0,0,1.19-.18l-3.86-5.54a3.26,3.26,0,0,0-1,2.33Zm-662.3-9.23a5.92,5.92,0,0,0,2.2,3.63,7,7,0,0,0,4.3,1.46,6.34,6.34,0,0,0,6.59-6,5.75,5.75,0,0,0-1.9-4.24,6.92,6.92,0,0,0-4.6-1.79Zm22-1a6.52,6.52,0,1,0,7.07-5.92l-.58,0A6.24,6.24,0,0,0,1220.33,634.5Zm22.07-.09a6.42,6.42,0,1,0,7-5.83l-.57,0a6.15,6.15,0,0,0-6.39,5.85Zm22.09-.09a6.32,6.32,0,1,0,6.86-5.74l-.56,0a6,6,0,0,0-6.29,5.76Zm22.07-.09a6.22,6.22,0,1,0,6.75-5.65l-.55,0a6,6,0,0,0-6.19,5.67Zm22.1-.09a6.12,6.12,0,1,0,6.64-5.56l-.54,0a5.86,5.86,0,0,0-6.1,5.58Zm22.06-.09a6,6,0,1,0,6.54-5.47l-.54,0a5.77,5.77,0,0,0-6,5.5Zm22.07-.09a5.93,5.93,0,1,0,6.44-5.37,4.71,4.71,0,0,0-.53,0,5.68,5.68,0,0,0-5.9,5.41Zm22.1-.08a5.83,5.83,0,1,0,6.32-5.3l-.51,0a5.58,5.58,0,0,0-5.81,5.32Zm22.07-.09a5.73,5.73,0,1,0,6.21-5.21l-.5,0a5.49,5.49,0,0,0-5.71,5.23Zm22.09-.09a5.64,5.64,0,1,0,6.11-5.12l-.5,0a5.4,5.4,0,0,0-5.61,5.14Zm22.07-.09a5.54,5.54,0,1,0,6-5l-.49,0a5.3,5.3,0,0,0-5.51,5.05Zm22.09-.09a5.44,5.44,0,1,0,5.9-4.94l-.48,0a5.22,5.22,0,0,0-5.42,5Zm22.07-.09a5.35,5.35,0,1,0,5.8-4.85l-.48,0a5.12,5.12,0,0,0-5.32,4.87Zm22.09-.09a5.25,5.25,0,1,0,5.69-4.76l-.46,0a5,5,0,0,0-5.22,4.78Zm22.07-.09a5.15,5.15,0,1,0,5.58-4.67l-.45,0a4.94,4.94,0,0,0-5.13,4.7Zm22.09-.08a5.06,5.06,0,1,0,5.49-4.58,3.39,3.39,0,0,0-.45,0,4.83,4.83,0,0,0-5,4.6Zm22.07-.09a5,5,0,1,0,5.38-4.5l-.44,0a4.74,4.74,0,0,0-4.93,4.52Zm22.07-.09a4.86,4.86,0,1,0,5.27-4.41l-.43,0a4.66,4.66,0,0,0-4.84,4.43Zm22.09-.09a4.76,4.76,0,1,0,5.16-4.32l-.42,0a4.56,4.56,0,0,0-4.73,4.34Zm22.07-.09a4.66,4.66,0,1,0,5.06-4.23l-.41,0a4.47,4.47,0,0,0-4.65,4.25Zm22.07-.09a4.59,4.59,0,1,0,5-4.16l-.41,0a4.39,4.39,0,0,0-4.56,4.18Zm22.07-.09a4.49,4.49,0,1,0,4.87-4.07l-.4,0a4.3,4.3,0,0,0-4.47,4.09Zm22.09-.09a4.39,4.39,0,1,0,4.77-4l-.39,0a4.21,4.21,0,0,0-4.37,4Zm22.07-.09a4.3,4.3,0,1,0,4.66-3.89l-.38,0a4.12,4.12,0,0,0-4.28,3.91Zm22.1-.08a4.2,4.2,0,1,0,4.55-3.81l-.37,0a4,4,0,0,0-4.18,3.83Zm22.07-.09a4.1,4.1,0,1,0,4.44-3.72l-.36,0a3.92,3.92,0,0,0-4.08,3.74Zm22.06-.09a4,4,0,1,0,4.34-3.63l-.35,0a3.83,3.83,0,0,0-4,3.65Zm22.1-.09a3.9,3.9,0,1,0,4.22-3.54l-.33,0a3.74,3.74,0,0,0-3.89,3.56Zm22.07-.09a3.81,3.81,0,1,0,4.13-3.45l-.34,0a3.65,3.65,0,0,0-3.79,3.47Zm-631.4-5.81-1.44,1.53a6.24,6.24,0,0,0,5.72-6,5.59,5.59,0,0,0-.23-1.58Zm13.2-4.53a6.52,6.52,0,1,0,7.07-5.92l-.58,0a6.24,6.24,0,0,0-6.49,5.94Zm22.07-.09a6.42,6.42,0,1,0,7-5.83l-.57,0a6.14,6.14,0,0,0-6.39,5.85Zm22.09-.09a6.32,6.32,0,1,0,6.86-5.74l-.56,0a6,6,0,0,0-6.29,5.76Zm22.07-.09a6.22,6.22,0,1,0,6.75-5.65l-.55,0a6,6,0,0,0-6.19,5.67Zm22.1-.09a6.12,6.12,0,1,0,6.64-5.56l-.54,0a5.86,5.86,0,0,0-6.1,5.58Zm22.06-.09a6,6,0,1,0,6.54-5.47l-.54,0a5.76,5.76,0,0,0-6,5.49Zm22.07-.09a5.93,5.93,0,1,0,6.44-5.37,4.71,4.71,0,0,0-.53,0,5.68,5.68,0,0,0-5.9,5.4Zm22.1-.08a5.83,5.83,0,1,0,6.32-5.3l-.51,0a5.59,5.59,0,0,0-5.81,5.32ZM1397,621a5.73,5.73,0,1,0,6.21-5.21l-.5,0A5.49,5.49,0,0,0,1397,621Zm22.09-.09a5.64,5.64,0,1,0,6.11-5.12l-.5,0a5.4,5.4,0,0,0-5.61,5.14Zm22.07-.09a5.54,5.54,0,1,0,6-5l-.49,0a5.3,5.3,0,0,0-5.51,5Zm22.09-.09a5.44,5.44,0,1,0,5.9-4.94l-.48,0a5.22,5.22,0,0,0-5.42,5Zm22.07-.09a5.35,5.35,0,1,0,5.8-4.85,3.77,3.77,0,0,0-.47,0A5.12,5.12,0,0,0,1485.28,620.6Zm22.1-.09a5.25,5.25,0,1,0,5.69-4.76,3.7,3.7,0,0,0-.47,0,5,5,0,0,0-5.22,4.78Zm22.06-.09a5.15,5.15,0,1,0,5.59-4.67,3.54,3.54,0,0,0-.46,0,4.93,4.93,0,0,0-5.13,4.69Zm22.1-.09a5.05,5.05,0,1,0,5.48-4.58l-.45,0a4.85,4.85,0,0,0-5,4.6Zm22.07-.09a4.95,4.95,0,1,0,5.37-4.49,3.24,3.24,0,0,0-.44,0,4.73,4.73,0,0,0-4.93,4.51Zm22.06-.09a4.86,4.86,0,1,0,5.27-4.4,3,3,0,0,0-.43,0,4.65,4.65,0,0,0-4.84,4.43Zm22.1-.06a4.76,4.76,0,1,0,5.16-4.32l-.42,0a4.56,4.56,0,0,0-4.74,4.34Zm22.07-.09a4.66,4.66,0,1,0,5.05-4.23l-.41,0a4.48,4.48,0,0,0-4.65,4.25Zm22.07-.09a4.58,4.58,0,1,0,5-4.16,2.75,2.75,0,0,0-.41,0,4.39,4.39,0,0,0-4.56,4.18Zm22.06-.09a4.49,4.49,0,1,0,4.87-4.07,2.55,2.55,0,0,0-.39,0,4.3,4.3,0,0,0-4.48,4.09Zm22.1-.09a4.39,4.39,0,1,0,4.76-4l-.39,0a4.2,4.2,0,0,0-4.37,4Zm22.07-.09a4.29,4.29,0,1,0,4.66-3.9h-.39a4.11,4.11,0,0,0-4.28,3.91Zm22.09-.09a4.2,4.2,0,1,0,4.56-3.81h-.38a4,4,0,0,0-4.18,3.82Zm22.07-.08a4.1,4.1,0,1,0,4.45-3.73h-.37a3.92,3.92,0,0,0-4.08,3.74Zm22.07-.09a4,4,0,1,0,4.33-3.64h-.35a3.83,3.83,0,0,0-4,3.65Zm22.09-.09a3.9,3.9,0,1,0,4.23-3.55h-.34a3.73,3.73,0,0,0-3.89,3.56Zm22.07-.09a3.8,3.8,0,1,0,4.13-3.46h-.34a3.65,3.65,0,0,0-3.79,3.47Zm22.09-.09a3.5,3.5,0,0,0,3.29,3.36l4.1-3.54a3.72,3.72,0,0,0-7.39.18Zm-640.29-10.25a6.52,6.52,0,1,0,7.07-5.92l-.58,0A6.24,6.24,0,0,0,1220.33,608.86Zm22.07-.09a6.42,6.42,0,1,0,7-5.83l-.57,0a6.14,6.14,0,0,0-6.39,5.85Zm22.09-.09a6.32,6.32,0,1,0,6.86-5.74l-.56,0a6,6,0,0,0-6.29,5.76Zm22.07-.09a6.22,6.22,0,1,0,6.75-5.65l-.55,0a6,6,0,0,0-6.19,5.67Zm22.1-.09a6.12,6.12,0,1,0,6.64-5.56l-.54,0a5.87,5.87,0,0,0-6.1,5.58Zm22.06-.09a6,6,0,1,0,6.54-5.47l-.54,0a5.76,5.76,0,0,0-6,5.49Zm22.07-.09a5.93,5.93,0,1,0,6.43-5.38l-.52,0a5.66,5.66,0,0,0-5.9,5.4Zm22.1-.08a5.83,5.83,0,1,0,6.32-5.3l-.51,0a5.58,5.58,0,0,0-5.81,5.31Zm22.07-.09a5.73,5.73,0,1,0,6.21-5.21l-.5,0a5.49,5.49,0,0,0-5.71,5.22Zm22.09-.09a5.64,5.64,0,1,0,6.11-5.12l-.5,0a5.4,5.4,0,0,0-5.61,5.14Zm22.07-.09a5.54,5.54,0,1,0,6-5l-.49,0a5.3,5.3,0,0,0-5.51,5.05Zm22.09-.09a5.44,5.44,0,1,0,5.9-4.94l-.48,0a5.22,5.22,0,0,0-5.42,5Zm22.07-.09a5.34,5.34,0,1,0,5.79-4.85l-.47,0a5.12,5.12,0,0,0-5.32,4.87Zm22.09-.09a5.25,5.25,0,1,0,5.69-4.76l-.46,0a5,5,0,0,0-5.22,4.78Zm22.07-.09a5.15,5.15,0,1,0,5.58-4.67l-.45,0a4.93,4.93,0,0,0-5.13,4.69Zm22.09-.09a5.06,5.06,0,1,0,5.49-4.58l-.45,0a4.85,4.85,0,0,0-5,4.6Zm22.07-.08a5,5,0,1,0,5.38-4.5l-.44,0a4.73,4.73,0,0,0-4.93,4.51Zm22.07-.09a4.86,4.86,0,1,0,5.27-4.41l-.43,0a4.66,4.66,0,0,0-4.84,4.42Zm22.09-.09a4.76,4.76,0,1,0,5.16-4.32l-.42,0a4.55,4.55,0,0,0-4.73,4.33Zm22.07-.09a4.66,4.66,0,1,0,5.06-4.23l-.41,0a4.47,4.47,0,0,0-4.65,4.25Zm22.07-.09a4.59,4.59,0,1,0,5-4.16l-.41,0a4.39,4.39,0,0,0-4.56,4.18ZM1684,607a4.49,4.49,0,1,0,4.87-4.07,2.61,2.61,0,0,0-.4,0A4.3,4.3,0,0,0,1684,607Zm22.09-.09a4.39,4.39,0,1,0,4.77-4l-.39,0a4.2,4.2,0,0,0-4.37,4Zm22.07-.09a4.3,4.3,0,1,0,4.66-3.89,2.36,2.36,0,0,0-.38,0,4.11,4.11,0,0,0-4.28,3.91Zm22.1-.09a4.2,4.2,0,1,0,4.55-3.8,2.3,2.3,0,0,0-.37,0,4,4,0,0,0-4.18,3.82Zm22.07-.08a4.1,4.1,0,1,0,4.44-3.72,2.17,2.17,0,0,0-.36,0,3.92,3.92,0,0,0-4.08,3.73Zm22.06-.09a4,4,0,1,0,4.34-3.64h-.35a3.83,3.83,0,0,0-4,3.64Zm22.1-.09a3.9,3.9,0,1,0,4.22-3.55h-.33a3.74,3.74,0,0,0-3.89,3.55Zm22.07-.09a3.81,3.81,0,1,0,4.13-3.45l-.34,0a3.65,3.65,0,0,0-3.79,3.47Zm22.09-.09a3.71,3.71,0,1,0,4-3.37h-.33a3.55,3.55,0,0,0-3.69,3.38ZM1229.3,595.45l-2.14.53-4.2,4.82a6.91,6.91,0,0,0,3.87,1.17,6.25,6.25,0,0,0,6.49-5.94,5.58,5.58,0,0,0-1.38-3.66Zm13.1.49a6.41,6.41,0,1,0,7-5.83l-.57,0a6.15,6.15,0,0,0-6.39,5.84Zm22.09-.09a6.32,6.32,0,1,0,6.86-5.74l-.56,0a6,6,0,0,0-6.29,5.76Zm22.07-.09a6.22,6.22,0,1,0,6.75-5.65l-.55,0a6,6,0,0,0-6.19,5.67Zm22.1-.09a6.12,6.12,0,1,0,6.64-5.56l-.54,0a5.87,5.87,0,0,0-6.1,5.58Zm22.06-.09a6,6,0,1,0,6.54-5.47l-.54,0a5.76,5.76,0,0,0-6,5.49Zm22.07-.09a5.93,5.93,0,1,0,6.44-5.37,4.71,4.71,0,0,0-.53,0,5.68,5.68,0,0,0-5.9,5.4Zm22.1-.08a5.83,5.83,0,1,0,6.32-5.3l-.52,0a5.58,5.58,0,0,0-5.8,5.31Zm22.06-.09a5.74,5.74,0,1,0,6.22-5.21l-.5,0a5.49,5.49,0,0,0-5.71,5.22Zm22.1-.09a5.64,5.64,0,1,0,6.11-5.12l-.5,0a5.4,5.4,0,0,0-5.61,5.13Zm22.07-.09a5.54,5.54,0,1,0,6-5l-.49,0a5.3,5.3,0,0,0-5.51,5Zm22.09-.09a5.44,5.44,0,1,0,5.9-4.94l-.48,0a5.22,5.22,0,0,0-5.42,5Zm22.07-.09a5.34,5.34,0,1,0,5.79-4.85l-.47,0a5.12,5.12,0,0,0-5.32,4.87Zm22.09-.09a5.25,5.25,0,1,0,5.69-4.76l-.46,0a5,5,0,0,0-5.22,4.78Zm22.07-.09a5.15,5.15,0,1,0,5.58-4.67l-.45,0a4.94,4.94,0,0,0-5.13,4.69Zm22.09-.08a5.05,5.05,0,1,0,5.49-4.58,3.54,3.54,0,0,0-.46,0,4.84,4.84,0,0,0-5,4.59Zm22.07-.09a5,5,0,1,0,5.37-4.5l-.43,0a4.74,4.74,0,0,0-4.93,4.51Zm22.07-.09a4.85,4.85,0,1,0,5.27-4.41l-.43,0a4.66,4.66,0,0,0-4.84,4.42Zm22.09-.09a4.76,4.76,0,1,0,5.16-4.32l-.42,0a4.55,4.55,0,0,0-4.73,4.33Zm22.07-.09a4.66,4.66,0,1,0,5.06-4.23l-.42,0a4.46,4.46,0,0,0-4.64,4.24Zm22.07-.09a4.59,4.59,0,1,0,5-4.16l-.41,0a4.38,4.38,0,0,0-4.56,4.17Zm22.07-.09a4.49,4.49,0,1,0,4.87-4.07l-.4,0a4.31,4.31,0,0,0-4.47,4.08Zm22.09-.09a4.39,4.39,0,1,0,4.77-4l-.39,0a4.2,4.2,0,0,0-4.37,4Zm22.07-.09a4.3,4.3,0,1,0,4.66-3.89l-.38,0a4.11,4.11,0,0,0-4.28,3.91Zm22.1-.06a4.2,4.2,0,1,0,4.55-3.81l-.37,0a4,4,0,0,0-4.18,3.82Zm22.06-.09a4.1,4.1,0,1,0,4.45-3.72l-.36,0a3.92,3.92,0,0,0-4.08,3.73Zm22.07-.09a4,4,0,1,0,4.34-3.63l-.35,0a3.83,3.83,0,0,0-4,3.64Zm22.1-.09a3.9,3.9,0,1,0,4.22-3.54l-.34,0a3.73,3.73,0,0,0-3.88,3.55Zm22.06-.09a3.81,3.81,0,1,0,4.13-3.45l-.33,0a3.65,3.65,0,0,0-3.79,3.46Zm22.1-.09a3.71,3.71,0,1,0,4-3.36l-.33,0a3.55,3.55,0,0,0-3.69,3.38ZM1242.4,583.13a6.42,6.42,0,1,0,7-5.82l-.57,0a6.15,6.15,0,0,0-6.39,5.84Zm22.09-.09a6.32,6.32,0,1,0,6.86-5.73l-.56,0a6.05,6.05,0,0,0-6.29,5.75Zm22.07-.09a6.22,6.22,0,1,0,6.75-5.64,5.07,5.07,0,0,0-.55,0,6,6,0,0,0-6.19,5.66Zm22.09-.09a6.12,6.12,0,1,0,6.65-5.55,5.07,5.07,0,0,0-.55,0,5.87,5.87,0,0,0-6.09,5.58Zm22.07-.08a6,6,0,1,0,6.54-5.48l-.54,0a5.76,5.76,0,0,0-6,5.49Zm22.07-.09a5.93,5.93,0,1,0,6.44-5.38,4.78,4.78,0,0,0-.53,0,5.67,5.67,0,0,0-5.9,5.39Zm22.09-.09a5.83,5.83,0,1,0,6.33-5.29,4.41,4.41,0,0,0-.52,0,5.59,5.59,0,0,0-5.8,5.31Zm22.07-.09a5.74,5.74,0,1,0,6.22-5.21l-.51,0a5.49,5.49,0,0,0-5.7,5.22Zm22.1-.09a5.64,5.64,0,1,0,6.11-5.12l-.5,0a5.4,5.4,0,0,0-5.61,5.13Zm22.06-.09a5.54,5.54,0,1,0,6-5l-.49,0a5.3,5.3,0,0,0-5.51,5Zm22.1-.09a5.44,5.44,0,1,0,5.9-4.94l-.48,0a5.22,5.22,0,0,0-5.42,5Zm22.07-.09a5.34,5.34,0,1,0,5.79-4.85l-.47,0a5.12,5.12,0,0,0-5.32,4.86Zm22.09-.09a5.25,5.25,0,1,0,5.69-4.76l-.47,0a5,5,0,0,0-5.21,4.78Zm22.07-.08a5.15,5.15,0,1,0,5.58-4.68l-.45,0a4.94,4.94,0,0,0-5.13,4.69Zm22.09-.09a5.05,5.05,0,1,0,5.48-4.58,3.39,3.39,0,0,0-.45,0,4.84,4.84,0,0,0-5,4.59Zm22.07-.09a5,5,0,1,0,5.37-4.5l-.43,0a4.74,4.74,0,0,0-4.93,4.51Zm22.07-.09a4.85,4.85,0,1,0,5.27-4.41l-.43,0a4.66,4.66,0,0,0-4.84,4.42Zm22.09-.09a4.76,4.76,0,1,0,5.16-4.32l-.42,0a4.55,4.55,0,0,0-4.73,4.33Zm22.07-.09a4.66,4.66,0,1,0,5.06-4.23l-.42,0a4.46,4.46,0,0,0-4.64,4.24Zm22.07-.09a4.59,4.59,0,1,0,5-4.16l-.4,0a4.4,4.4,0,0,0-4.56,4.17Zm22.07-.09a4.49,4.49,0,1,0,4.87-4.07l-.4,0a4.31,4.31,0,0,0-4.47,4.08Zm22.09-.09a4.39,4.39,0,1,0,4.77-4l-.39,0a4.2,4.2,0,0,0-4.37,4Zm22.07-.08a4.3,4.3,0,1,0,4.66-3.9l-.38,0a4.12,4.12,0,0,0-4.28,3.91Zm22.09-.09a4.2,4.2,0,1,0,4.56-3.81l-.38,0a4,4,0,0,0-4.17,3.82Zm22.07-.09a4.1,4.1,0,1,0,4.45-3.72l-.36,0a3.93,3.93,0,0,0-4.08,3.73Zm22.07-.09a4,4,0,1,0,4.34-3.63l-.35,0a3.83,3.83,0,0,0-4,3.64Zm22.09-.09a3.9,3.9,0,1,0,4.23-3.54l-.34,0a3.73,3.73,0,0,0-3.88,3.55Zm22.07-.09a3.81,3.81,0,1,0,4.13-3.45l-.34,0a3.65,3.65,0,0,0-3.78,3.46Zm-614.39-2.92.21,1.11,1.41.71,5.06-.2.63-.39a6.79,6.79,0,0,0-4.62-1.77A6.91,6.91,0,0,0,1224.13,577.81Zm2.43-13.37,4.32,2-1.77,5.29-4.69,1.27-.8,2.09.1.52a7,7,0,0,0,3.1.73,6,6,0,1,0,1.06-11.88,6.25,6.25,0,0,0-1.06,0h-.26Zm15.84,5.85a6.42,6.42,0,1,0,7-5.82l-.57,0a6.14,6.14,0,0,0-6.39,5.85Zm22.09-.09a6.32,6.32,0,1,0,6.86-5.74l-.56,0a6.05,6.05,0,0,0-6.29,5.76Zm22.07-.09a6.22,6.22,0,1,0,6.75-5.65l-.55,0a6,6,0,0,0-6.19,5.67Zm22.1-.09a6.12,6.12,0,1,0,6.64-5.56l-.54,0a5.87,5.87,0,0,0-6.1,5.58Zm22.06-.09a6,6,0,1,0,6.54-5.47l-.54,0a5.77,5.77,0,0,0-6,5.49Zm22.07-.08a5.93,5.93,0,1,0,6.43-5.39l-.52,0a5.67,5.67,0,0,0-5.9,5.41Zm22.1-.09a5.83,5.83,0,1,0,6.32-5.3l-.51,0a5.59,5.59,0,0,0-5.81,5.32Zm22.07-.09a5.73,5.73,0,1,0,6.21-5.21l-.5,0a5.49,5.49,0,0,0-5.71,5.23Zm22.09-.09a5.64,5.64,0,1,0,6.11-5.12l-.5,0a5.4,5.4,0,0,0-5.61,5.14Zm22.07-.09a5.54,5.54,0,1,0,6-5l-.49,0a5.31,5.31,0,0,0-5.51,5Zm22.09-.09a5.44,5.44,0,1,0,5.9-4.94l-.48,0a5.22,5.22,0,0,0-5.42,5Zm22.07-.09a5.35,5.35,0,1,0,5.8-4.85l-.48,0a5.12,5.12,0,0,0-5.32,4.87Zm22.09-.09a5.25,5.25,0,1,0,5.69-4.76l-.46,0a5,5,0,0,0-5.22,4.78Zm22.07-.08a5.15,5.15,0,1,0,5.58-4.68l-.45,0a4.94,4.94,0,0,0-5.13,4.69Zm22.09-.09a5.06,5.06,0,1,0,5.49-4.58,3.39,3.39,0,0,0-.45,0,4.84,4.84,0,0,0-5,4.6Zm22.07-.09a5,5,0,1,0,5.38-4.5l-.44,0a4.74,4.74,0,0,0-4.93,4.52Zm22.07-.09a4.86,4.86,0,1,0,5.27-4.41l-.43,0a4.66,4.66,0,0,0-4.84,4.43Zm22.09-.09a4.76,4.76,0,1,0,5.16-4.32l-.42,0a4.56,4.56,0,0,0-4.73,4.34Zm22.07-.09a4.66,4.66,0,1,0,5.06-4.23l-.41,0a4.47,4.47,0,0,0-4.65,4.25Zm22.07-.09a4.59,4.59,0,1,0,5-4.16l-.41,0a4.39,4.39,0,0,0-4.56,4.18Zm22.07-.09a4.49,4.49,0,1,0,4.87-4.07l-.4,0a4.31,4.31,0,0,0-4.47,4.09Zm22.09-.09a4.39,4.39,0,1,0,4.77-4l-.39,0a4.21,4.21,0,0,0-4.37,4Zm-485.73,2a5.56,5.56,0,0,0,.37,2l1.89-4.9,3.08-2.93A6.11,6.11,0,0,0,1220.33,570.38Zm507.8-2a4.3,4.3,0,1,0,4.66-3.9h-.38a4.11,4.11,0,0,0-4.28,3.91Zm22.1-.09a4.2,4.2,0,1,0,4.55-3.81h-.37a4,4,0,0,0-4.18,3.82Zm22.06-.09a4.1,4.1,0,1,0,4.45-3.72h-.36a3.92,3.92,0,0,0-4.08,3.73Zm22.07-.08a4,4,0,1,0,4.34-3.64h-.35a3.82,3.82,0,0,0-4,3.65Zm22.1-.09a3.9,3.9,0,1,0,4.22-3.55h-.34a3.74,3.74,0,0,0-3.88,3.56Zm22.06-.09a3.81,3.81,0,1,0,4.13-3.46h-.33a3.65,3.65,0,0,0-3.79,3.47ZM1221.42,555h0l-.46,1.93-.62.24c0,.12,0,.26,0,.39a6.52,6.52,0,1,0,7.07-5.92l-.58,0a6.71,6.71,0,0,0-5.1,2.27l-.19.84-.36-.1c-.1.16-.18.32-.26.48l.52-.11Zm21,2.47a6.42,6.42,0,1,0,7-5.82l-.57,0a6.15,6.15,0,0,0-6.39,5.85Zm22.09-.09a6.32,6.32,0,1,0,6.86-5.74l-.56,0a6,6,0,0,0-6.29,5.76Zm22.07-.09a6.22,6.22,0,1,0,6.75-5.65l-.55,0a6,6,0,0,0-6.19,5.67Zm22.09-.09a6.12,6.12,0,1,0,6.65-5.56l-.55,0a5.86,5.86,0,0,0-6.09,5.58Zm22.07-.09a6,6,0,1,0,6.54-5.47l-.54,0a5.77,5.77,0,0,0-6,5.49Zm22.07-.08a5.93,5.93,0,1,0,6.44-5.38,4.7,4.7,0,0,0-.53,0,5.67,5.67,0,0,0-5.9,5.39Zm22.09-.09a5.83,5.83,0,1,0,6.33-5.3l-.52,0a5.59,5.59,0,0,0-5.8,5.31Zm22.07-.09a5.74,5.74,0,1,0,6.22-5.21l-.51,0a5.49,5.49,0,0,0-5.7,5.23Zm22.1-.09a5.64,5.64,0,1,0,6.11-5.12l-.5,0a5.4,5.4,0,0,0-5.61,5.14Zm22.07-.09a5.54,5.54,0,1,0,6-5l-.49,0a5.31,5.31,0,0,0-5.51,5Zm22.09-.09a5.44,5.44,0,1,0,5.9-4.94l-.48,0a5.22,5.22,0,0,0-5.42,5Zm22.07-.09a5.34,5.34,0,1,0,5.79-4.85l-.47,0a5.12,5.12,0,0,0-5.32,4.87Zm22.09-.09a5.25,5.25,0,1,0,5.69-4.76l-.46,0a5,5,0,0,0-5.22,4.78Zm22.07-.09a5.15,5.15,0,1,0,5.58-4.67l-.45,0a4.94,4.94,0,0,0-5.13,4.69Zm22.09-.08a5.05,5.05,0,1,0,5.48-4.58,3.39,3.39,0,0,0-.45,0,4.84,4.84,0,0,0-5,4.59Zm22.07-.09a5,5,0,1,0,5.37-4.5l-.43,0a4.74,4.74,0,0,0-4.93,4.51Zm22.07-.09a4.85,4.85,0,1,0,5.27-4.41l-.43,0a4.66,4.66,0,0,0-4.84,4.43Zm22.09-.09a4.76,4.76,0,1,0,5.16-4.32l-.42,0a4.56,4.56,0,0,0-4.73,4.34Zm22.07-.09a4.66,4.66,0,1,0,5.06-4.23l-.42,0a4.47,4.47,0,0,0-4.64,4.25Zm22.07-.09a4.59,4.59,0,1,0,5-4.16l-.41,0a4.39,4.39,0,0,0-4.56,4.18Zm22.07-.09a4.49,4.49,0,1,0,4.87-4.07l-.4,0a4.31,4.31,0,0,0-4.47,4.09Zm22.09-.09a4.39,4.39,0,1,0,4.77-4l-.39,0a4.2,4.2,0,0,0-4.37,4Zm22.07-.08a4.3,4.3,0,1,0,4.66-3.9l-.38,0a4.11,4.11,0,0,0-4.28,3.91Zm22.09-.09a4.2,4.2,0,1,0,4.56-3.81l-.37,0a4,4,0,0,0-4.18,3.82Zm22.07-.09a4.1,4.1,0,1,0,4.45-3.72l-.36,0a3.92,3.92,0,0,0-4.08,3.73Zm22.07-.09a4,4,0,1,0,4.34-3.63l-.35,0a3.83,3.83,0,0,0-4,3.64Zm22.09-.09a3.9,3.9,0,1,0,4.23-3.54l-.34,0a3.74,3.74,0,0,0-3.88,3.56Zm22.07-.09a3.81,3.81,0,1,0,4.13-3.45l-.33,0a3.65,3.65,0,0,0-3.79,3.47Zm-630.8.89-.66,2.22,4.33-1a5.67,5.67,0,0,0-1.33-3.23Zm12.61-11.23a6.52,6.52,0,1,0,7.07-5.91l-.58,0a6.24,6.24,0,0,0-6.49,5.94Zm22.07-.09a6.42,6.42,0,1,0,7-5.82,5.44,5.44,0,0,0-.57,0,6.15,6.15,0,0,0-6.39,5.85Zm22.09-.09a6.32,6.32,0,1,0,6.86-5.73l-.56,0a6.05,6.05,0,0,0-6.29,5.76Zm22.07-.09a6.22,6.22,0,1,0,6.75-5.65l-.55,0a6,6,0,0,0-6.19,5.67Zm22.09-.09a6.12,6.12,0,1,0,6.65-5.56l-.55,0a5.86,5.86,0,0,0-6.09,5.58Zm22.07-.09a6,6,0,1,0,6.54-5.47l-.54,0a5.76,5.76,0,0,0-6,5.49Zm22.07-.08a5.93,5.93,0,1,0,6.44-5.38,4.78,4.78,0,0,0-.53,0,5.67,5.67,0,0,0-5.9,5.39Zm22.09-.09a5.83,5.83,0,1,0,6.33-5.3l-.52,0a5.59,5.59,0,0,0-5.8,5.31ZM1397,544a5.74,5.74,0,1,0,6.22-5.21l-.51,0A5.49,5.49,0,0,0,1397,544Zm22.1-.09a5.63,5.63,0,1,0,6.11-5.12l-.5,0a5.4,5.4,0,0,0-5.61,5.13Zm22.06-.09a5.54,5.54,0,1,0,6-5l-.49,0a5.3,5.3,0,0,0-5.51,5Zm22.1-.09a5.44,5.44,0,1,0,5.9-4.94l-.48,0a5.22,5.22,0,0,0-5.42,5Zm22.07-.09a5.34,5.34,0,1,0,5.79-4.85l-.47,0a5.12,5.12,0,0,0-5.32,4.87Zm22.09-.09a5.25,5.25,0,1,0,5.69-4.76l-.47,0a5,5,0,0,0-5.21,4.78Zm22.07-.09a5.15,5.15,0,1,0,5.58-4.67l-.45,0a4.94,4.94,0,0,0-5.13,4.69Zm22.09-.08a5.05,5.05,0,1,0,5.48-4.58,3.39,3.39,0,0,0-.45,0,4.84,4.84,0,0,0-5,4.59Zm22.07-.09a5,5,0,1,0,5.37-4.5l-.44,0a4.74,4.74,0,0,0-4.92,4.51Zm22.07-.09a4.85,4.85,0,1,0,5.27-4.41l-.43,0a4.66,4.66,0,0,0-4.84,4.42Zm22.09-.09a4.76,4.76,0,1,0,5.16-4.32l-.42,0a4.56,4.56,0,0,0-4.73,4.33Zm22.07-.09a4.66,4.66,0,1,0,5.05-4.23l-.41,0a4.47,4.47,0,0,0-4.64,4.25Zm22.07-.09a4.59,4.59,0,1,0,5-4.16l-.4,0a4.38,4.38,0,0,0-4.56,4.17Zm22.07-.09a4.49,4.49,0,1,0,4.87-4.07l-.4,0a4.31,4.31,0,0,0-4.47,4.09Zm22.09-.09a4.39,4.39,0,1,0,4.77-4l-.39,0a4.2,4.2,0,0,0-4.37,4Zm22.07-.09a4.3,4.3,0,1,0,4.66-3.9l-.38,0A4.12,4.12,0,0,0,1728.13,542.69Zm22.1-.09a4.2,4.2,0,1,0,4.56-3.81l-.38,0A4,4,0,0,0,1750.23,542.6Zm22.07-.09a4.1,4.1,0,1,0,4.45-3.72l-.37,0a3.93,3.93,0,0,0-4.08,3.74Zm22.07-.09a4,4,0,1,0,4.34-3.63l-.35,0a3.84,3.84,0,0,0-4,3.65Zm22.09-.09a3.9,3.9,0,1,0,4.23-3.54l-.34,0a3.75,3.75,0,0,0-3.89,3.56Zm22.07-.09a3.81,3.81,0,1,0,4.13-3.45l-.34,0a3.65,3.65,0,0,0-3.79,3.47Zm-616.37-14.45.47,8.66a6.83,6.83,0,0,0,4.19,1.41,6,6,0,1,0,1.06-11.87,4.7,4.7,0,0,0-1.06,0A6.73,6.73,0,0,0,1222.16,527.79Zm20.24,4a6.42,6.42,0,1,0,7-5.82,5.24,5.24,0,0,0-.56,0A6.15,6.15,0,0,0,1242.4,531.83Zm22.1-.08a6.32,6.32,0,1,0,6.85-5.74,5.24,5.24,0,0,0-.56,0A6,6,0,0,0,1264.5,531.75Zm22.07-.09a6.22,6.22,0,1,0,6.74-5.65,4.87,4.87,0,0,0-.54,0A5.94,5.94,0,0,0,1286.57,531.66Zm22.09-.09a6.12,6.12,0,1,0,6.64-5.56,4.87,4.87,0,0,0-.54,0,5.86,5.86,0,0,0-6.1,5.58Zm22.07-.09a6,6,0,1,0,6.53-5.47,3.13,3.13,0,0,0-.53,0,5.77,5.77,0,0,0-6,5.49Zm22.07-.09a5.93,5.93,0,1,0,6.43-5.38l-.53,0a5.67,5.67,0,0,0-5.9,5.4Zm22.09-.09a5.83,5.83,0,1,0,6.32-5.29,4.35,4.35,0,0,0-.51,0,5.58,5.58,0,0,0-5.81,5.31Zm22.07-.09a5.73,5.73,0,1,0,6.22-5.2,4.35,4.35,0,0,0-.51,0,5.48,5.48,0,0,0-5.71,5.22Zm22.09-.09a5.64,5.64,0,1,0,6.11-5.11,4.1,4.1,0,0,0-.5,0,5.4,5.4,0,0,0-5.61,5.13Zm22.07-.08a5.54,5.54,0,1,0,6-5,4.1,4.1,0,0,0-.49,0,5.29,5.29,0,0,0-5.52,5Zm22.09-.09a5.44,5.44,0,1,0,5.9-4.94,3.85,3.85,0,0,0-.48,0,5.21,5.21,0,0,0-5.42,5Zm22.07-.09a5.35,5.35,0,1,0,5.8-4.85,3.85,3.85,0,0,0-.48,0,5.12,5.12,0,0,0-5.32,4.87Zm22.09-.09a5.25,5.25,0,1,0,5.69-4.76,3.54,3.54,0,0,0-.46,0,5,5,0,0,0-5.22,4.78Zm22.07-.09A5.15,5.15,0,1,0,1535,526a3.54,3.54,0,0,0-.46,0,4.93,4.93,0,0,0-5.13,4.69Zm22.1-.09A5.05,5.05,0,1,0,1557,526l-.45,0a4.84,4.84,0,0,0-5,4.6Zm22.06-.09A5,5,0,1,0,1579,526a3.24,3.24,0,0,0-.44,0,4.73,4.73,0,0,0-4.93,4.51Zm22.07-.09a4.86,4.86,0,1,0,5.27-4.4,3.1,3.1,0,0,0-.43,0,4.66,4.66,0,0,0-4.84,4.42Zm22.1-.09a4.76,4.76,0,1,0,5.16-4.31,3,3,0,0,0-.42,0,4.55,4.55,0,0,0-4.74,4.33Zm22.07-.08a4.66,4.66,0,1,0,5.05-4.23,2.82,2.82,0,0,0-.41,0,4.46,4.46,0,0,0-4.65,4.24Zm22.06-.09a4.59,4.59,0,1,0,5-4.17h-.41a4.38,4.38,0,0,0-4.56,4.17Zm22.07-.09a4.49,4.49,0,1,0,4.87-4.08h-.39a4.3,4.3,0,0,0-4.48,4.08Zm22.1-.09a4.39,4.39,0,1,0,4.76-4l-.39,0a4.2,4.2,0,0,0-4.37,4Zm22.06-.09a4.3,4.3,0,1,0,4.66-3.9l-.38,0A4.12,4.12,0,0,0,1728.13,529.88Zm22.1-.09a4.2,4.2,0,1,0,4.55-3.81l-.37,0a4,4,0,0,0-4.18,3.83Zm22.06-.09a4.1,4.1,0,1,0,4.45-3.72l-.36,0a3.93,3.93,0,0,0-4.08,3.74Zm22.07-.09a4,4,0,1,0,4.34-3.63l-.35,0a3.83,3.83,0,0,0-4,3.65Zm22.1-.09a3.9,3.9,0,1,0,4.22-3.54l-.34,0a3.74,3.74,0,0,0-3.88,3.56Zm22.06-.09a3.81,3.81,0,1,0,4.13-3.45l-.33,0a3.66,3.66,0,0,0-3.79,3.47Zm-618.19-10.34v.15l.51,2.16a6.52,6.52,0,0,0,6,3.63,6,6,0,1,0-6.49-5.94Zm22.07-.09a6.42,6.42,0,1,0,7-5.82l-.57,0a6.15,6.15,0,0,0-6.39,5.85Zm22.09-.09a6.32,6.32,0,1,0,6.86-5.73,5.25,5.25,0,0,0-.56,0,6.05,6.05,0,0,0-6.29,5.76Zm22.07-.09a6.22,6.22,0,1,0,6.75-5.64,4.93,4.93,0,0,0-.55,0,6,6,0,0,0-6.19,5.67Zm22.1-.08a6.12,6.12,0,1,0,6.64-5.56l-.54,0a5.86,5.86,0,0,0-6.1,5.59Zm22.06-.09a6,6,0,1,0,6.54-5.47l-.54,0a5.77,5.77,0,0,0-6,5.49Zm22.07-.09a5.93,5.93,0,1,0,6.44-5.38,4.7,4.7,0,0,0-.53,0,5.67,5.67,0,0,0-5.9,5.4Zm22.1-.09a5.83,5.83,0,1,0,6.32-5.29l-.51,0a5.59,5.59,0,0,0-5.81,5.32Zm22.07-.09a5.73,5.73,0,1,0,6.21-5.2,4.07,4.07,0,0,0-.5,0,5.49,5.49,0,0,0-5.71,5.23Zm22.09-.09a5.64,5.64,0,1,0,6.11-5.11,4.07,4.07,0,0,0-.5,0,5.4,5.4,0,0,0-5.61,5.14Zm22.07-.09a5.54,5.54,0,1,0,6-5l-.49,0a5.31,5.31,0,0,0-5.51,5.05Zm22.09-.09a5.44,5.44,0,1,0,5.9-4.94l-.48,0a5.22,5.22,0,0,0-5.42,5Zm22.07-.09a5.35,5.35,0,1,0,5.8-4.85l-.48,0a5.12,5.12,0,0,0-5.32,4.87Zm22.09-.08a5.25,5.25,0,1,0,5.69-4.77l-.46,0a5,5,0,0,0-5.22,4.78Zm22.07-.09a5.15,5.15,0,1,0,5.58-4.68l-.45,0a4.94,4.94,0,0,0-5.13,4.69Zm22.09-.09a5.06,5.06,0,1,0,5.49-4.58,3.39,3.39,0,0,0-.45,0,4.84,4.84,0,0,0-5,4.59Zm22.07-.09a5,5,0,1,0,5.38-4.5l-.44,0a4.74,4.74,0,0,0-4.93,4.52Zm22.07-.09a4.86,4.86,0,1,0,5.27-4.41l-.43,0a4.67,4.67,0,0,0-4.84,4.43Zm22.09-.09a4.76,4.76,0,1,0,5.16-4.32l-.42,0a4.56,4.56,0,0,0-4.73,4.34Zm22.07-.09a4.66,4.66,0,1,0,5.06-4.23l-.41,0a4.47,4.47,0,0,0-4.65,4.25Zm22.07-.09a4.59,4.59,0,1,0,5-4.16l-.41,0a4.39,4.39,0,0,0-4.56,4.18Zm22.07-.09a4.49,4.49,0,1,0,4.87-4.07l-.4,0a4.31,4.31,0,0,0-4.47,4.09Zm22.09-.08a4.39,4.39,0,1,0,4.77-4h-.39a4.2,4.2,0,0,0-4.37,4Zm22.07-.09a4.3,4.3,0,1,0,4.66-3.9l-.38,0a4.12,4.12,0,0,0-4.28,3.91Zm22.1-.09a4.2,4.2,0,1,0,4.55-3.81l-.37,0a4,4,0,0,0-4.18,3.82Zm22.07-.09a4.1,4.1,0,1,0,4.44-3.72l-.36,0a3.93,3.93,0,0,0-4.08,3.74Zm22.06-.09a4,4,0,1,0,4.34-3.63l-.35,0a3.83,3.83,0,0,0-4,3.65Zm22.1-.09a3.9,3.9,0,1,0,4.22-3.54l-.33,0a3.74,3.74,0,0,0-3.89,3.56Zm22.07-.09a3.81,3.81,0,1,0,4.13-3.46h-.34A3.65,3.65,0,0,0,1838.53,516.6Zm-618.2-10.32a6.52,6.52,0,1,0,7.07-5.91,5.63,5.63,0,0,0-.58,0A6.24,6.24,0,0,0,1220.33,506.28Zm22.07-.09a6.42,6.42,0,1,0,7-5.82l-.57,0a6.15,6.15,0,0,0-6.39,5.85Zm22.09-.09a6.32,6.32,0,1,0,6.86-5.73,5.25,5.25,0,0,0-.56,0,6.05,6.05,0,0,0-6.29,5.76Zm22.07-.09a6.22,6.22,0,1,0,6.75-5.64,4.93,4.93,0,0,0-.55,0,6,6,0,0,0-6.19,5.67Zm22.1-.09a6.12,6.12,0,1,0,6.64-5.56l-.54,0a5.87,5.87,0,0,0-6.1,5.58Zm22.06-.08a6,6,0,1,0,6.54-5.48l-.54,0a5.77,5.77,0,0,0-6,5.49Zm22.07-.09a5.93,5.93,0,1,0,6.44-5.38,4.7,4.7,0,0,0-.53,0,5.67,5.67,0,0,0-5.9,5.39Zm22.1-.09a5.83,5.83,0,1,0,6.32-5.3l-.51,0a5.59,5.59,0,0,0-5.81,5.32Zm22.07-.09a5.73,5.73,0,1,0,6.21-5.21l-.5,0a5.49,5.49,0,0,0-5.71,5.23Zm22.09-.09a5.64,5.64,0,1,0,6.11-5.12l-.5,0a5.4,5.4,0,0,0-5.61,5.14Zm22.07-.09a5.54,5.54,0,1,0,6-5l-.49,0a5.31,5.31,0,0,0-5.51,5.05Zm22.09-.09a5.44,5.44,0,1,0,5.9-4.94l-.48,0a5.22,5.22,0,0,0-5.42,5Zm22.07-.09a5.35,5.35,0,1,0,5.8-4.85l-.48,0a5.12,5.12,0,0,0-5.32,4.87Zm22.09-.09a5.25,5.25,0,1,0,5.69-4.76l-.46,0a5,5,0,0,0-5.22,4.78Zm22.07-.08a5.15,5.15,0,1,0,5.58-4.68l-.45,0a4.94,4.94,0,0,0-5.13,4.69Zm22.09-.09a5.06,5.06,0,1,0,5.49-4.58,3.39,3.39,0,0,0-.45,0,4.84,4.84,0,0,0-5,4.59Zm22.07-.09a5,5,0,1,0,5.38-4.5l-.44,0a4.74,4.74,0,0,0-4.93,4.52Zm22.07-.09a4.86,4.86,0,1,0,5.27-4.41l-.43,0a4.66,4.66,0,0,0-4.84,4.43Zm22.09-.09a4.76,4.76,0,1,0,5.16-4.32l-.42,0a4.56,4.56,0,0,0-4.73,4.34Zm22.07-.09a4.66,4.66,0,1,0,5.06-4.23l-.41,0a4.47,4.47,0,0,0-4.65,4.25Zm22.07-.09a4.59,4.59,0,1,0,5-4.16l-.41,0a4.39,4.39,0,0,0-4.56,4.18Zm22.07-.09a4.49,4.49,0,1,0,4.87-4.07l-.4,0a4.31,4.31,0,0,0-4.47,4.09Zm22.09-.08a4.39,4.39,0,1,0,4.77-4h-.39a4.2,4.2,0,0,0-4.37,4Zm22.07-.09a4.3,4.3,0,1,0,4.66-3.9l-.38,0a4.12,4.12,0,0,0-4.28,3.91Zm22.1-.09a4.2,4.2,0,1,0,4.55-3.81l-.37,0a4,4,0,0,0-4.18,3.82Zm22.07-.09a4.1,4.1,0,1,0,4.44-3.72l-.36,0a3.92,3.92,0,0,0-4.08,3.73Zm22.06-.09a4,4,0,1,0,4.34-3.63l-.35,0a3.83,3.83,0,0,0-4,3.65Zm22.1-.09a3.9,3.9,0,1,0,4.22-3.54l-.33,0a3.74,3.74,0,0,0-3.89,3.56Zm22.07-.09a3.81,3.81,0,1,0,4.13-3.45l-.34,0a3.65,3.65,0,0,0-3.79,3.47Zm-618.2-10.34a6.52,6.52,0,1,0,7.07-5.92l-.58,0A6.24,6.24,0,0,0,1220.33,493.45Zm22.07-.09a6.42,6.42,0,1,0,7-5.83l-.57,0a6.14,6.14,0,0,0-6.39,5.85Zm22.09-.09a6.32,6.32,0,1,0,6.86-5.74l-.56,0a6,6,0,0,0-6.29,5.76Zm22.07-.09a6.22,6.22,0,1,0,6.75-5.65l-.55,0a6,6,0,0,0-6.19,5.67Zm22.1-.09a6.12,6.12,0,1,0,6.64-5.56l-.54,0a5.87,5.87,0,0,0-6.1,5.58Zm22.06-.09a6,6,0,1,0,6.54-5.47l-.54,0a5.76,5.76,0,0,0-6,5.49Zm22.07-.09a5.93,5.93,0,1,0,6.44-5.37,4.71,4.71,0,0,0-.53,0,5.68,5.68,0,0,0-5.9,5.4Zm22.1-.09a5.83,5.83,0,1,0,6.32-5.29l-.51,0a5.59,5.59,0,0,0-5.81,5.31Zm22.07-.08a5.73,5.73,0,1,0,6.21-5.21l-.5,0a5.49,5.49,0,0,0-5.71,5.22Zm22.09-.09a5.64,5.64,0,1,0,6.11-5.12l-.5,0a5.4,5.4,0,0,0-5.61,5.13Zm22.07-.09a5.54,5.54,0,1,0,6-5l-.49,0a5.3,5.3,0,0,0-5.51,5.05Zm22.09-.09a5.44,5.44,0,1,0,5.9-4.94l-.48,0a5.22,5.22,0,0,0-5.42,5Zm22.07-.09a5.35,5.35,0,1,0,5.8-4.85l-.48,0a5.12,5.12,0,0,0-5.32,4.87Zm22.09-.09a5.25,5.25,0,1,0,5.69-4.76l-.46,0a5,5,0,0,0-5.22,4.78Zm22.07-.09a5.15,5.15,0,1,0,5.58-4.67l-.45,0a4.94,4.94,0,0,0-5.13,4.69Zm22.09-.09a5.06,5.06,0,1,0,5.49-4.58l-.45,0a4.85,4.85,0,0,0-5,4.6Zm22.07-.08a5,5,0,1,0,5.38-4.5l-.44,0a4.73,4.73,0,0,0-4.93,4.51Zm22.07-.09a4.86,4.86,0,1,0,5.27-4.41l-.43,0a4.66,4.66,0,0,0-4.84,4.42Zm22.09-.09a4.76,4.76,0,1,0,5.16-4.32l-.42,0a4.55,4.55,0,0,0-4.73,4.33Zm22.07-.09a4.66,4.66,0,1,0,5.06-4.23l-.41,0a4.46,4.46,0,0,0-4.65,4.25Zm22.07-.09a4.59,4.59,0,1,0,5-4.16,2.82,2.82,0,0,0-.41,0,4.39,4.39,0,0,0-4.56,4.18Zm22.07-.09a4.49,4.49,0,1,0,4.87-4.07,2.61,2.61,0,0,0-.4,0,4.3,4.3,0,0,0-4.47,4.09Zm22.09-.09a4.39,4.39,0,1,0,4.77-4l-.39,0a4.2,4.2,0,0,0-4.37,4Zm22.07-.09a4.3,4.3,0,1,0,4.66-3.9l-.38,0A4.12,4.12,0,0,0,1728.13,491.4Zm22.1-.09a4.2,4.2,0,1,0,4.55-3.81l-.37,0a4,4,0,0,0-4.18,3.83Zm22.06-.09a4.1,4.1,0,1,0,4.45-3.72l-.36,0a3.93,3.93,0,0,0-4.08,3.74Zm22.07-.09a4,4,0,1,0,4.34-3.63l-.35,0a3.83,3.83,0,0,0-4,3.65Zm22.1-.09a3.9,3.9,0,1,0,4.22-3.54l-.34,0a3.74,3.74,0,0,0-3.88,3.56Zm22.06-.09a3.64,3.64,0,0,0,3.8,3.47,3.86,3.86,0,0,0,3.43-2l-.15-.95.5-.79a3.82,3.82,0,0,0-7.57.25Zm-618.19-10.34a6.52,6.52,0,1,0,7.07-5.91,5.63,5.63,0,0,0-.58,0A6.25,6.25,0,0,0,1220.33,480.61Zm22.07-.09a6.42,6.42,0,1,0,7-5.82l-.57,0a6.16,6.16,0,0,0-6.39,5.85Zm22.09-.09a6.32,6.32,0,1,0,6.86-5.73,5.25,5.25,0,0,0-.56,0,6.05,6.05,0,0,0-6.29,5.76Zm22.07-.06a6.22,6.22,0,1,0,6.75-5.65,5,5,0,0,0-.55,0,5.94,5.94,0,0,0-6.19,5.67Zm22.1-.09a6.12,6.12,0,1,0,6.64-5.56,4.87,4.87,0,0,0-.54,0,5.85,5.85,0,0,0-6.1,5.58Zm22.06-.09a6,6,0,1,0,6.54-5.47,3.25,3.25,0,0,0-.54,0,5.76,5.76,0,0,0-6,5.49Zm22.07-.09a5.93,5.93,0,1,0,6.43-5.38,4.43,4.43,0,0,0-.52,0,5.67,5.67,0,0,0-5.9,5.4Zm22.1-.09a5.83,5.83,0,1,0,6.32-5.29,4.35,4.35,0,0,0-.51,0,5.58,5.58,0,0,0-5.81,5.31Zm22.07-.09a5.73,5.73,0,1,0,6.21-5.2,4.1,4.1,0,0,0-.5,0,5.48,5.48,0,0,0-5.71,5.22Zm22.09-.09a5.64,5.64,0,1,0,6.11-5.11,4.1,4.1,0,0,0-.5,0,5.4,5.4,0,0,0-5.61,5.13Zm22.07-.08a5.54,5.54,0,1,0,6-5,3.93,3.93,0,0,0-.49,0,5.29,5.29,0,0,0-5.51,5Zm22.09-.09a5.44,5.44,0,1,0,5.9-4.94,3.85,3.85,0,0,0-.48,0,5.21,5.21,0,0,0-5.42,5Zm22.07-.09a5.35,5.35,0,1,0,5.8-4.85,3.85,3.85,0,0,0-.48,0,5.12,5.12,0,0,0-5.32,4.87Zm22.09-.09a5.25,5.25,0,1,0,5.69-4.76,3.54,3.54,0,0,0-.46,0,5,5,0,0,0-5.22,4.78Zm22.07-.09a5.15,5.15,0,1,0,5.58-4.67,3.39,3.39,0,0,0-.45,0,4.93,4.93,0,0,0-5.13,4.69Zm22.09-.09a5.06,5.06,0,1,0,5.49-4.58l-.45,0a4.84,4.84,0,0,0-5,4.6Zm22.07-.09a5,5,0,1,0,5.38-4.49,3.31,3.31,0,0,0-.44,0,4.73,4.73,0,0,0-4.93,4.51Zm22.07-.09a4.86,4.86,0,1,0,5.27-4.4,3.1,3.1,0,0,0-.43,0,4.65,4.65,0,0,0-4.84,4.42Zm22.09-.09a4.76,4.76,0,1,0,5.16-4.31,3,3,0,0,0-.42,0,4.55,4.55,0,0,0-4.73,4.33Zm22.07-.08a4.66,4.66,0,1,0,5.06-4.23,2.88,2.88,0,0,0-.41,0,4.46,4.46,0,0,0-4.65,4.24Zm22.07-.09a4.59,4.59,0,1,0,5-4.17h-.41a4.39,4.39,0,0,0-4.56,4.18Zm22.07-.09a4.49,4.49,0,1,0,4.87-4.08h-.4a4.3,4.3,0,0,0-4.47,4.09Zm22.09-.09a4.39,4.39,0,1,0,4.77-4l-.39,0a4.2,4.2,0,0,0-4.37,4Zm22.07-.09a4.3,4.3,0,1,0,4.66-3.9l-.38,0A4.12,4.12,0,0,0,1728.13,478.59Zm22.1-.09a4.2,4.2,0,1,0,4.55-3.81l-.37,0a4,4,0,0,0-4.18,3.83Zm22.06-.09a4.1,4.1,0,1,0,4.45-3.72l-.36,0a3.93,3.93,0,0,0-4.08,3.74Zm22.07-.09a4,4,0,1,0,4.34-3.63l-.35,0a3.83,3.83,0,0,0-4,3.65Zm22.1-.09a3.9,3.9,0,1,0,4.22-3.54l-.34,0a3.74,3.74,0,0,0-3.88,3.56Zm22.06-.09a3.81,3.81,0,1,0,4.13-3.45l-.33,0a3.66,3.66,0,0,0-3.79,3.47Zm-630.37.6,3.23,1.37a5.83,5.83,0,0,0-2.08-3.83Zm652.52-1.25.26-.5-.08-.13a3.73,3.73,0,0,0-.18.63Zm-634.49-15.6,1.15,2.46-.63,3-4.34,4.8a6.79,6.79,0,0,0,4.46,1.63,6,6,0,1,0,1.06-11.88,6.25,6.25,0,0,0-1.06,0l-.64,0Zm16.22,5.82a6.41,6.41,0,1,0,7-5.83l-.57,0a6.15,6.15,0,0,0-6.39,5.85Zm22.09-.09a6.32,6.32,0,1,0,6.86-5.74l-.56,0a6,6,0,0,0-6.29,5.76Zm22.07-.09a6.22,6.22,0,1,0,6.75-5.65l-.55,0a6,6,0,0,0-6.19,5.68Zm22.09-.09a6.12,6.12,0,1,0,6.65-5.56l-.55,0a5.86,5.86,0,0,0-6.09,5.58Zm22.07-.09a6,6,0,1,0,6.54-5.47l-.54,0a5.77,5.77,0,0,0-6,5.5Zm22.07-.09a5.93,5.93,0,1,0,6.44-5.37,4.71,4.71,0,0,0-.53,0,5.68,5.68,0,0,0-5.9,5.41Zm22.09-.08a5.83,5.83,0,1,0,6.33-5.3l-.52,0a5.59,5.59,0,0,0-5.8,5.32Zm22.07-.09a5.74,5.74,0,1,0,6.22-5.21l-.51,0a5.49,5.49,0,0,0-5.7,5.23Zm22.1-.09a5.64,5.64,0,1,0,6.11-5.12l-.5,0a5.4,5.4,0,0,0-5.61,5.14Zm22.07-.09a5.54,5.54,0,1,0,6-5l-.49,0a5.3,5.3,0,0,0-5.51,5.05Zm22.09-.09a5.44,5.44,0,1,0,5.9-4.94l-.48,0a5.22,5.22,0,0,0-5.42,5Zm22.07-.09a5.34,5.34,0,1,0,5.79-4.85l-.47,0a5.12,5.12,0,0,0-5.32,4.87Zm22.09-.09a5.25,5.25,0,1,0,5.69-4.76l-.46,0a5,5,0,0,0-5.22,4.78Zm22.07-.09a5.15,5.15,0,1,0,5.58-4.67l-.45,0a4.94,4.94,0,0,0-5.13,4.7Zm22.09-.08a5.05,5.05,0,1,0,5.48-4.58,3.39,3.39,0,0,0-.45,0,4.84,4.84,0,0,0-5,4.6Zm22.07-.09a5,5,0,1,0,5.37-4.5l-.43,0a4.74,4.74,0,0,0-4.93,4.52Zm22.07-.09a4.85,4.85,0,1,0,5.27-4.41l-.43,0a4.66,4.66,0,0,0-4.84,4.43Zm22.09-.09a4.76,4.76,0,1,0,5.16-4.32l-.42,0a4.56,4.56,0,0,0-4.73,4.34Zm22.07-.09a4.66,4.66,0,1,0,5.06-4.23l-.42,0a4.47,4.47,0,0,0-4.64,4.25Zm22.07-.09a4.59,4.59,0,1,0,5-4.16l-.41,0a4.39,4.39,0,0,0-4.56,4.18Zm22.07-.09a4.49,4.49,0,1,0,4.87-4.07l-.4,0a4.3,4.3,0,0,0-4.47,4.09Zm22.09-.09a4.39,4.39,0,1,0,4.77-4l-.39,0a4.21,4.21,0,0,0-4.37,4Zm22.07-.09a4.3,4.3,0,1,0,4.66-3.89,2.42,2.42,0,0,0-.38,0,4.12,4.12,0,0,0-4.28,3.92Zm22.09-.08a4.2,4.2,0,1,0,4.56-3.81,2.3,2.3,0,0,0-.37,0,4,4,0,0,0-4.18,3.83Zm22.07-.09a4.1,4.1,0,1,0,4.45-3.72,2.17,2.17,0,0,0-.36,0,3.92,3.92,0,0,0-4.08,3.74Zm22.07-.09a4,4,0,1,0,4.34-3.64h-.35a3.83,3.83,0,0,0-4,3.65Zm22.09-.09a3.9,3.9,0,1,0,4.23-3.55h-.34a3.74,3.74,0,0,0-3.88,3.56Zm22.07-.09a3.81,3.81,0,1,0,4.13-3.45l-.33,0a3.65,3.65,0,0,0-3.79,3.47Zm-617.11-13.63,4.27,9.13a6.2,6.2,0,0,0,1.14.1,6,6,0,1,0,1.06-11.88,6.25,6.25,0,0,0-1.06,0,6.65,6.65,0,0,0-5.4,2.65Zm21,3.2a6.41,6.41,0,1,0,7-5.83l-.57,0a6.15,6.15,0,0,0-6.39,5.85Zm22.09-.09a6.32,6.32,0,1,0,6.86-5.74l-.56,0a6,6,0,0,0-6.29,5.76Zm22.07-.09a6.22,6.22,0,1,0,6.75-5.65l-.55,0a6,6,0,0,0-6.19,5.67Zm22.09-.09a6.12,6.12,0,1,0,6.64-5.56l-.54,0a5.86,5.86,0,0,0-6.09,5.58Zm22.07-.09a6,6,0,1,0,6.54-5.47l-.54,0a5.77,5.77,0,0,0-6,5.49Zm22.07-.09a5.93,5.93,0,1,0,6.44-5.37l-.53,0a5.68,5.68,0,0,0-5.9,5.4Zm22.09-.08a5.83,5.83,0,1,0,6.33-5.3l-.52,0a5.59,5.59,0,0,0-5.8,5.31Zm22.07-.09a5.74,5.74,0,1,0,6.22-5.21l-.51,0a5.49,5.49,0,0,0-5.7,5.23Zm22.1-.07a5.64,5.64,0,1,0,6.11-5.12l-.5,0a5.4,5.4,0,0,0-5.61,5.14Zm22.06-.09a5.54,5.54,0,1,0,6-5l-.49,0a5.31,5.31,0,0,0-5.51,5.05Zm22.1-.09a5.44,5.44,0,1,0,5.9-4.94l-.48,0a5.22,5.22,0,0,0-5.42,5Zm22.07-.09a5.34,5.34,0,1,0,5.79-4.85l-.47,0a5.12,5.12,0,0,0-5.32,4.87Zm22.09-.09a5.25,5.25,0,1,0,5.69-4.76l-.47,0a5,5,0,0,0-5.21,4.78Zm22.07-.08a5.15,5.15,0,1,0,5.58-4.68l-.45,0a4.94,4.94,0,0,0-5.13,4.69Zm22.09-.09a5.05,5.05,0,1,0,5.48-4.58,3.39,3.39,0,0,0-.45,0,4.84,4.84,0,0,0-5,4.6Zm22.07-.09a5,5,0,1,0,5.37-4.5l-.44,0a4.74,4.74,0,0,0-4.92,4.52Zm22.07-.09a4.85,4.85,0,1,0,5.27-4.41l-.43,0a4.67,4.67,0,0,0-4.84,4.43Zm22.09-.09a4.76,4.76,0,1,0,5.16-4.32l-.42,0a4.56,4.56,0,0,0-4.73,4.34Zm22.07-.09a4.66,4.66,0,1,0,5.06-4.23l-.42,0a4.47,4.47,0,0,0-4.64,4.25Zm22.07-.09a4.59,4.59,0,1,0,5-4.16l-.4,0a4.39,4.39,0,0,0-4.56,4.18Zm22.07-.09a4.49,4.49,0,1,0,4.87-4.07l-.4,0a4.31,4.31,0,0,0-4.47,4.09Zm22.09-.09a4.39,4.39,0,1,0,4.77-4l-.39,0a4.21,4.21,0,0,0-4.37,4Zm22.07-.08a4.3,4.3,0,1,0,4.66-3.9l-.38,0a4.12,4.12,0,0,0-4.28,3.91Zm22.09-.09a4.2,4.2,0,1,0,4.56-3.81l-.38,0a4,4,0,0,0-4.17,3.82Zm22.07-.09a4.1,4.1,0,1,0,4.45-3.72l-.36,0a3.93,3.93,0,0,0-4.08,3.74Zm22.07-.09a4,4,0,1,0,4.34-3.63l-.35,0a3.83,3.83,0,0,0-4,3.65Zm22.09-.09a3.9,3.9,0,1,0,4.23-3.54l-.34,0a3.74,3.74,0,0,0-3.88,3.56Zm22.07-.09a3.81,3.81,0,1,0,4.13-3.45l-.34,0a3.65,3.65,0,0,0-3.78,3.47Zm22.1-.09a3.7,3.7,0,1,0,4-3.36l-.33,0a3.56,3.56,0,0,0-3.69,3.38Zm-640.29-10.25a6.52,6.52,0,1,0,7.07-5.92l-.58,0A6.24,6.24,0,0,0,1220.33,442.16Zm22.07-.09a6.42,6.42,0,1,0,7-5.83l-.57,0a6.14,6.14,0,0,0-6.39,5.85Zm22.09-.09a6.32,6.32,0,1,0,6.86-5.74l-.56,0a6,6,0,0,0-6.29,5.76Zm22.07-.09a6.22,6.22,0,1,0,6.75-5.65l-.55,0a6,6,0,0,0-6.19,5.67Zm22.1-.09a6.12,6.12,0,1,0,6.64-5.56l-.54,0a5.87,5.87,0,0,0-6.1,5.58Zm22.06-.09a6,6,0,1,0,6.54-5.47l-.54,0a5.76,5.76,0,0,0-6,5.49Zm22.07-.09a5.93,5.93,0,1,0,6.43-5.38l-.52,0a5.67,5.67,0,0,0-5.9,5.4Zm22.1-.08a5.83,5.83,0,1,0,6.32-5.3l-.51,0a5.58,5.58,0,0,0-5.81,5.31Zm22.07-.09a5.73,5.73,0,1,0,6.21-5.21l-.5,0a5.49,5.49,0,0,0-5.71,5.22Zm22.09-.09a5.64,5.64,0,1,0,6.11-5.12l-.5,0a5.4,5.4,0,0,0-5.61,5.14Zm22.07-.09a5.54,5.54,0,1,0,6-5l-.49,0a5.3,5.3,0,0,0-5.51,5Zm22.09-.09a5.44,5.44,0,1,0,5.9-4.94l-.48,0a5.22,5.22,0,0,0-5.42,5Zm22.07-.09a5.35,5.35,0,1,0,5.8-4.85l-.48,0a5.12,5.12,0,0,0-5.32,4.87Zm22.09-.09a5.25,5.25,0,1,0,5.69-4.76l-.46,0a5,5,0,0,0-5.22,4.78Zm22.07-.09a5.15,5.15,0,1,0,5.58-4.67l-.45,0a4.94,4.94,0,0,0-5.13,4.69Zm22.09-.09a5.06,5.06,0,1,0,5.49-4.58l-.45,0a4.85,4.85,0,0,0-5,4.6Zm22.07-.08a5,5,0,1,0,5.38-4.5l-.44,0a4.73,4.73,0,0,0-4.93,4.51Zm22.07-.09a4.86,4.86,0,1,0,5.27-4.41l-.43,0a4.66,4.66,0,0,0-4.84,4.42Zm22.09-.09a4.76,4.76,0,1,0,5.16-4.32l-.42,0a4.55,4.55,0,0,0-4.73,4.33Zm22.07-.09a4.66,4.66,0,1,0,5.06-4.23l-.41,0a4.47,4.47,0,0,0-4.65,4.25Zm22.07-.09a4.59,4.59,0,1,0,5-4.16l-.41,0a4.39,4.39,0,0,0-4.56,4.18Zm22.07-.09a4.49,4.49,0,1,0,4.87-4.07l-.4,0a4.3,4.3,0,0,0-4.47,4.09Zm22.09-.09a4.39,4.39,0,1,0,4.77-4l-.39,0a4.2,4.2,0,0,0-4.37,4Zm22.07-.09a4.3,4.3,0,1,0,4.66-3.89,2.36,2.36,0,0,0-.38,0,4.11,4.11,0,0,0-4.28,3.91Zm44.17-.17a4.1,4.1,0,0,0,8.16,0,3.41,3.41,0,0,0-.33-1.48l-7-.82a3.5,3.5,0,0,0-.86,2.29Zm22.42,1.41a4,4,0,0,0,3.63,2.14,3.83,3.83,0,0,0,4-3.64,3.66,3.66,0,0,0,0-.57Zm21.8-2.24a3.49,3.49,0,0,0-.06.65,3.9,3.9,0,0,0,7.77,0,3.42,3.42,0,0,0-1.25-2.62Zm22,.56a3.81,3.81,0,1,0,4.13-3.46h-.34a3.65,3.65,0,0,0-3.78,3.47Zm22.09-.09a3.71,3.71,0,1,0,4-3.37h-.33a3.55,3.55,0,0,0-3.69,3.38Zm-640.28-10.26a6.52,6.52,0,1,0,7.07-5.91,5.62,5.62,0,0,0-.58,0A6.24,6.24,0,0,0,1220.33,429.32Zm22.07-.09a6.42,6.42,0,1,0,7-5.82,5.44,5.44,0,0,0-.57,0,6.16,6.16,0,0,0-6.39,5.85Zm22.09-.08a6.32,6.32,0,1,0,6.86-5.74,5.24,5.24,0,0,0-.56,0,6,6,0,0,0-6.29,5.76Zm22.07-.09a6.22,6.22,0,1,0,6.75-5.65,5,5,0,0,0-.55,0,5.94,5.94,0,0,0-6.19,5.67Zm22.1-.09a6.12,6.12,0,1,0,6.64-5.56,4.87,4.87,0,0,0-.54,0,5.85,5.85,0,0,0-6.1,5.58Zm22.06-.09a6,6,0,1,0,6.54-5.47,3.25,3.25,0,0,0-.54,0,5.76,5.76,0,0,0-6,5.49Zm22.07-.09a5.93,5.93,0,1,0,6.44-5.38l-.53,0a5.67,5.67,0,0,0-5.9,5.4Zm22.1-.09a5.83,5.83,0,1,0,6.32-5.29,4.35,4.35,0,0,0-.51,0,5.58,5.58,0,0,0-5.81,5.31Zm22.07-.09a5.73,5.73,0,1,0,6.21-5.2,4.1,4.1,0,0,0-.5,0,5.48,5.48,0,0,0-5.71,5.22Zm22.09-.09a5.64,5.64,0,1,0,6.11-5.11,4.1,4.1,0,0,0-.5,0,5.4,5.4,0,0,0-5.61,5.13Zm22.07-.08a5.54,5.54,0,1,0,6-5,3.93,3.93,0,0,0-.49,0,5.29,5.29,0,0,0-5.51,5Zm22.09-.09a5.44,5.44,0,1,0,5.9-4.94,3.85,3.85,0,0,0-.48,0,5.21,5.21,0,0,0-5.42,4.95Zm22.07-.09a5.35,5.35,0,1,0,5.8-4.85,3.85,3.85,0,0,0-.48,0,5.12,5.12,0,0,0-5.32,4.87Zm22.09-.09a5.25,5.25,0,1,0,5.69-4.76,3.54,3.54,0,0,0-.46,0,5,5,0,0,0-5.22,4.78Zm22.07-.09a5.15,5.15,0,1,0,5.58-4.67,3.39,3.39,0,0,0-.45,0,4.93,4.93,0,0,0-5.13,4.69Zm22.09-.07a5.06,5.06,0,1,0,5.49-4.58l-.45,0a4.85,4.85,0,0,0-5,4.6Zm22.07-.09a5,5,0,1,0,5.38-4.49l-.44,0a4.73,4.73,0,0,0-4.93,4.51Zm22.07-.08a4.86,4.86,0,1,0,5.27-4.41l-.43,0a4.66,4.66,0,0,0-4.84,4.42Zm22.09-.09a4.76,4.76,0,1,0,5.16-4.32l-.42,0a4.55,4.55,0,0,0-4.73,4.33Zm22.07-.09a4.66,4.66,0,1,0,5.06-4.23l-.41,0a4.46,4.46,0,0,0-4.65,4.24Zm22.07-.09a4.59,4.59,0,1,0,5-4.16,2.82,2.82,0,0,0-.41,0,4.39,4.39,0,0,0-4.56,4.18Zm22.07-.09a4.49,4.49,0,1,0,4.87-4.08h-.4a4.3,4.3,0,0,0-4.47,4.09Zm22.09-.09a4.39,4.39,0,1,0,4.77-4l-.39,0a4.2,4.2,0,0,0-4.37,4Zm25.35,3.72-3.28-3.73a4,4,0,0,0,3.28,3.72Zm-508.63-19.24a5.91,5.91,0,0,0-2.27,3.25l.28.46-.24,2.48a6.43,6.43,0,0,0,6.27,4.39,6,6,0,1,0,1.06-11.87,4.7,4.7,0,0,0-1.06,0,6.73,6.73,0,0,0-4,1.29Zm19.62,4.56a6.41,6.41,0,1,0,7-5.83,5.43,5.43,0,0,0-.57,0,6.14,6.14,0,0,0-6.39,5.84Zm22.09-.09a6.32,6.32,0,1,0,6.86-5.74,5.24,5.24,0,0,0-.56,0,6,6,0,0,0-6.29,5.75Zm22.07-.09a6.22,6.22,0,1,0,6.75-5.65,5,5,0,0,0-.55,0,5.94,5.94,0,0,0-6.19,5.66Zm22.1-.09a6.12,6.12,0,1,0,6.64-5.56,4.87,4.87,0,0,0-.54,0,5.87,5.87,0,0,0-6.1,5.58Zm22.06-.09a6,6,0,1,0,6.54-5.47,4.87,4.87,0,0,0-.54,0,5.76,5.76,0,0,0-6,5.49Zm22.07-.09a5.93,5.93,0,1,0,6.43-5.38,4.52,4.52,0,0,0-.52,0,5.67,5.67,0,0,0-5.9,5.4Zm22.1-.09a5.83,5.83,0,1,0,6.32-5.29,4.43,4.43,0,0,0-.52,0,5.58,5.58,0,0,0-5.8,5.31Zm22.06-.09a5.74,5.74,0,1,0,6.22-5.2,4.26,4.26,0,0,0-.5,0,5.48,5.48,0,0,0-5.71,5.22Zm22.1-.08a5.64,5.64,0,1,0,6.11-5.12,4.18,4.18,0,0,0-.5,0,5.4,5.4,0,0,0-5.61,5.13Zm22.07-.09a5.54,5.54,0,1,0,6-5,3.93,3.93,0,0,0-.49,0,5.3,5.3,0,0,0-5.51,5Zm22.09-.09a5.44,5.44,0,1,0,5.9-4.94,3.85,3.85,0,0,0-.48,0,5.21,5.21,0,0,0-5.42,4.95Zm22.07-.09a5.34,5.34,0,1,0,5.79-4.85,3.62,3.62,0,0,0-.47,0,5.12,5.12,0,0,0-5.32,4.86Zm22.09-.09a5.25,5.25,0,1,0,5.69-4.76,3.54,3.54,0,0,0-.46,0,5,5,0,0,0-5.22,4.78Zm22.07-.09a5.15,5.15,0,1,0,5.58-4.67,3.39,3.39,0,0,0-.45,0,4.93,4.93,0,0,0-5.13,4.69Zm22.09-.09a5.05,5.05,0,1,0,5.49-4.58l-.46,0a4.84,4.84,0,0,0-5,4.6Zm22.07-.09a5,5,0,1,0,5.37-4.49,3.1,3.1,0,0,0-.43,0,4.73,4.73,0,0,0-4.93,4.51Zm22.07-.09a4.85,4.85,0,1,0,5.27-4.4,3.17,3.17,0,0,0-.43,0,4.66,4.66,0,0,0-4.84,4.42Zm22.09-.08a4.76,4.76,0,1,0,5.16-4.32,3,3,0,0,0-.42,0,4.55,4.55,0,0,0-4.73,4.33Zm22.07-.09a4.66,4.66,0,1,0,5.06-4.23,3,3,0,0,0-.42,0,4.46,4.46,0,0,0-4.64,4.24Zm22.07-.09a4.59,4.59,0,1,0,5-4.16,2.82,2.82,0,0,0-.41,0,4.38,4.38,0,0,0-4.56,4.17Zm22.07-.09a4.49,4.49,0,1,0,4.87-4.08h-.4a4.3,4.3,0,0,0-4.47,4.08Zm22.09-.09a4.39,4.39,0,1,0,4.77-4l-.39,0a4.2,4.2,0,0,0-4.37,4Zm-485.73-10.88a6.52,6.52,0,1,0,7.07-5.91,5.63,5.63,0,0,0-.58,0A6.24,6.24,0,0,0,1220.33,403.68Zm22.07-.09a6.42,6.42,0,1,0,7-5.82l-.57,0a6.15,6.15,0,0,0-6.39,5.85Zm22.09-.09a6.32,6.32,0,1,0,6.86-5.73,5.25,5.25,0,0,0-.56,0,6.05,6.05,0,0,0-6.29,5.76Zm22.07-.09a6.22,6.22,0,1,0,6.75-5.64,4.93,4.93,0,0,0-.55,0,6,6,0,0,0-6.19,5.67Zm22.1-.09a6.12,6.12,0,1,0,6.64-5.56l-.54,0a5.87,5.87,0,0,0-6.1,5.58Zm22.06-.08a6,6,0,1,0,6.54-5.48l-.54,0a5.77,5.77,0,0,0-6,5.49Zm22.07-.09a5.93,5.93,0,1,0,6.44-5.38,4.7,4.7,0,0,0-.53,0,5.67,5.67,0,0,0-5.9,5.39Zm22.1-.09a5.83,5.83,0,1,0,6.32-5.3l-.51,0a5.59,5.59,0,0,0-5.81,5.32ZM1397,403a5.73,5.73,0,1,0,6.21-5.21l-.5,0A5.49,5.49,0,0,0,1397,403Zm22.09-.09a5.64,5.64,0,1,0,6.11-5.12l-.5,0a5.4,5.4,0,0,0-5.61,5.14Zm22.07-.09a5.54,5.54,0,1,0,6-5l-.49,0a5.31,5.31,0,0,0-5.51,5.05Zm22.09-.09a5.44,5.44,0,1,0,5.9-4.94l-.48,0a5.22,5.22,0,0,0-5.42,5Zm22.07-.09a5.35,5.35,0,1,0,5.8-4.85l-.48,0a5.12,5.12,0,0,0-5.32,4.87Zm22.09-.09a5.25,5.25,0,1,0,5.69-4.76l-.46,0a5,5,0,0,0-5.22,4.78Zm22.07-.08a5.15,5.15,0,1,0,5.58-4.68l-.45,0a4.94,4.94,0,0,0-5.13,4.69Zm22.09-.09a5.06,5.06,0,1,0,5.49-4.58,3.39,3.39,0,0,0-.45,0,4.84,4.84,0,0,0-5,4.59Zm22.07-.09a5,5,0,1,0,5.38-4.5l-.44,0a4.74,4.74,0,0,0-4.93,4.52Zm22.07-.09a4.86,4.86,0,1,0,5.27-4.41l-.43,0a4.66,4.66,0,0,0-4.84,4.43Zm22.09-.09a4.76,4.76,0,1,0,5.16-4.32l-.42,0a4.56,4.56,0,0,0-4.73,4.34Zm22.07-.09a4.66,4.66,0,1,0,5.06-4.23l-.41,0a4.47,4.47,0,0,0-4.65,4.25Zm22.07-.09a4.59,4.59,0,1,0,5-4.16l-.41,0a4.39,4.39,0,0,0-4.56,4.18Zm22.07-.06a4.49,4.49,0,1,0,4.87-4.08l-.4,0a4.31,4.31,0,0,0-4.47,4.09Zm-482.46-3.28,9.57,7.11a5.59,5.59,0,0,0,.33-1.9,6.33,6.33,0,0,0-6.58-6,7.09,7.09,0,0,0-3.32.82Zm504.59,3.7a4.1,4.1,0,0,0,2.85,3.26ZM1199.1,388l1.13,2.91-.57,3.82a6.84,6.84,0,0,0,5.17,2.28,6.05,6.05,0,0,0,1.06-12.06,6.25,6.25,0,0,0-1.06,0,6.75,6.75,0,0,0-5.73,3Zm21.23,2.89a6.52,6.52,0,1,0,7.07-5.91,5.63,5.63,0,0,0-.58,0,6.25,6.25,0,0,0-6.49,5.94Zm22.07-.09a6.42,6.42,0,1,0,7-5.82l-.57,0a6.16,6.16,0,0,0-6.39,5.85Zm22.09-.09a6.32,6.32,0,1,0,6.86-5.73,5.25,5.25,0,0,0-.56,0,6.06,6.06,0,0,0-6.29,5.76Zm22.07-.08a6.22,6.22,0,1,0,6.75-5.65,4.93,4.93,0,0,0-.55,0,6,6,0,0,0-6.19,5.67Zm22.1-.09a6.12,6.12,0,1,0,6.64-5.56l-.54,0a5.87,5.87,0,0,0-6.1,5.58Zm22.06-.09a6,6,0,1,0,6.54-5.47l-.54,0a5.78,5.78,0,0,0-6,5.49Zm22.07-.09a5.93,5.93,0,1,0,6.44-5.38l-.53,0a5.67,5.67,0,0,0-5.9,5.39Zm22.1-.09a5.83,5.83,0,1,0,6.32-5.29,4.35,4.35,0,0,0-.51,0,5.58,5.58,0,0,0-5.81,5.3Zm22.07-.09a5.73,5.73,0,1,0,6.21-5.2,4.1,4.1,0,0,0-.5,0,5.47,5.47,0,0,0-5.71,5.22Zm22.09-.09a5.64,5.64,0,1,0,6.11-5.11,4.1,4.1,0,0,0-.5,0,5.4,5.4,0,0,0-5.61,5.13Zm22.07-.09a5.54,5.54,0,1,0,6-5,4.18,4.18,0,0,0-.5,0,5.29,5.29,0,0,0-5.51,5Zm22.09-.08a5.44,5.44,0,1,0,5.9-4.94,3.85,3.85,0,0,0-.48,0,5.21,5.21,0,0,0-5.42,4.95Zm22.07-.09a5.35,5.35,0,1,0,5.8-4.85,3.85,3.85,0,0,0-.48,0,5.11,5.11,0,0,0-5.32,4.86Zm22.09-.09a5.25,5.25,0,1,0,5.69-4.76,3.54,3.54,0,0,0-.46,0,5,5,0,0,0-5.22,4.77Zm22.07-.09A5.15,5.15,0,1,0,1535,385a3.39,3.39,0,0,0-.45,0,4.93,4.93,0,0,0-5.13,4.68Zm22.09-.09A5.06,5.06,0,1,0,1557,385l-.45,0a4.84,4.84,0,0,0-5,4.59Zm22.07-.09a4.76,4.76,0,0,0,4.94,4.52,4.85,4.85,0,0,0,4.83-3.63l0,0h-2.89l-3.3-1.38-3.45-.32a4.11,4.11,0,0,0-.07.78Zm23.47-3.2a4.25,4.25,0,0,0-1.4,3.12,4.86,4.86,0,0,0,9.68,0,4.14,4.14,0,0,0-.42-1.8l-6.37-1.48Zm20.7,3a4.54,4.54,0,0,0,4.74,4.33,4.88,4.88,0,0,0,3.91-1.89l-.2,0-8.42-3a4.58,4.58,0,0,0,0,.53Zm26.42-2.65-4.34,2.17c0,.13,0,.26,0,.39a4.66,4.66,0,0,0,9.29,0,4.33,4.33,0,0,0-3.55-4.13Zm20.3-1.3a4.45,4.45,0,0,0-1.87,1.51,3.89,3.89,0,0,0-.72,2.26,4.59,4.59,0,0,0,9.14,0,3.88,3.88,0,0,0-.46-1.83l-3-1.26Zm21.7,7.21a4.75,4.75,0,0,0,2.25.56,4.59,4.59,0,0,0,3.89-2.07h-2.84Zm-487.95-14.41a6.61,6.61,0,1,0,7.17-6,5.83,5.83,0,0,0-.59,0,6.34,6.34,0,0,0-6.58,6Zm22.09-.09a6.52,6.52,0,1,0,7.06-5.91l-.57,0a6.24,6.24,0,0,0-6.49,5.94Zm22.07-.09a6.42,6.42,0,1,0,7-5.82l-.57,0a6.16,6.16,0,0,0-6.39,5.85Zm22.09-.08a6.32,6.32,0,1,0,6.86-5.74l-.56,0a6.06,6.06,0,0,0-6.29,5.76Zm22.07-.09a6.22,6.22,0,1,0,6.75-5.65,5.07,5.07,0,0,0-.55,0,6,6,0,0,0-6.19,5.67Zm22.09-.09a6.12,6.12,0,1,0,6.64-5.56l-.54,0a5.88,5.88,0,0,0-6.09,5.58Zm22.07-.09a6,6,0,1,0,6.54-5.47l-.54,0a5.78,5.78,0,0,0-6,5.49Zm22.07-.09a5.93,5.93,0,1,0,6.43-5.38,4.52,4.52,0,0,0-.52,0,5.67,5.67,0,0,0-5.9,5.39Zm22.09-.09a5.83,5.83,0,1,0,6.33-5.29,4.52,4.52,0,0,0-.52,0,5.58,5.58,0,0,0-5.8,5.3Zm22.07-.09a5.74,5.74,0,1,0,6.22-5.2,4.35,4.35,0,0,0-.51,0,5.48,5.48,0,0,0-5.7,5.21Zm22.1-.09a5.63,5.63,0,1,0,6.11-5.11,4.18,4.18,0,0,0-.5,0,5.4,5.4,0,0,0-5.61,5.12Zm22.06-.09a5.54,5.54,0,1,0,6-5,4,4,0,0,0-.49,0,5.3,5.3,0,0,0-5.51,5Zm22.1-.08a5.44,5.44,0,1,0,5.9-4.94,3.85,3.85,0,0,0-.48,0,5.21,5.21,0,0,0-5.42,4.95Zm22.07-.09a5.34,5.34,0,1,0,5.79-4.85,3.7,3.7,0,0,0-.47,0,5.11,5.11,0,0,0-5.32,4.86Zm22.09-.09a5.25,5.25,0,1,0,5.69-4.76,3.7,3.7,0,0,0-.47,0,5,5,0,0,0-5.21,4.77Zm22.07-.09a5.15,5.15,0,1,0,5.58-4.67,3.39,3.39,0,0,0-.45,0,4.93,4.93,0,0,0-5.13,4.68Zm22.09-.09a5.05,5.05,0,1,0,5.48-4.58l-.45,0a4.84,4.84,0,0,0-5,4.59Zm-366.88-1,4.77,3.62a5.35,5.35,0,0,0,.11-1.13,5.75,5.75,0,0,0-1-3.3,6.6,6.6,0,0,0-2.75-2.21Zm13.59-10.41a6.61,6.61,0,1,0,7.17-6l-.59,0a6.33,6.33,0,0,0-6.58,6Zm22.09-.09a6.52,6.52,0,1,0,7.06-5.91l-.57,0a6.24,6.24,0,0,0-6.49,5.92Zm22.07-.08a6.41,6.41,0,1,0,7-5.83,5.43,5.43,0,0,0-.57,0,6.15,6.15,0,0,0-6.39,5.83Zm22.09-.09a6.32,6.32,0,1,0,6.86-5.74,5.33,5.33,0,0,0-.56,0,6,6,0,0,0-6.29,5.74Zm22.07-.09a6.22,6.22,0,1,0,6.75-5.65,5.15,5.15,0,0,0-.55,0,6,6,0,0,0-6.19,5.66Zm-100,5.56a6,6,0,0,0,3-5.12,5.63,5.63,0,0,0-.42-2.14Zm122.14-5.65a6.12,6.12,0,1,0,6.64-5.56,4.87,4.87,0,0,0-.54,0,5.86,5.86,0,0,0-6.09,5.57Zm22.07-.09a6,6,0,1,0,6.54-5.47,4.87,4.87,0,0,0-.54,0,5.76,5.76,0,0,0-6,5.48Zm22.07-.09a5.93,5.93,0,1,0,6.44-5.37l-.53,0a5.68,5.68,0,0,0-5.9,5.39Zm22.09-.09a5.83,5.83,0,1,0,6.33-5.29l-.52,0a5.58,5.58,0,0,0-5.8,5.3Zm22.07-.09a5.74,5.74,0,1,0,6.22-5.2l-.51,0a5.48,5.48,0,0,0-5.7,5.21Zm22.1-.09a5.63,5.63,0,1,0,6.11-5.11,4.18,4.18,0,0,0-.5,0,5.4,5.4,0,0,0-5.61,5.12Zm22.06-.08a5.54,5.54,0,1,0,6-5,4,4,0,0,0-.49,0,5.3,5.3,0,0,0-5.51,5Zm22.1-.09a5.44,5.44,0,1,0,5.9-4.94,3.85,3.85,0,0,0-.48,0,5.21,5.21,0,0,0-5.42,4.94Zm22.07-.09a5.34,5.34,0,1,0,5.79-4.85,3.7,3.7,0,0,0-.47,0,5.12,5.12,0,0,0-5.32,4.86Zm22.09-.09a5.25,5.25,0,1,0,5.69-4.76,3.7,3.7,0,0,0-.47,0,5,5,0,0,0-5.21,4.77Zm22.07-.09a5.15,5.15,0,1,0,5.58-4.67,3.39,3.39,0,0,0-.45,0,4.93,4.93,0,0,0-5.13,4.68Zm27.12,4.52a5.47,5.47,0,0,0,2.08-.41l-3.61-2-3.07-.37a5.07,5.07,0,0,0,4.61,2.74Zm-358.32-16a6.33,6.33,0,0,0,6.58,6,6.52,6.52,0,0,0,6.39-4.54l-5.93,3.83-1.5-.8-4.11-8.27a5.61,5.61,0,0,0-1.43,3.74Zm22.09-.09a6.52,6.52,0,1,0,7.06-5.91l-.57,0a6.25,6.25,0,0,0-6.49,5.93Zm22.07-.09a6.42,6.42,0,1,0,7-5.82l-.57,0a6.16,6.16,0,0,0-6.39,5.84Zm22.09-.09a6.32,6.32,0,1,0,6.86-5.73l-.56,0a6.06,6.06,0,0,0-6.29,5.75Zm22.07-.08a6.22,6.22,0,1,0,6.75-5.65,5.07,5.07,0,0,0-.55,0,6,6,0,0,0-6.19,5.66Zm22.09-.09a6.12,6.12,0,1,0,6.64-5.56l-.54,0a5.88,5.88,0,0,0-6.09,5.58Zm22.07-.09a6,6,0,1,0,6.54-5.47l-.54,0a5.77,5.77,0,0,0-6,5.49Zm22.07-.09a5.93,5.93,0,1,0,6.44-5.38l-.53,0a5.67,5.67,0,0,0-5.9,5.39Zm22.09-.09a5.83,5.83,0,1,0,6.33-5.29,4.52,4.52,0,0,0-.52,0,5.58,5.58,0,0,0-5.8,5.3Zm22.07-.09a5.73,5.73,0,1,0,6.22-5.2,4.35,4.35,0,0,0-.51,0,5.48,5.48,0,0,0-5.7,5.21Zm22.09-.09a5.64,5.64,0,1,0,6.12-5.11,4.18,4.18,0,0,0-.5,0,5.39,5.39,0,0,0-5.61,5.12Zm22.07-.09a5.54,5.54,0,1,0,6-5,4,4,0,0,0-.49,0,5.29,5.29,0,0,0-5.51,5Zm22.1-.08a5.44,5.44,0,1,0,5.9-4.94,3.85,3.85,0,0,0-.48,0,5.21,5.21,0,0,0-5.42,4.94Zm22.07-.09a5.34,5.34,0,1,0,5.79-4.85,3.7,3.7,0,0,0-.47,0,5.11,5.11,0,0,0-5.32,4.85Zm22.09-.09a5.25,5.25,0,1,0,5.69-4.76,3.7,3.7,0,0,0-.47,0,5,5,0,0,0-5.21,4.76Zm22.07-.09a5.15,5.15,0,1,0,5.58-4.67,3.39,3.39,0,0,0-.45,0,4.93,4.93,0,0,0-5.13,4.67Zm-302-17.48-3.68,1.38-3.4,5.32a6.35,6.35,0,0,0,6.44,5.15,6.25,6.25,0,0,0,6.49-5.94,5.66,5.66,0,0,0-1.7-4,6.69,6.69,0,0,0-4.14-1.92Zm14.94,5.82a6.41,6.41,0,0,0,12.78,0,5.74,5.74,0,0,0-2.66-4.75l-1-.07-2.15-1a5.06,5.06,0,0,0-.55,0,6.14,6.14,0,0,0-6.39,5.83Zm22.09-.08a6.32,6.32,0,1,0,6.85-5.74,5.12,5.12,0,0,0-.56,0,6,6,0,0,0-6.28,5.75Zm22.07-.09a6.22,6.22,0,1,0,6.75-5.65l-.55,0a6,6,0,0,0-6.19,5.66Zm22.09-.09a6.12,6.12,0,1,0,6.64-5.56l-.54,0a5.87,5.87,0,0,0-6.09,5.57Zm22.07-.09a6,6,0,1,0,6.54-5.47l-.54,0a5.77,5.77,0,0,0-6,5.48Zm22.07-.09a5.93,5.93,0,1,0,6.43-5.38l-.53,0a5.66,5.66,0,0,0-5.89,5.38Zm22.09-.09a5.83,5.83,0,1,0,6.33-5.29,4.52,4.52,0,0,0-.52,0,5.58,5.58,0,0,0-5.8,5.3Zm22.07-.09a5.73,5.73,0,1,0,6.22-5.2,4.35,4.35,0,0,0-.51,0,5.48,5.48,0,0,0-5.7,5.21Zm22.09-.09a5.64,5.64,0,1,0,6.12-5.11,4.26,4.26,0,0,0-.5,0,5.39,5.39,0,0,0-5.61,5.12Zm22.07-.09a5.54,5.54,0,1,0,6-5,4,4,0,0,0-.49,0,5.29,5.29,0,0,0-5.51,5Zm22.09-.08a5.44,5.44,0,1,0,5.91-4.94,3.85,3.85,0,0,0-.48,0,5.21,5.21,0,0,0-5.42,4.94Zm22.07-.09a5.35,5.35,0,1,0,5.8-4.85,3.77,3.77,0,0,0-.47,0,5.11,5.11,0,0,0-5.32,4.85Zm22.1-.09a5.25,5.25,0,1,0,5.69-4.76,3.7,3.7,0,0,0-.47,0,5,5,0,0,0-5.21,4.76Zm22.07-.09a5.15,5.15,0,1,0,5.58-4.67,3.46,3.46,0,0,0-.46,0,4.92,4.92,0,0,0-5.12,4.67ZM1244.19,322.6a5.49,5.49,0,0,0-.35,7.76l.21.22a6.62,6.62,0,0,0,4.06,1.9l.42-5.2,1.58-.91,3.69,1.22-.09-4.67a6.44,6.44,0,0,0-1.81-1.38l-1.48.31-1.87-1A6.69,6.69,0,0,0,1244.19,322.6Zm20.3,4a6.32,6.32,0,1,0,6.86-5.74l-.56,0a6.05,6.05,0,0,0-6.29,5.76ZM1229,324l1.12,5.36-.87,2.91a5.93,5.93,0,0,0,4-5.5,6.19,6.19,0,0,0-6.08-5.92Zm57.53,2.51a6.22,6.22,0,1,0,6.75-5.64,4.93,4.93,0,0,0-.55,0,6,6,0,0,0-6.19,5.67Zm22.1-.09a6.12,6.12,0,1,0,6.64-5.55l-.54,0a5.87,5.87,0,0,0-6.1,5.58Zm22.06-.08a6,6,0,1,0,6.54-5.47l-.54,0a5.76,5.76,0,0,0-6,5.49Zm22.07-.09a5.93,5.93,0,1,0,6.44-5.38,4.7,4.7,0,0,0-.53,0,5.67,5.67,0,0,0-5.9,5.39Zm22.1-.09a5.83,5.83,0,1,0,6.32-5.29l-.51,0a5.59,5.59,0,0,0-5.81,5.31ZM1397,326a5.73,5.73,0,1,0,6.22-5.2l-.51,0A5.49,5.49,0,0,0,1397,326Zm22.09-.09a5.64,5.64,0,1,0,6.11-5.11,4.07,4.07,0,0,0-.5,0,5.4,5.4,0,0,0-5.61,5.13Zm22.07-.09a5.54,5.54,0,1,0,6-5l-.5,0a5.31,5.31,0,0,0-5.51,5.05Zm22.09-.09a5.44,5.44,0,1,0,5.9-4.94l-.48,0a5.22,5.22,0,0,0-5.42,5Zm22.07-.09a5.35,5.35,0,1,0,5.8-4.85l-.48,0a5.12,5.12,0,0,0-5.32,4.87Zm22.09-.08a5.25,5.25,0,1,0,5.69-4.77l-.46,0a5,5,0,0,0-5.22,4.78Zm22.07-.09a5.15,5.15,0,1,0,5.58-4.68l-.45,0a4.94,4.94,0,0,0-5.13,4.69Zm-306.86-16.06a5.78,5.78,0,0,0-2.17,3.58l4.81,4.27,1.47,2.58h.13a6,6,0,0,0,1.06-11.88,6.25,6.25,0,0,0-1.06,0,6.86,6.86,0,0,0-4.24,1.44Zm41.91,4.31a6.32,6.32,0,1,0,6.86-5.73,5.25,5.25,0,0,0-.56,0,6.05,6.05,0,0,0-6.29,5.76Zm22.07-.09a6.22,6.22,0,1,0,6.75-5.64,4.93,4.93,0,0,0-.55,0,6,6,0,0,0-6.19,5.67Zm-44.16.18a5.87,5.87,0,0,0,3.9,5.39l-1.18-4.39-2.65-1.88a5.14,5.14,0,0,0-.07.88Zm66.26-.27a6.12,6.12,0,1,0,6.64-5.55l-.54,0a5.87,5.87,0,0,0-6.1,5.58Zm22.06-.08a6,6,0,1,0,6.54-5.48l-.54,0a5.76,5.76,0,0,0-6,5.49Zm22.07-.09a5.93,5.93,0,1,0,6.44-5.38,4.7,4.7,0,0,0-.53,0,5.67,5.67,0,0,0-5.9,5.39Zm22.1-.09a5.83,5.83,0,1,0,6.32-5.3l-.51,0a5.59,5.59,0,0,0-5.81,5.31Zm22.07-.09a5.73,5.73,0,1,0,6.21-5.21l-.5,0a5.49,5.49,0,0,0-5.71,5.22Zm22.09-.09a5.64,5.64,0,1,0,6.11-5.12l-.5,0a5.4,5.4,0,0,0-5.61,5.13Zm22.07-.09a5.54,5.54,0,1,0,6-5l-.49,0a5.3,5.3,0,0,0-5.51,5Zm22.09-.09a5.44,5.44,0,1,0,5.9-4.94l-.48,0a5.22,5.22,0,0,0-5.42,5Zm22.07-.09a5.35,5.35,0,1,0,5.8-4.85l-.48,0a5.12,5.12,0,0,0-5.32,4.87Zm22.09-.08a5.25,5.25,0,1,0,5.69-4.77l-.46,0a5,5,0,0,0-5.22,4.78Zm22.07-.09A5.15,5.15,0,1,0,1535,308l-.45,0a4.94,4.94,0,0,0-5.13,4.69Zm-308.1-14.78a5.62,5.62,0,0,0-1,3.19,6.24,6.24,0,0,0,6.49,5.94,6.58,6.58,0,0,0,5.9-3.46l-5.27-2.48-2.89-3.16-.59-2.18a6.32,6.32,0,0,0-2.62,2.15Zm43.15,3a6.32,6.32,0,1,0,6.86-5.74l-.56,0a6,6,0,0,0-6.29,5.75Zm22.07-.09a6.22,6.22,0,1,0,6.75-5.65l-.55,0a6,6,0,0,0-6.19,5.66Zm22.09-.09a6.12,6.12,0,1,0,6.65-5.56l-.55,0a5.86,5.86,0,0,0-6.09,5.58Zm22.07-.09a6,6,0,1,0,6.54-5.47l-.54,0a5.76,5.76,0,0,0-6,5.49Zm22.07-.09a5.93,5.93,0,1,0,6.44-5.37,4.71,4.71,0,0,0-.53,0,5.68,5.68,0,0,0-5.9,5.4Zm22.09-.08a5.83,5.83,0,1,0,6.33-5.3l-.52,0a5.59,5.59,0,0,0-5.8,5.31Zm22.07-.09a5.74,5.74,0,1,0,6.22-5.21l-.51,0a5.49,5.49,0,0,0-5.7,5.22Zm22.1-.09a5.64,5.64,0,1,0,6.11-5.12l-.5,0a5.4,5.4,0,0,0-5.61,5.13Zm22.07-.09a5.54,5.54,0,1,0,6-5l-.49,0a5.3,5.3,0,0,0-5.51,5Zm22.09-.09a5.44,5.44,0,1,0,5.9-4.94l-.48,0a5.21,5.21,0,0,0-5.42,4.95Zm22.07-.09a5.34,5.34,0,1,0,5.79-4.85l-.47,0a5.12,5.12,0,0,0-5.32,4.86Zm22.09-.09a5.25,5.25,0,1,0,5.69-4.76l-.46,0a5,5,0,0,0-5.22,4.77Zm22.07-.09a4.94,4.94,0,0,0,5.13,4.7,5.06,5.06,0,0,0,5-3.58l-6-5.72a4.83,4.83,0,0,0-4.14,4.6Zm-281.67-4.62v1.46l3.4.95,3.6,2.39.4.53a5.61,5.61,0,0,0-2-3.84,6.72,6.72,0,0,0-4.35-1.57,7,7,0,0,0-1,.08Zm2.87-3.67-2.18,2.48h.33a6.47,6.47,0,0,0,5.82-3.44Zm13.88-3.29h0a5.55,5.55,0,0,0,1.9,4,6.64,6.64,0,0,0,4.4,1.63,6.06,6.06,0,0,0,6.3-5.76,5.53,5.53,0,0,0-1.42-3.65,6.44,6.44,0,0,0-3.56-2h0Zm22-.25a6.22,6.22,0,1,0,6.75-5.65l-.55,0a6,6,0,0,0-6.19,5.66Zm22.09-.09a6.12,6.12,0,1,0,6.65-5.56l-.55,0a5.87,5.87,0,0,0-6.09,5.57Zm22.07-.09a6,6,0,1,0,6.54-5.47l-.54,0a5.76,5.76,0,0,0-6,5.49Zm22.07-.08a5.93,5.93,0,1,0,6.43-5.39l-.52,0a5.67,5.67,0,0,0-5.9,5.4Zm22.09-.09a5.83,5.83,0,1,0,6.33-5.3l-.52,0a5.59,5.59,0,0,0-5.8,5.31Zm-152.2,5.2-2.24-3.52a5.8,5.8,0,0,0,2.25,3.5ZM1397,287.59a5.73,5.73,0,1,0,6.22-5.21l-.51,0a5.49,5.49,0,0,0-5.71,5.22Zm22.09-.09a5.64,5.64,0,1,0,6.11-5.12l-.5,0a5.4,5.4,0,0,0-5.61,5.13Zm22.07-.09a5.54,5.54,0,1,0,6-5l-.49,0a5.31,5.31,0,0,0-5.52,5Zm22.09-.09a5.44,5.44,0,1,0,5.9-4.94l-.48,0a5.22,5.22,0,0,0-5.42,4.95Zm22.07-.09a5.35,5.35,0,1,0,5.79-4.85l-.47,0a5.13,5.13,0,0,0-5.32,4.86Zm22.09-.08a5.25,5.25,0,1,0,5.69-4.77l-.46,0a5,5,0,0,0-5.22,4.77Zm-216.64-17.32-2.64,2.58-.87.23a5.41,5.41,0,0,0-.66,2.55,6.22,6.22,0,1,0,6.75-5.65l-.55,0A6.67,6.67,0,0,0,1290.73,269.83Zm17.93,5.27a6.12,6.12,0,1,0,6.64-5.56l-.54,0a5.87,5.87,0,0,0-6.1,5.58Zm22.06-.09a6,6,0,1,0,6.54-5.47l-.54,0a5.76,5.76,0,0,0-6,5.49Zm22.07-.09a5.93,5.93,0,1,0,6.44-5.37,4.71,4.71,0,0,0-.53,0,5.68,5.68,0,0,0-5.9,5.4Zm22.1-.09a5.83,5.83,0,1,0,6.32-5.29l-.51,0a5.58,5.58,0,0,0-5.81,5.31Zm22.07-.08a5.73,5.73,0,1,0,6.21-5.21l-.5,0a5.49,5.49,0,0,0-5.71,5.22Zm22.09-.09a5.64,5.64,0,1,0,6.11-5.12l-.5,0a5.4,5.4,0,0,0-5.61,5.14Zm22.07-.09a5.54,5.54,0,1,0,6-5l-.49,0a5.3,5.3,0,0,0-5.51,5.05Zm22.09-.09a5.44,5.44,0,1,0,5.9-4.94l-.48,0a5.22,5.22,0,0,0-5.42,5Zm22.07-.09a5.35,5.35,0,1,0,5.8-4.85l-.48,0a5.12,5.12,0,0,0-5.32,4.87Zm22.09-.09a5.25,5.25,0,1,0,5.69-4.76l-.46,0a5,5,0,0,0-5.22,4.78ZM1292,268a6.12,6.12,0,0,0,.74,0,6,6,0,0,0,6.2-5.67,5.56,5.56,0,0,0-2.68-4.67Zm16.64-5.72a6.12,6.12,0,1,0,6.64-5.56,4.87,4.87,0,0,0-.54,0,5.86,5.86,0,0,0-6.1,5.58Zm22.06-.09a6,6,0,1,0,6.54-5.47,4.87,4.87,0,0,0-.54,0,5.76,5.76,0,0,0-6,5.49Zm22.07-.07a5.93,5.93,0,1,0,6.44-5.37,4.71,4.71,0,0,0-.53,0,5.68,5.68,0,0,0-5.9,5.4Zm22.1-.09a5.83,5.83,0,1,0,6.32-5.29l-.51,0a5.59,5.59,0,0,0-5.81,5.31Zm22.07-.08a5.73,5.73,0,1,0,6.21-5.21l-.5,0a5.49,5.49,0,0,0-5.71,5.22Zm22.09-.09a5.64,5.64,0,1,0,6.11-5.12l-.5,0a5.4,5.4,0,0,0-5.61,5.13Zm22.07-.09a5.54,5.54,0,1,0,6-5l-.5,0a5.3,5.3,0,0,0-5.51,5.05Zm22.09-.09a5.44,5.44,0,1,0,5.9-4.94l-.48,0a5.22,5.22,0,0,0-5.42,5Zm22.07-.09a5.34,5.34,0,0,0,10.64,0,4.78,4.78,0,0,0-2.54-4.16l-1.56.89h-5.16a4.62,4.62,0,0,0-1.38,3.27Zm22.09-.09a5,5,0,0,0,5.23,4.78,5.15,5.15,0,0,0,5.07-3.61l-3.71-1.21L1509,258a4.6,4.6,0,0,0-1.65,3.49Zm-198.71-12a6.12,6.12,0,1,0,6.64-5.56,4.87,4.87,0,0,0-.54,0,5.86,5.86,0,0,0-6.1,5.58Zm22.06-.09a6,6,0,1,0,6.54-5.47,3.25,3.25,0,0,0-.54,0,5.76,5.76,0,0,0-6,5.49Zm22.07-.09a5.93,5.93,0,1,0,6.43-5.38,4.43,4.43,0,0,0-.52,0,5.66,5.66,0,0,0-5.9,5.4Zm22.1-.09a5.83,5.83,0,1,0,6.32-5.29,4.35,4.35,0,0,0-.51,0,5.58,5.58,0,0,0-5.81,5.31Zm22.07-.09a5.73,5.73,0,1,0,6.21-5.2,4.1,4.1,0,0,0-.5,0,5.47,5.47,0,0,0-5.71,5.22Zm22.09-.09a5.64,5.64,0,1,0,6.11-5.11,4.1,4.1,0,0,0-.5,0,5.4,5.4,0,0,0-5.61,5.13Zm22.07-.08a5.54,5.54,0,1,0,6-5,3.93,3.93,0,0,0-.49,0,5.29,5.29,0,0,0-5.51,5Zm22.09-.09a5.44,5.44,0,1,0,5.9-4.94,3.85,3.85,0,0,0-.48,0,5.21,5.21,0,0,0-5.42,5Zm23.56-3.47a4.65,4.65,0,0,0-1.49,3.38,4.5,4.5,0,0,0,.39,1.84l4.71-6.69,0,0a5.47,5.47,0,0,0-3.62,1.48Zm-150.67-14.3.26.9-.39,3.6-1.92,4.45-.83,1a6.41,6.41,0,0,0,3.51,1,5.52,5.52,0,1,0,1-11,5.24,5.24,0,0,0-1,0l-.63,0Zm16.7,5.38a5.93,5.93,0,1,0,6.43-5.38l-.53,0a5.67,5.67,0,0,0-5.9,5.39Zm22.09-.09a5.83,5.83,0,1,0,6.32-5.29l-.51,0a5.59,5.59,0,0,0-5.81,5.32Zm22.07-.09a5.73,5.73,0,1,0,6.22-5.2l-.51,0a5.49,5.49,0,0,0-5.71,5.23Zm22.09-.09a5.64,5.64,0,1,0,6.11-5.11,4.07,4.07,0,0,0-.5,0,5.4,5.4,0,0,0-5.61,5.14Zm22.07-.09a5.54,5.54,0,1,0,6-5l-.49,0a5.31,5.31,0,0,0-5.52,5.05Zm22.09-.09a5.44,5.44,0,1,0,5.9-4.93l-.48,0a5.22,5.22,0,0,0-5.42,5Zm22.07-.06a5.12,5.12,0,0,0,5.32,4.87,5.56,5.56,0,0,0,3.82-1.47l.62-.7a4.67,4.67,0,0,0,.89-2.7,5.35,5.35,0,0,0-10.65,0Zm-153-15.9-.9,2.57,3.91,5.76.22.73a6.23,6.23,0,0,0,1.22.12,5.52,5.52,0,1,0,1-11,5.24,5.24,0,0,0-1,0,6.26,6.26,0,0,0-4.45,1.81Zm20.52,3.6a5.93,5.93,0,1,0,6.43-5.38l-.53,0a5.67,5.67,0,0,0-5.9,5.39Zm22.09-.09a5.83,5.83,0,1,0,6.33-5.29l-.52,0a5.59,5.59,0,0,0-5.81,5.31Zm22.07-.09a5.73,5.73,0,1,0,6.22-5.2l-.51,0a5.49,5.49,0,0,0-5.71,5.23Zm22.09-.09a5.64,5.64,0,1,0,6.12-5.11l-.5,0a5.41,5.41,0,0,0-5.62,5.14Zm22.07-.09a5.54,5.54,0,1,0,6-5l-.49,0a5.3,5.3,0,0,0-5.52,5.05Zm22.09-.09a5.44,5.44,0,1,0,5.9-4.94l-.48,0a5.22,5.22,0,0,0-5.42,5Zm22.07-.09a5.35,5.35,0,1,0,5.8-4.85l-.47,0a5.13,5.13,0,0,0-5.33,4.87Zm-149-17.69-.3,3.86-2.23,6.42a6.53,6.53,0,0,0,2.94.7,5.52,5.52,0,1,0,1-11,5.24,5.24,0,0,0-1,0Zm16.48,5.39a5.93,5.93,0,1,0,6.43-5.37,4.58,4.58,0,0,0-.53,0,5.67,5.67,0,0,0-5.9,5.4Zm22.09-.08a5.83,5.83,0,1,0,6.32-5.3l-.51,0a5.59,5.59,0,0,0-5.81,5.31Zm22.07-.09a5.73,5.73,0,1,0,6.22-5.21l-.51,0a5.49,5.49,0,0,0-5.71,5.22Zm22.09-.09a5.64,5.64,0,1,0,6.12-5.12l-.5,0a5.4,5.4,0,0,0-5.62,5.13Zm22.07-.09a5.54,5.54,0,1,0,6-5l-.49,0a5.3,5.3,0,0,0-5.52,5Zm22.09-.09a5.44,5.44,0,1,0,5.9-4.94l-.48,0a5.22,5.22,0,0,0-5.42,5Zm22.07-.09a5.35,5.35,0,1,0,5.8-4.85l-.47,0a5.13,5.13,0,0,0-5.33,4.87Zm22.1-.09a4.34,4.34,0,0,0,.18,1.25l.44-3.52a4.43,4.43,0,0,0-.62,2.27Zm.62-2.27ZM1339.82,197l-2.43,2.92-.86,2.69-.07,1h.27a5.78,5.78,0,0,0,6-5.5,5.46,5.46,0,0,0-3.14-4.83Zm13,1a5.93,5.93,0,1,0,6.43-5.37,4.58,4.58,0,0,0-.53,0,5.67,5.67,0,0,0-5.9,5.4Zm22.09-.09a5.83,5.83,0,1,0,6.32-5.29l-.51,0a5.58,5.58,0,0,0-5.81,5.31Zm22.07-.08a5.73,5.73,0,1,0,6.22-5.21l-.51,0a5.48,5.48,0,0,0-5.71,5.22Zm22.09-.09a5.64,5.64,0,1,0,6.11-5.12l-.5,0a5.4,5.4,0,0,0-5.61,5.13Zm22.07-.09a5.54,5.54,0,1,0,6-5l-.49,0a5.3,5.3,0,0,0-5.52,5Zm22.09-.09a5.44,5.44,0,1,0,5.9-4.94l-.48,0a5.21,5.21,0,0,0-5.42,4.95Zm22.07-.09a5.35,5.35,0,1,0,5.8-4.85l-.48,0a5.12,5.12,0,0,0-5.32,4.87Zm22.09-.09a4.75,4.75,0,0,0,2.82,4.24l.25-.7.86-8.17a4.86,4.86,0,0,0-3.92,4.63ZM1352.8,185.16a5.93,5.93,0,1,0,6.42-5.38,4.43,4.43,0,0,0-.52,0,5.67,5.67,0,0,0-5.9,5.4Zm22.09-.09a5.83,5.83,0,1,0,6.32-5.29,4.35,4.35,0,0,0-.51,0,5.58,5.58,0,0,0-5.81,5.31ZM1397,185a5.73,5.73,0,1,0,6.22-5.2,4.35,4.35,0,0,0-.51,0A5.47,5.47,0,0,0,1397,185Zm-58-2.31.44,7.5a5.81,5.81,0,0,0,2.4-2,5.11,5.11,0,0,0,.92-2.93,5.23,5.23,0,0,0-1.44-3.57h0Zm80.08,2.22a5.64,5.64,0,1,0,6.12-5.11,4.26,4.26,0,0,0-.5,0,5.4,5.4,0,0,0-5.62,5.13Zm22.07-.09a5.54,5.54,0,1,0,6-5,4.1,4.1,0,0,0-.49,0,5.29,5.29,0,0,0-5.52,5Zm22.09-.08a5.44,5.44,0,1,0,5.9-4.94,3.85,3.85,0,0,0-.48,0,5.21,5.21,0,0,0-5.42,5Zm22.07-.09a5.35,5.35,0,1,0,5.8-4.85,3.77,3.77,0,0,0-.47,0,5.12,5.12,0,0,0-5.33,4.86Zm22.1-.09a4.9,4.9,0,0,0,4.29,4.7l.76-7.22,1.39-2.13a5.56,5.56,0,0,0-1.22-.13,5,5,0,0,0-5.22,4.77ZM1352.8,172.35a5.93,5.93,0,1,0,6.43-5.38l-.53,0a5.67,5.67,0,0,0-5.9,5.39Zm22.09-.09a5.83,5.83,0,1,0,6.33-5.29,4.61,4.61,0,0,0-.52,0,5.58,5.58,0,0,0-5.81,5.31Zm22.07-.09a5.73,5.73,0,1,0,6.22-5.2,4.35,4.35,0,0,0-.51,0,5.47,5.47,0,0,0-5.71,5.22Zm22.09-.09a5.64,5.64,0,1,0,6.12-5.11,4.26,4.26,0,0,0-.5,0,5.4,5.4,0,0,0-5.62,5.13Zm22.07-.09a5.54,5.54,0,1,0,6-5,4.1,4.1,0,0,0-.49,0,5.29,5.29,0,0,0-5.52,5Zm22.09-.08a5.44,5.44,0,1,0,5.9-4.94,3.85,3.85,0,0,0-.48,0,5.21,5.21,0,0,0-5.42,5Zm22.07-.09a5.35,5.35,0,1,0,5.8-4.85,3.77,3.77,0,0,0-.47,0,5.12,5.12,0,0,0-5.33,4.86Zm22.1-.09a5.25,5.25,0,1,0,5.68-4.76,3.46,3.46,0,0,0-.46,0,5,5,0,0,0-5.22,4.77Zm-165.57,2.89.11.58a4.83,4.83,0,0,0,.61-1.35Zm17.62-13,.58,2-1.52,1.29h.21a5.68,5.68,0,0,0,5.91-5.4,5,5,0,0,0-.78-2.69l-5,2.4-.39,3.38,1-1Zm-3.4,2.31-.39.2a6.19,6.19,0,0,0,2.68.77l-.54-.76Zm18.86-4.51a5.83,5.83,0,1,0,6.33-5.29,4.53,4.53,0,0,0-.52,0,5.59,5.59,0,0,0-5.81,5.31Zm23.68-3.73a5,5,0,0,0-1.61,3.64,5.5,5.5,0,0,0,5.71,5.23,5.59,5.59,0,0,0,5.67-4.55l-1.83-1.46-4.86,1.8-.92-2.47,1-3.27.74-.51a6,6,0,0,0-3.92,1.59Zm20.48,3.55a5.64,5.64,0,1,0,6.12-5.11,4.19,4.19,0,0,0-.5,0,5.4,5.4,0,0,0-5.62,5.13Zm22.07-.09a5.54,5.54,0,1,0,6-5l-.49,0a5.31,5.31,0,0,0-5.52,5Zm22.1-.09a5.44,5.44,0,1,0,5.9-4.94l-.48,0a5.22,5.22,0,0,0-5.43,5Zm22.06-.09a5.35,5.35,0,1,0,5.8-4.85l-.47,0a5.13,5.13,0,0,0-5.33,4.87Zm22.1-.09a5.25,5.25,0,1,0,5.69-4.76l-.47,0a5,5,0,0,0-5.22,4.78ZM1375,147.64a5.71,5.71,0,0,0,5.7,4.3,5.59,5.59,0,0,0,5.81-5.32,5.09,5.09,0,0,0-1.31-3.36,6,6,0,0,0-3.28-1.84Zm22-1.11a5.49,5.49,0,0,0,5.71,5.22,6,6,0,0,0,3.62-1.18,5.16,5.16,0,0,0,2-3l-.78-.06-10-3.15a4.88,4.88,0,0,0-.49,2.12Zm24.23,3.94a5.81,5.81,0,0,0,3.48,1.1,5.14,5.14,0,1,0,.93-10.24,4.19,4.19,0,0,0-.61,0Zm19.93-4.12a5.54,5.54,0,1,0,6-5l-.49,0a5.31,5.31,0,0,0-5.52,5Zm22.1-.09a5.44,5.44,0,1,0,5.9-4.94l-.48,0a5.21,5.21,0,0,0-5.43,5Zm22.07-.09a5.34,5.34,0,1,0,5.79-4.85l-.47,0a5.13,5.13,0,0,0-5.33,4.87Zm22.09-.09a5.25,5.25,0,1,0,5.69-4.76l-.47,0a5,5,0,0,0-5.22,4.78Zm22.07-.08a4.75,4.75,0,0,0,3.46,4.43l5.12-7.9a5.36,5.36,0,0,0-3.45-1.23,5,5,0,0,0-5.14,4.69Zm-110.25,1.6a4.51,4.51,0,0,0,.31.87l2-1.25Zm5.88-14.8.4,5.89a5.81,5.81,0,0,0,3.42-1.71,4.9,4.9,0,0,0,1.38-3.38,5,5,0,0,0-2.71-4.4Zm17.63-2.83a4.84,4.84,0,0,0-1.59,3.55,5.54,5.54,0,0,0,11,0,4.82,4.82,0,0,0-1.52-3.48l-1.2-.28-2.89-1.29a5.7,5.7,0,0,0-3.84,1.5Zm30.34.58-1.88,0-7.08.15a4.6,4.6,0,0,0-.87,2.7,5.44,5.44,0,0,0,10.84,0,4.63,4.63,0,0,0-1-2.88Zm12.24,2.79a5.34,5.34,0,1,0,5.79-4.85,3.7,3.7,0,0,0-.47,0,5.12,5.12,0,0,0-5.33,4.86Zm22.09-.09a5.25,5.25,0,1,0,5.69-4.76,3.7,3.7,0,0,0-.47,0,5,5,0,0,0-5.22,4.77Zm22.07-.09a5.15,5.15,0,1,0,5.58-4.67,3.39,3.39,0,0,0-.45,0,4.94,4.94,0,0,0-5.14,4.69Zm22.09-.09a4.39,4.39,0,0,0,1.2,3l5.73-4.2,1.41-2.25a5.3,5.3,0,0,0-3.3-1.13,4.84,4.84,0,0,0-5,4.6Zm-44.16-12.63a5.25,5.25,0,1,0,5.69-4.76,3.7,3.7,0,0,0-.47,0,5,5,0,0,0-5.22,4.77Zm22.07-.09a5.15,5.15,0,1,0,5.58-4.67,3.39,3.39,0,0,0-.45,0,4.94,4.94,0,0,0-5.14,4.68Zm22.09-.09a5.05,5.05,0,1,0,5.48-4.58l-.45,0a4.84,4.84,0,0,0-5,4.6Zm-57.92,3.94-.18.45a5,5,0,0,0,1.9-1.9Zm1.72-1.45Zm15.7-10.58a5.6,5.6,0,0,0,5.21-1.14,4.58,4.58,0,0,0,1.58-3.29Zm18.4-4.65a5.15,5.15,0,1,0,5.59-4.68l-.46,0a4.94,4.94,0,0,0-5.13,4.69Zm22.1-.09a5.05,5.05,0,1,0,5.48-4.58,3.39,3.39,0,0,0-.45,0,4.84,4.84,0,0,0-5,4.59Zm22.06-.09a1.93,1.93,0,0,0,0,.24l.72-1.15,8.48-1.36a5.07,5.07,0,0,0-4.27-2.25,4.74,4.74,0,0,0-4.93,4.51ZM1557,91.27l-1.7,1.6-3.78,2a5.07,5.07,0,0,0,10-.3,4.35,4.35,0,0,0-1.13-2.91,5.1,5.1,0,0,0-2.82-1.59Zm16.58,3.25A5,5,0,1,0,1579,90a3.17,3.17,0,0,0-.44,0,4.74,4.74,0,0,0-4.93,4.51Zm22.07-.09a4.85,4.85,0,1,0,5.26-4.4,3,3,0,0,0-.43,0,4.66,4.66,0,0,0-4.84,4.42Zm22.24-1.16L1619.5,91l.89-.55a4.47,4.47,0,0,0-2.48,2.81Zm-44.31-11.58a5,5,0,1,0,5.37-4.5l-.44,0a4.75,4.75,0,0,0-4.93,4.52Zm22.06-.09a4.86,4.86,0,1,0,5.27-4.41l-.43,0A4.66,4.66,0,0,0,1595.67,81.6Zm22.1-.09a4.76,4.76,0,1,0,5.16-4.32l-.42,0a4.56,4.56,0,0,0-4.74,4.34Zm-57.12,3a4.53,4.53,0,0,0,.76-1.42Zm35-15.68a4.86,4.86,0,1,0,5.27-4.41l-.43,0a4.66,4.66,0,0,0-4.84,4.43Zm22.1-.09a4.55,4.55,0,0,0,4.74,4.33,4.89,4.89,0,0,0,3.4-1.31l-2.33-4.16L1620.1,65A4.3,4.3,0,0,0,1617.77,68.7Zm-36,3.62a4.39,4.39,0,0,0,1.72-3Zm-7.46-1.18.45-.5-.76-.07a3.91,3.91,0,0,0,.31.57Zm26.24-10.76A5,5,0,0,0,1604,59l-.72-.27-7-.54a4.94,4.94,0,0,0,4.17,2.19Z"/><g id="COLOMBIA" class="cls-4"><text class="cls-5" transform="translate(-99.88 162.1)"><tspan class="cls-6">C</tspan><tspan x="174.24" y="0">O</tspan><tspan class="cls-7" x="378.13" y="0">L</tspan><tspan class="cls-8" x="522.48" y="0">OMBIA</tspan></text></g><rect id="Rectángulo_280" data-name="Rectángulo 280" class="cls-9" x="135.13" y="352.6" width="20" height="20"/><rect id="Rectángulo_281" data-name="Rectángulo 281" class="cls-9" x="135.13" y="300.6" width="20" height="20"/><path id="Unión_21" data-name="Unión 21" class="cls-9" d="M1140.13,495.6l-55.16,66,55.16,66H1078.9l-55.14-66h0l0,0,0,0h0l55.14-66Z"/></g></svg>