<svg id="Capa_1" data-name="Capa 1" xmlns="http://www.w3.org/2000/svg" viewBox="0 0 909 581"><defs><style>.cls-1,.cls-3{fill:#f2f2f2;}.cls-2{fill:#4d4d4d;}.cls-3,.cls-4{stroke:#707070;}.cls-4,.cls-5{fill:#dedede;}</style></defs><g id="Grupo_1751" data-name="Grupo 1751"><g id="Grupo_1623" data-name="Grupo 1623"><g id="Grupo_1496" data-name="Grupo 1496"><g id="Grupo_1495" data-name="Grupo 1495"><g id="Grupo_1489" data-name="Grupo 1489"><g id="Grupo_1488" data-name="Grupo 1488"><path id="Rectángulo_238" data-name="Rectángulo 238" class="cls-1" d="M155.4,15.93H753.6a10.2,10.2,0,0,1,10.2,10.2h0v388.7A10.2,10.2,0,0,1,753.6,425H155.4a10.2,10.2,0,0,1-10.2-10.2h0V26.13a10.2,10.2,0,0,1,10.2-10.2Z"/></g></g><g id="Grupo_1491" data-name="Grupo 1491"><g id="Grupo_1490" data-name="Grupo 1490"><rect id="Rectángulo_239" data-name="Rectángulo 239" class="cls-2" x="146.92" y="17.97" width="615.16" height="405.03" rx="9.35"/></g></g><g id="Grupo_1493" data-name="Grupo 1493"><g id="Grupo_1492" data-name="Grupo 1492"><rect id="Rectángulo_240" data-name="Rectángulo 240" class="cls-1" x="172.54" y="50.22" width="563.92" height="340.54"/></g></g></g></g><g id="Grupo_1622" data-name="Grupo 1622"><g id="Grupo_1498" data-name="Grupo 1498"><g id="Grupo_1497" data-name="Grupo 1497"><path id="Trazado_2240" data-name="Trazado 2240" class="cls-3" d="M862.22,535.15H46.78c-16.12,0-25.4-3.4-20.83-7.53L140.87,424c2.4-2.17,13.58-3.9,25-3.9H743.14c11.41,0,22.58,1.73,25,3.9L883.05,527.62C887.62,531.75,878.34,535.15,862.22,535.15Z"/></g></g><path id="Trazado_2241" data-name="Trazado 2241" class="cls-4" d="M884.21,529.7c-.05,3.13-8.69,5.45-22,5.45H46.78c-13.06,0-21.63-2.24-22-5.28h0v12.76c.16,3.1,8.76,5.39,22,5.39H862.22c13.25,0,21.87-2.3,22-5.41V529.7Z"/><path id="Trazado_2242" data-name="Trazado 2242" class="cls-1" d="M874.13,547.25a81.69,81.69,0,0,1-11.91.77H46.78a81.69,81.69,0,0,1-11.91-.77L26,556.45c-4.57,4.72,4.71,8.62,20.83,8.62H862.22c16.12,0,25.4-3.9,20.83-8.62Z"/><g id="Grupo_1500" data-name="Grupo 1500"><g id="Grupo_1499" data-name="Grupo 1499"><path id="Trazado_2243" data-name="Trazado 2243" class="cls-5" d="M795.52,487h-682c-4.72,0-7.65-.88-6.56-2l57.65-57c.75-.75,4.52-1.35,8.41-1.35H736c3.89,0,7.66.6,8.41,1.35l57.65,57C803.17,486.06,800.24,487,795.52,487Z"/></g></g><g id="Grupo_1502" data-name="Grupo 1502"><g id="Grupo_1501" data-name="Grupo 1501"><path id="Trazado_2244" data-name="Trazado 2244" class="cls-5" d="M556.62,528.86H352.38c-5.29,0-9.26-1.1-8.87-2.46L352.57,495c.33-1.14,4.48-2.05,9.28-2.05h185.3c4.8,0,9,.91,9.28,2.05l9.06,31.45C565.88,527.76,561.91,528.86,556.62,528.86Z"/></g></g><g id="Grupo_1621" data-name="Grupo 1621"><g id="Grupo_1504" data-name="Grupo 1504"><g id="Grupo_1503" data-name="Grupo 1503"><path id="Trazado_2245" data-name="Trazado 2245" class="cls-2" d="M184.23,458.76h-34.9c-2.16,0-4.35.45-4.88,1l-7.81,8c-.56.58.79,1.05,3,1.05h72c2.23,0,4.38-.47,4.8-1.05l5.85-8c.4-.54-1-1-3.2-1Z"/></g></g><g id="Grupo_1506" data-name="Grupo 1506"><g id="Grupo_1505" data-name="Grupo 1505"><path id="Trazado_2246" data-name="Trazado 2246" class="cls-2" d="M263.44,468.83h-32c-2.24,0-3.77-.4-3.43-.89l5.78-8.34c.32-.46,2.33-.84,4.5-.84h31c2.16,0,3.7.38,3.44.84L268,467.94C267.71,468.43,265.67,468.83,263.44,468.83Z"/></g></g><g id="Grupo_1508" data-name="Grupo 1508"><g id="Grupo_1507" data-name="Grupo 1507"><path id="Trazado_2247" data-name="Trazado 2247" class="cls-2" d="M315.2,468.83h-32c-2.23,0-3.83-.4-3.57-.89l4.46-8.34c.25-.46,2.2-.84,4.37-.84h31c2.16,0,3.76.38,3.57.84l-3.44,8.34C319.41,468.43,317.43,468.83,315.2,468.83Z"/></g></g><g id="Grupo_1510" data-name="Grupo 1510"><g id="Grupo_1509" data-name="Grupo 1509"><path id="Trazado_2248" data-name="Trazado 2248" class="cls-2" d="M367,468.83H335c-2.23,0-3.9-.4-3.71-.89l3.14-8.34c.18-.46,2.07-.84,4.24-.84h31c2.16,0,3.82.38,3.71.84l-2.13,8.34C371.11,468.43,369.19,468.83,367,468.83Z"/></g></g><g id="Grupo_1512" data-name="Grupo 1512"><g id="Grupo_1511" data-name="Grupo 1511"><path id="Trazado_2249" data-name="Trazado 2249" class="cls-2" d="M470.48,468.83h-32c-2.23,0-4-.4-4-.89l.51-8.34c0-.46,1.8-.84,4-.84h31c2.16,0,3.94.38,4,.84l.51,8.34C474.5,468.43,472.71,468.83,470.48,468.83Z"/></g></g><g id="Grupo_1514" data-name="Grupo 1514"><g id="Grupo_1513" data-name="Grupo 1513"><path id="Trazado_2250" data-name="Trazado 2250" class="cls-2" d="M418.72,468.83h-32c-2.23,0-4-.4-3.85-.89l1.83-8.34c.1-.46,1.93-.84,4.1-.84h31c2.17,0,3.89.38,3.84.84l-.8,8.34C422.8,468.43,421,468.83,418.72,468.83Z"/></g></g><g id="Grupo_1516" data-name="Grupo 1516"><g id="Grupo_1515" data-name="Grupo 1515"><path id="Trazado_2251" data-name="Trazado 2251" class="cls-2" d="M522.24,468.83h-32c-2.23,0-4.08-.4-4.13-.89l-.81-8.34c0-.46,1.68-.84,3.84-.84h31c2.17,0,4,.38,4.1.84l1.83,8.34C526.2,468.43,524.48,468.83,522.24,468.83Z"/></g></g><g id="Grupo_1518" data-name="Grupo 1518"><g id="Grupo_1517" data-name="Grupo 1517"><path id="Trazado_2252" data-name="Trazado 2252" class="cls-2" d="M574,468.83H542c-2.23,0-4.14-.4-4.27-.89l-2.12-8.34c-.12-.46,1.54-.84,3.7-.84h31c2.17,0,4.06.38,4.24.84l3.14,8.34C577.9,468.43,576.24,468.83,574,468.83Z"/></g></g><g id="Grupo_1520" data-name="Grupo 1520"><g id="Grupo_1519" data-name="Grupo 1519"><path id="Trazado_2253" data-name="Trazado 2253" class="cls-2" d="M625.76,468.83h-32c-2.23,0-4.21-.4-4.41-.89L586,459.6c-.19-.46,1.41-.84,3.58-.84h31c2.17,0,4.12.38,4.37.84l4.46,8.34C629.59,468.43,628,468.83,625.76,468.83Z"/></g></g><g id="Grupo_1522" data-name="Grupo 1522"><g id="Grupo_1521" data-name="Grupo 1521"><path id="Trazado_2254" data-name="Trazado 2254" class="cls-2" d="M677.52,468.83h-32c-2.23,0-4.27-.4-4.54-.89l-4.77-8.34c-.26-.46,1.28-.84,3.45-.84h31c2.16,0,4.18.38,4.5.84l5.78,8.34C681.29,468.43,679.76,468.83,677.52,468.83Z"/></g></g><g id="Grupo_1524" data-name="Grupo 1524"><g id="Grupo_1523" data-name="Grupo 1523"><path id="Trazado_2255" data-name="Trazado 2255" class="cls-2" d="M205.6,482.82H176.46c-2.32,0-3.86-.43-3.42-1l7.48-9.06c.42-.5,2.58-.9,4.83-.9h28.21c2.26,0,3.79.4,3.44.9l-6.49,9.06C210.13,482.39,207.93,482.82,205.6,482.82Z"/></g></g><g id="Grupo_1526" data-name="Grupo 1526"><g id="Grupo_1525" data-name="Grupo 1525"><path id="Trazado_2256" data-name="Trazado 2256" class="cls-2" d="M155.82,482.82H126.23c-2.33,0-3.8-.43-3.29-1l8.82-9.06c.49-.5,2.71-.9,5-.9h28.65c2.25,0,3.73.4,3.3.9l-7.81,9.06C160.41,482.39,158.15,482.82,155.82,482.82Z"/></g></g><g id="Grupo_1528" data-name="Grupo 1528"><g id="Grupo_1527" data-name="Grupo 1527"><path id="Trazado_2257" data-name="Trazado 2257" class="cls-2" d="M255.28,482.82h-29c-2.33,0-3.93-.43-3.57-1l6.17-9.06c.34-.5,2.44-.9,4.7-.9h28.1c2.26,0,3.86.4,3.57.9l-5.17,9.06C259.75,482.39,257.61,482.82,255.28,482.82Z"/></g></g><g id="Grupo_1530" data-name="Grupo 1530"><g id="Grupo_1529" data-name="Grupo 1529"><path id="Trazado_2258" data-name="Trazado 2258" class="cls-2" d="M733.09,482.82H704c-2.32,0-4.52-.43-4.9-1l-6.5-9.06c-.36-.5,1.18-.9,3.43-.9h28.21c2.25,0,4.42.4,4.83.9l7.5,9.06C737,482.39,735.42,482.82,733.09,482.82Z"/></g></g><g id="Grupo_1532" data-name="Grupo 1532"><g id="Grupo_1531" data-name="Grupo 1531"><path id="Trazado_2259" data-name="Trazado 2259" class="cls-2" d="M683.31,482.82H653.72c-2.33,0-4.46-.43-4.77-1l-2.08-3.66c-.3-.52,1.32-.93,3.61-.93h29.11c2.29,0,4.43.41,4.79.93l2.49,3.66C687.23,482.39,685.64,482.82,683.31,482.82Z"/></g></g><g id="Grupo_1534" data-name="Grupo 1534"><g id="Grupo_1533" data-name="Grupo 1533"><path id="Trazado_2260" data-name="Trazado 2260" class="cls-2" d="M782.77,482.82h-29c-2.33,0-4.59-.43-5-1l-3.16-3.66c-.44-.52,1.05-.93,3.35-.93h28.56c2.29,0,4.55.41,5.06.93l3.56,3.66C786.57,482.39,785.1,482.82,782.77,482.82Z"/></g></g><g id="Grupo_1536" data-name="Grupo 1536"><g id="Grupo_1535" data-name="Grupo 1535"><path id="Trazado_2261" data-name="Trazado 2261" class="cls-2" d="M309.25,482.82H275.93c-2.33,0-4-.43-3.7-1l4.84-9.06c.27-.5,2.32-.9,4.57-.9H313.9c2.26,0,3.92.4,3.71.9l-3.74,9.06C313.65,482.39,311.58,482.82,309.25,482.82Z"/></g></g><g id="Grupo_1538" data-name="Grupo 1538"><g id="Grupo_1537" data-name="Grupo 1537"><path id="Trazado_2262" data-name="Trazado 2262" class="cls-2" d="M633.07,482.82H599.75c-2.33,0-4.4-.43-4.61-1l-3.74-9.06c-.21-.5,1.45-.9,3.71-.9h32.25c2.26,0,4.3.4,4.57.9l4.85,9.06C637.06,482.39,635.4,482.82,633.07,482.82Z"/></g></g><g id="Grupo_1540" data-name="Grupo 1540"><g id="Grupo_1539" data-name="Grupo 1539"><path id="Trazado_2263" data-name="Trazado 2263" class="cls-2" d="M724.76,458.76h-34.9c-2.16,0-3.6.45-3.2,1l5.85,8c.42.58,2.58,1.05,4.81,1.05h72c2.23,0,3.59-.47,3-1.05l-7.81-8c-.54-.55-2.72-1-4.89-1Z"/></g></g><g id="Grupo_1542" data-name="Grupo 1542"><g id="Grupo_1541" data-name="Grupo 1541"><path id="Trazado_2264" data-name="Trazado 2264" class="cls-2" d="M183.62,446.64H161c-2.08,0-4.17.41-4.66.91L149.1,455c-.52.53.8,1,3,1H198.7c2.15,0,4.23-.44,4.66-1l5.94-7.42c.4-.5-1-.91-3-.91Z"/></g></g><g id="Grupo_1563" data-name="Grupo 1563"><g id="Grupo_1544" data-name="Grupo 1544"><g id="Grupo_1543" data-name="Grupo 1543"><path id="Trazado_2265" data-name="Trazado 2265" class="cls-2" d="M298.15,455.94h-30.7c-2.15,0-3.66-.37-3.39-.82l4.68-7.71c.25-.43,2.15-.77,4.23-.77h29.8c2.09,0,3.6.34,3.4.77l-3.73,7.71C302.21,455.57,300.3,455.94,298.15,455.94Z"/></g></g><g id="Grupo_1546" data-name="Grupo 1546"><g id="Grupo_1545" data-name="Grupo 1545"><path id="Trazado_2266" data-name="Trazado 2266" class="cls-2" d="M248.43,455.94h-30.7c-2.15,0-3.61-.37-3.27-.82l5.9-7.71c.33-.43,2.28-.77,4.36-.77h29.8c2.08,0,3.55.34,3.28.77l-5,7.71C252.55,455.57,250.57,455.94,248.43,455.94Z"/></g></g><g id="Grupo_1548" data-name="Grupo 1548"><g id="Grupo_1547" data-name="Grupo 1547"><path id="Trazado_2267" data-name="Trazado 2267" class="cls-2" d="M347.88,455.94h-30.7c-2.15,0-3.72-.37-3.52-.82l3.46-7.71c.19-.43,2-.77,4.12-.77H351c2.08,0,3.65.34,3.52.77L352,455.12C351.88,455.57,350,455.94,347.88,455.94Z"/></g></g><g id="Grupo_1550" data-name="Grupo 1550"><g id="Grupo_1549" data-name="Grupo 1549"><path id="Trazado_2268" data-name="Trazado 2268" class="cls-2" d="M397.6,455.94H366.9c-2.15,0-3.78-.37-3.65-.82l2.24-7.71c.13-.43,1.91-.77,4-.77h29.8c2.08,0,3.71.34,3.64.77l-1.3,7.71C401.55,455.57,399.75,455.94,397.6,455.94Z"/></g></g><g id="Grupo_1552" data-name="Grupo 1552"><g id="Grupo_1551" data-name="Grupo 1551"><path id="Trazado_2269" data-name="Trazado 2269" class="cls-2" d="M497.05,455.94h-30.7c-2.14,0-3.89-.37-3.9-.82l-.2-7.71c0-.43,1.67-.77,3.75-.77h29.8c2.08,0,3.82.34,3.88.77l1.14,7.71C500.88,455.57,499.2,455.94,497.05,455.94Z"/></g></g><g id="Grupo_1554" data-name="Grupo 1554"><g id="Grupo_1553" data-name="Grupo 1553"><path id="Trazado_2270" data-name="Trazado 2270" class="cls-2" d="M447.33,455.94h-30.7c-2.15,0-3.84-.37-3.78-.82l1-7.71c.06-.43,1.79-.77,3.87-.77h29.8c2.09,0,3.77.34,3.77.77l-.08,7.71C451.22,455.57,449.47,455.94,447.33,455.94Z"/></g></g><g id="Grupo_1556" data-name="Grupo 1556"><g id="Grupo_1555" data-name="Grupo 1555"><path id="Trazado_2271" data-name="Trazado 2271" class="cls-2" d="M546.78,455.94h-30.7c-2.15,0-4-.37-4-.82l-1.41-7.71c-.08-.43,1.55-.77,3.63-.77h29.8c2.08,0,3.87.34,4,.77l2.36,7.71C550.55,455.57,548.92,455.94,546.78,455.94Z"/></g></g><g id="Grupo_1558" data-name="Grupo 1558"><g id="Grupo_1557" data-name="Grupo 1557"><path id="Trazado_2272" data-name="Trazado 2272" class="cls-2" d="M596.5,455.94H565.8c-2.14,0-4-.37-4.16-.82L559,447.41c-.15-.43,1.42-.77,3.5-.77h29.8c2.09,0,3.93.34,4.13.77l3.58,7.71C600.22,455.57,598.65,455.94,596.5,455.94Z"/></g></g><g id="Grupo_1560" data-name="Grupo 1560"><g id="Grupo_1559" data-name="Grupo 1559"><path id="Trazado_2273" data-name="Trazado 2273" class="cls-2" d="M646.23,455.94h-30.7c-2.15,0-4.07-.37-4.3-.82l-3.84-7.71c-.22-.43,1.3-.77,3.38-.77h29.8c2.08,0,4,.34,4.25.77l4.79,7.71C649.88,455.57,648.37,455.94,646.23,455.94Z"/></g></g><g id="Grupo_1562" data-name="Grupo 1562"><g id="Grupo_1561" data-name="Grupo 1561"><path id="Trazado_2274" data-name="Trazado 2274" class="cls-2" d="M696,455.94h-30.7c-2.15,0-4.13-.37-4.42-.82l-5.07-7.71c-.28-.43,1.18-.77,3.26-.77h29.8c2.09,0,4,.34,4.38.77l6,7.71C699.55,455.57,698.1,455.94,696,455.94Z"/></g></g></g><g id="Grupo_1590" data-name="Grupo 1590"><g id="Grupo_1565" data-name="Grupo 1565"><g id="Grupo_1564" data-name="Grupo 1564"><path id="Trazado_2275" data-name="Trazado 2275" class="cls-2" d="M245.77,433h-27.2c-2,0-3.34-.32-3-.7l2.2-2.68c.31-.38,2.16-.69,4.12-.69h26.82c2,0,3.34.31,3.07.69l-1.88,2.68C249.59,432.66,247.76,433,245.77,433Z"/></g></g><g id="Grupo_1567" data-name="Grupo 1567"><g id="Grupo_1566" data-name="Grupo 1566"><path id="Trazado_2276" data-name="Trazado 2276" class="cls-2" d="M201.3,433H174.1c-2,0-3.3-.32-2.92-.7l2.6-2.68c.37-.38,2.26-.69,4.22-.69h26.83c2,0,3.29.31,3,.69l-2.28,2.68C205.18,432.66,203.29,433,201.3,433Z"/></g></g><g id="Grupo_1569" data-name="Grupo 1569"><g id="Grupo_1568" data-name="Grupo 1568"><path id="Trazado_2277" data-name="Trazado 2277" class="cls-2" d="M290.24,433H263c-2,0-3.4-.32-3.14-.7l1.79-2.68c.25-.38,2.05-.69,4-.69h26.82c2,0,3.39.31,3.18.69l-1.47,2.68C294,432.66,292.23,433,290.24,433Z"/></g></g><g id="Grupo_1571" data-name="Grupo 1571"><g id="Grupo_1570" data-name="Grupo 1570"><path id="Trazado_2278" data-name="Trazado 2278" class="cls-2" d="M334.7,433H307.5c-2,0-3.44-.32-3.24-.7l1.38-2.68c.2-.38,1.94-.69,3.91-.69h26.82c2,0,3.43.31,3.28.69l-1.07,2.68C338.43,432.66,336.69,433,334.7,433Z"/></g></g><g id="Grupo_1573" data-name="Grupo 1573"><g id="Grupo_1572" data-name="Grupo 1572"><path id="Trazado_2279" data-name="Trazado 2279" class="cls-2" d="M423.63,433h-27.2c-2,0-3.53-.32-3.45-.7l.57-2.68c.08-.38,1.73-.69,3.7-.69h26.82c2,0,3.52.31,3.49.69l-.25,2.68C427.27,432.66,425.62,433,423.63,433Z"/></g></g><g id="Grupo_1575" data-name="Grupo 1575"><g id="Grupo_1574" data-name="Grupo 1574"><path id="Trazado_2280" data-name="Trazado 2280" class="cls-2" d="M379.17,433H352c-2,0-3.49-.32-3.35-.7l1-2.68c.14-.38,1.84-.69,3.8-.69h26.83c2,0,3.47.31,3.38.69l-.66,2.68C382.84,432.66,381.16,433,379.17,433Z"/></g></g><g id="Grupo_1577" data-name="Grupo 1577"><g id="Grupo_1576" data-name="Grupo 1576"><path id="Trazado_2281" data-name="Trazado 2281" class="cls-2" d="M468.1,433H440.9c-2,0-3.59-.32-3.56-.7l.16-2.68c0-.38,1.63-.69,3.59-.69h26.82c2,0,3.57.31,3.59.69l.16,2.68C471.68,432.66,470.09,433,468.1,433Z"/></g></g><g id="Grupo_1579" data-name="Grupo 1579"><g id="Grupo_1578" data-name="Grupo 1578"><path id="Trazado_2282" data-name="Trazado 2282" class="cls-2" d="M512.57,433h-27.2c-2,0-3.63-.32-3.67-.7l-.25-2.68c0-.38,1.53-.69,3.49-.69h26.82c2,0,3.62.31,3.7.69l.57,2.68C516.1,432.66,514.56,433,512.57,433Z"/></g></g><g id="Grupo_1581" data-name="Grupo 1581"><g id="Grupo_1580" data-name="Grupo 1580"><path id="Trazado_2283" data-name="Trazado 2283" class="cls-2" d="M557,433h-27.2c-2,0-3.68-.32-3.78-.7l-.66-2.68c-.09-.38,1.43-.69,3.39-.69h26.82c2,0,3.66.31,3.8.69l1,2.68C560.52,432.66,559,433,557,433Z"/></g></g><g id="Grupo_1583" data-name="Grupo 1583"><g id="Grupo_1582" data-name="Grupo 1582"><path id="Trazado_2284" data-name="Trazado 2284" class="cls-2" d="M601.5,433H574.3c-2,0-3.73-.32-3.88-.7l-1.07-2.68c-.15-.38,1.32-.69,3.28-.69h26.82c2,0,3.71.31,3.91.69l1.38,2.68C604.94,432.66,603.49,433,601.5,433Z"/></g></g><g id="Grupo_1585" data-name="Grupo 1585"><g id="Grupo_1584" data-name="Grupo 1584"><path id="Trazado_2285" data-name="Trazado 2285" class="cls-2" d="M646,433h-27.2c-2,0-3.77-.32-4-.7l-1.48-2.68c-.2-.38,1.22-.69,3.18-.69H643.3c2,0,3.76.31,4,.69l1.79,2.68C649.36,432.66,648,433,646,433Z"/></g></g><g id="Grupo_1587" data-name="Grupo 1587"><g id="Grupo_1586" data-name="Grupo 1586"><path id="Trazado_2286" data-name="Trazado 2286" class="cls-2" d="M690.43,433h-27.2c-2,0-3.82-.32-4.1-.7l-1.88-2.68c-.26-.38,1.11-.69,3.08-.69h26.82c2,0,3.8.31,4.11.69l2.2,2.67C693.77,432.66,692.42,433,690.43,433Z"/></g></g><g id="Grupo_1589" data-name="Grupo 1589"><g id="Grupo_1588" data-name="Grupo 1588"><path id="Trazado_2287" data-name="Trazado 2287" class="cls-2" d="M734.9,433H707.7c-2,0-3.87-.32-4.2-.7l-2.29-2.68c-.33-.38,1-.68,3-.68H731c2,0,3.85.3,4.22.68l2.6,2.68C738.19,432.66,736.89,433,734.9,433Z"/></g></g></g><g id="Grupo_1592" data-name="Grupo 1592"><g id="Grupo_1591" data-name="Grupo 1591"><path id="Trazado_2288" data-name="Trazado 2288" class="cls-2" d="M727.65,446.64H707.28c-2.08,0-3.44.41-3,.91l6,7.42c.44.53,2.53,1,4.67,1h42c2.15,0,3.47-.44,2.95-1l-7.22-7.42c-.49-.5-2.58-.91-4.66-.91Z"/></g></g><g id="Grupo_1618" data-name="Grupo 1618"><g id="Grupo_1594" data-name="Grupo 1594"><g id="Grupo_1593" data-name="Grupo 1593"><path id="Trazado_2289" data-name="Trazado 2289" class="cls-2" d="M193.58,435.4H171.77c-2,0-4,.38-4.45.85l-6.69,6.88c-.48.49.8.89,2.87.89h33.67c2.06,0,4.07-.4,4.48-.89l5.76-6.88c.39-.47-.92-.85-2.92-.85Z"/></g></g><g id="Grupo_1615" data-name="Grupo 1615"><g id="Grupo_1596" data-name="Grupo 1596"><g id="Grupo_1595" data-name="Grupo 1595"><path id="Trazado_2290" data-name="Trazado 2290" class="cls-2" d="M292.85,444H263.31c-2.06,0-3.52-.34-3.25-.75l4.6-7.15c.25-.4,2.09-.72,4.09-.72h28.7c2,0,3.47.33,3.26.72L297,443.27C296.77,443.68,294.92,444,292.85,444Z"/></g></g><g id="Grupo_1598" data-name="Grupo 1598"><g id="Grupo_1597" data-name="Grupo 1597"><path id="Trazado_2291" data-name="Trazado 2291" class="cls-2" d="M245,444H215.47c-2.07,0-3.47-.34-3.14-.75l5.73-7.15c.32-.4,2.2-.72,4.21-.72H251c2,0,3.41.33,3.14.72l-4.85,7.15C249,443.68,247.07,444,245,444Z"/></g></g><g id="Grupo_1600" data-name="Grupo 1600"><g id="Grupo_1599" data-name="Grupo 1599"><path id="Trazado_2292" data-name="Trazado 2292" class="cls-2" d="M340.7,444H311.15c-2.06,0-3.57-.34-3.37-.75l3.47-7.15c.19-.4,2-.72,4-.72h28.7c2,0,3.52.33,3.37.72l-2.6,7.15C344.56,443.68,342.76,444,340.7,444Z"/></g></g><g id="Grupo_1602" data-name="Grupo 1602"><g id="Grupo_1601" data-name="Grupo 1601"><path id="Trazado_2293" data-name="Trazado 2293" class="cls-2" d="M388.54,444H359c-2.06,0-3.62-.34-3.49-.75l2.34-7.15c.13-.4,1.87-.72,3.87-.72h28.7c2,0,3.57.33,3.49.72l-1.47,7.15C392.35,443.68,390.6,444,388.54,444Z"/></g></g><g id="Grupo_1604" data-name="Grupo 1604"><g id="Grupo_1603" data-name="Grupo 1603"><path id="Trazado_2294" data-name="Trazado 2294" class="cls-2" d="M484.23,444H454.68c-2.06,0-3.73-.34-3.73-.75l.09-7.15c0-.4,1.63-.72,3.64-.72h28.7c2,0,3.67.33,3.71.72l.79,7.15C487.93,443.68,486.29,444,484.23,444Z"/></g></g><g id="Grupo_1606" data-name="Grupo 1606"><g id="Grupo_1605" data-name="Grupo 1605"><path id="Trazado_2295" data-name="Trazado 2295" class="cls-2" d="M436.38,444H406.84c-2.06,0-3.68-.34-3.61-.75l1.21-7.15c.07-.4,1.75-.72,3.76-.72h28.7c2,0,3.61.33,3.6.72l-.34,7.15C440.14,443.68,438.45,444,436.38,444Z"/></g></g><g id="Grupo_1608" data-name="Grupo 1608"><g id="Grupo_1607" data-name="Grupo 1607"><path id="Trazado_2296" data-name="Trazado 2296" class="cls-2" d="M532.07,444H502.53c-2.07,0-3.79-.34-3.85-.75l-1.05-7.15c-.05-.4,1.53-.72,3.53-.72h28.7c2,0,3.72.33,3.83.72l1.91,7.15C535.72,443.68,534.13,444,532.07,444Z"/></g></g><g id="Grupo_1610" data-name="Grupo 1610"><g id="Grupo_1609" data-name="Grupo 1609"><path id="Trazado_2297" data-name="Trazado 2297" class="cls-2" d="M579.92,444H550.37c-2.06,0-3.84-.34-4-.75l-2.17-7.15c-.12-.4,1.41-.72,3.41-.72h28.7c2,0,3.77.33,3.94.72l3.05,7.15C583.51,443.68,582,444,579.92,444Z"/></g></g><g id="Grupo_1612" data-name="Grupo 1612"><g id="Grupo_1611" data-name="Grupo 1611"><path id="Trazado_2298" data-name="Trazado 2298" class="cls-2" d="M627.76,444H598.21c-2.06,0-3.89-.34-4.08-.75l-3.3-7.15c-.19-.4,1.3-.72,3.3-.72h28.7c2,0,3.82.33,4,.72l4.17,7.15C631.3,443.68,629.82,444,627.76,444Z"/></g></g><g id="Grupo_1614" data-name="Grupo 1614"><g id="Grupo_1613" data-name="Grupo 1613"><path id="Trazado_2299" data-name="Trazado 2299" class="cls-2" d="M675.6,444H646.06c-2.07,0-3.95-.34-4.21-.75l-4.43-7.15c-.24-.4,1.18-.72,3.19-.72h28.7c2,0,3.87.33,4.16.72l5.3,7.15C679.09,443.68,677.67,444,675.6,444Z"/></g></g></g><g id="Grupo_1617" data-name="Grupo 1617"><g id="Grupo_1616" data-name="Grupo 1616"><path id="Trazado_2300" data-name="Trazado 2300" class="cls-2" d="M706.71,435.4H687.09c-2,0-3.34.38-3,.85l5.35,6.88c.38.49,2.37.89,4.43.89h51.61c2.06,0,3.35-.4,2.87-.89l-6.69-6.88c-.46-.47-2.46-.85-4.46-.85Z"/></g></g></g><g id="Grupo_1620" data-name="Grupo 1620"><g id="Grupo_1619" data-name="Grupo 1619"><path id="Trazado_2301" data-name="Trazado 2301" class="cls-2" d="M579.1,482.82H329.9c-2.33,0-4.06-.43-3.86-1l3.42-9.06c.19-.5,2.17-.9,4.42-.9H575.12c2.25,0,4.23.4,4.42.9l3.42,9.06C583.16,482.39,581.43,482.82,579.1,482.82Z"/></g></g></g></g></g></g></svg>