<svg id="Capa_1" data-name="Capa 1" xmlns="http://www.w3.org/2000/svg" viewBox="0 0 114.24 69.37"><defs><style>.cls-1{fill:#f28e1c;}.cls-2{fill:#fefefd;}.cls-3{fill:#1b1b1a;}</style></defs><path id="Trazado_1901" data-name="Trazado 1901" class="cls-1" d="M52.37,0h5.08c.17.3.46.19.69.2A31,31,0,0,1,65,1.45a34.32,34.32,0,0,1,20.36,16c.29.49.5.83,1.24.76a25.74,25.74,0,0,1,27.06,20,12,12,0,0,0,.62,2.84v5.53c-.33.13-.21.44-.25.66A25.75,25.75,0,0,1,93.55,68.81a10.77,10.77,0,0,0-2.74.56H19.89c-.12-.34-.43-.23-.66-.25C9.7,67.52,2.7,61.1.53,52A5.16,5.16,0,0,0,0,49.92V44.41a13.16,13.16,0,0,0,.78-3A22.27,22.27,0,0,1,20.29,25.16c.71-.07,1.43.05,1.79-1,4.3-12.52,13-20.23,25.81-23.34C49.37.45,50.92.5,52.37,0Zm3.09,65.83v0H87.61a25.5,25.5,0,0,0,5.91-.59,22.13,22.13,0,0,0,16.73-26.17C108,28.07,96.9,20.17,85.81,21.76c-1.72.25-2.07.07-2.89-1.49A31.31,31.31,0,0,0,40.67,7l-.9.49A30.45,30.45,0,0,0,24.94,26.59c-.43,1.54-.87,1.88-2.49,1.9a20.51,20.51,0,0,0-3.83.42A18.61,18.61,0,0,0,22,65.81c11.16.12,22.32,0,33.47,0Z"/><path id="Trazado_1902" data-name="Trazado 1902" class="cls-2" d="M55.46,65.83c-11.15,0-22.32.1-33.47,0a18.61,18.61,0,0,1-3.37-36.89,19.71,19.71,0,0,1,3.83-.43c1.63,0,2.06-.36,2.49-1.9A30.43,30.43,0,0,1,39.78,7.52,31.32,31.32,0,0,1,82.44,19.39l.48.89c.82,1.54,1.17,1.73,2.89,1.48C96.9,20.17,108,28.08,110.25,39.1A22.12,22.12,0,0,1,93.52,65.26a25.5,25.5,0,0,1-5.91.59H55.46ZM53.64,38.09c0-1.52-1.11-1-1.83-1-.87,0-.53.73-.54,1.16,0,2.5,0,5,0,7.52,0,1.16.7.84,1.3.88s1.22.09,1.17-.92c-.08-1.69,0-3.38,0-5.08,0-.78.24-1.55,1.21-1.52s1,.81,1,1.54c0,1.62.06,3.25,0,4.87-.06,1,.33,1.13,1.2,1.14s1.32-.13,1.24-1.19c-.1-1.58,0-3.16,0-4.75,0-.83.29-1.6,1.29-1.59s1,.85,1,1.55c0,1.44,0,2.87,0,4.31,0,1.81,0,1.79,1.77,1.65.45,0,.66-.17.65-.65,0-2.32,0-4.64,0-7a2.26,2.26,0,0,0-2.12-2.17,2.67,2.67,0,0,0-2.69,1.47c-1.48-1.91-2.68-2-4.54-.29Zm18.48,3.42V40a2.67,2.67,0,0,0-1.26-2.63,5,5,0,0,0-4.93.31,2.78,2.78,0,0,0-1,1.63c-.06.24-.07.42.16.57a2,2,0,0,0,2.17-.44A1.35,1.35,0,0,1,69,38.82c.66.26.6.85.61,1.4s-.5.39-.8.46a17.12,17.12,0,0,0-2.26.48,2.88,2.88,0,0,0-2,2.62,2.51,2.51,0,0,0,1.18,2.65,3,3,0,0,0,3.51-.24c.65-.5,1-.57,1.42.16.17.29.52.63.88.22s1.57-.83,1.2-1.44C72,43.93,72.19,42.73,72.12,41.51Zm-22.86.13c0-.64,0-1.19,0-1.74a2.51,2.51,0,0,0-1.51-2.69,4.92,4.92,0,0,0-4.36.22A2.92,2.92,0,0,0,42,39.12c-.08.22-.17.49.09.7a2,2,0,0,0,2.2-.36,1.33,1.33,0,0,1,1.78-.64l.09,0c.62.27.64.86.61,1.42s-.54.34-.84.41a21.42,21.42,0,0,0-2.25.48,2.76,2.76,0,0,0-2,2.52,2.56,2.56,0,0,0,1.15,2.77,3.05,3.05,0,0,0,3.43-.21c.65-.47,1-.62,1.51.14.2.31.56.59.88.18s1.58-.79,1.15-1.49c-.73-1.17-.51-2.34-.59-3.44Zm44-3.31a1.71,1.71,0,0,1-.13-.38c.09-1.37-.95-.74-1.54-.85-.79-.14-.76.43-.76,1,0,2.53.06,5.08,0,7.6,0,1,.5,1,1.21,1s1.34,0,1.27-1c-.1-1.43,0-2.87,0-4.3a3.1,3.1,0,0,1,.29-1.5,1.06,1.06,0,0,1,1.13-.71,1,1,0,0,1,.84.88,6.61,6.61,0,0,1,.12,1.09c0,1.47,0,2.94,0,4.4,0,.37-.25.94.22,1.08a3.79,3.79,0,0,0,2,0c.2,0,.23-.27.23-.46a67.67,67.67,0,0,0-.15-7.26A2.16,2.16,0,0,0,96.16,37a2.28,2.28,0,0,0-2.47.79l-.43.57Zm-3.72,3.6A5.8,5.8,0,0,0,89,39.09a3.59,3.59,0,0,0-3.41-2.18,3.41,3.41,0,0,0-3.31,2.14A6.39,6.39,0,0,0,82.39,45a3.61,3.61,0,0,0,6.26.24,5.31,5.31,0,0,0,.89-3.28Zm-12-2.88c-1.11,1.6-2.05,3-3.07,4.39A3.62,3.62,0,0,0,73.92,46c0,.44.24.57.66.38a6.53,6.53,0,0,1,5.55,0c.3.14.54.18.69-.22a1.61,1.61,0,0,0-.9-2.1l-.06,0a11.44,11.44,0,0,0-2.53-.49c.18-.27.31-.48.45-.68l2.6-3.7a1.85,1.85,0,0,0,.18-1.78c-.17-.44-.8-.21-1.21-.22-1.36,0-2.72,0-4.08,0-.69,0-1.06.08-1.06.93s.28,1.11,1.09,1.05c.65-.06,1.32,0,2.24,0ZM21.22,45.69c0-1.15,0-2.11,0-3.06,0-1.31.52-2.94-.21-3.85s-2.48-.9-3.76-1.32l-.1,0c-.5-.2-.74-.09-.74.51,0,1.88,0,3.76,0,5.62a.64.64,0,0,0,.53.71ZM46.37,27.2c0,1,0,2,0,2.93,0,1.31-.54,3,.22,3.84s2.38,1,3.62,1.4l.2.08c.46.21.67.1.67-.44,0-1.95,0-3.9,0-5.84a.69.69,0,0,0-.59-.76c-1.33-.37-2.66-.77-4.12-1.2Zm-7.23,4.89V30.54c0-1.94,0-1.95-1.9-2.5-.89-.25-2-1-2.57-.61s-.24,1.75-.25,2.67c0,1.31-.55,3,.21,3.84s2.43,1,3.7,1.44l.1,0c.52.25.72.09.7-.48C39.12,34,39.14,33,39.14,32.09ZM27.19,52c-.08-.92.47-2.38-.2-3.18s-2.07-.76-3.15-1.09a4.21,4.21,0,0,1-.63-.2c-.58-.26-.78-.08-.77.54,0,1.81,0,3.6,0,5.41a.82.82,0,0,0,.66,1c1.16.35,2.31.74,3.45,1.16.51.18.65,0,.63-.47,0-1,0-1.92,0-3.11ZM39.12,40.69h0c0-.92,0-1.84,0-2.75,0-.46-.08-.7-.62-.53-1.18.37-2.38.72-3.58,1.06-.44.12-.55.39-.54.81,0,1.91,0,3.81,0,5.72,0,.63.24.64.72.47,1.07-.37,2.13-.77,3.23-1.07a1,1,0,0,0,.81-1.11s0,0,0-.07c0-.85,0-1.69,0-2.54Zm-6,6.6c-1.47.44-2.84.84-4.21,1.23a.64.64,0,0,0-.52.72c0,1.94,0,3.89,0,5.84,0,.5.14.64.66.46,1.17-.43,2.36-.81,3.55-1.19a.66.66,0,0,0,.54-.7c0-2.1,0-4.18,0-6.37Zm-10.7-5.2c0,.92,0,1.83,0,2.75,0,.55.1.86.74.63,1.14-.4,2.29-.8,3.44-1.17a.69.69,0,0,0,.56-.78c0-1.88,0-3.75,0-5.62,0-.53-.18-.63-.66-.48a25.79,25.79,0,0,1-2.85.83,1.34,1.34,0,0,0-1.31,1.38,1.15,1.15,0,0,0,.06.37,16,16,0,0,1,0,2.08Zm10.72,3.6c0-2.25,0-4.3,0-6.35a.79.79,0,0,0-.67-.91h0q-1.65-.44-3.27-1c-.56-.19-.8-.13-.8.53,0,1.84,0,3.67,0,5.5a.74.74,0,0,0,.56.81c1.36.43,2.71.9,4.2,1.39Zm7.22-10c1.51-.5,2.89-1,4.28-1.42a.6.6,0,0,0,.44-.66V27.2c-1.48.45-2.84.86-4.2,1.24-.33.1-.5.23-.5.6,0,2.15,0,4.32,0,6.6Zm12-3.89c0,1.14,0,2.1,0,3,0,.61.06.9.78.61a28.86,28.86,0,0,1,3.14-1,1,1,0,0,0,.83-1.15v0c0-1.47,0-2.94,0-4.42s0-1.59-1.51-1.13c-1,.32-2.43.38-3,1.08s-.12,2.13-.2,3ZM43.53,53.17h-.18c-.29-1-.6-2-.86-3-.13-.52-.49-.5-.85-.44-.56.08-.29.47-.22.76.42,1.51.84,3,1.28,4.54.1.32.13.72.67.7s.55-.32.65-.7c.22-.93.51-1.85.76-2.77a16.93,16.93,0,0,1,1,2.74c.1.34.12.72.66.72s.58-.3.67-.68c.39-1.49.82-3,1.21-4.46.07-.28.35-.66-.12-.84s-.72.18-.83.6l-.85,3.1a18.74,18.74,0,0,1-.94-2.92c-.14-.37-.11-.82-.7-.82s-.54.53-.64.87c-.27.87-.47,1.76-.7,2.64Zm11.95-3.09V48.33c0-.4-.11-.63-.56-.61s-.55.16-.55.53v6.82c0,.35.36.54.48.35.52-.8.9-.1,1.3.07a2.05,2.05,0,0,0,2.6-1A4.12,4.12,0,0,0,59.19,52c-.22-2.12-1.75-3-3.7-1.93Zm10.59,2.6a2.78,2.78,0,0,0,1.72,2.88,2.42,2.42,0,0,0,2.72-.67c.22-.26.73-.59.3-1s-.76-.2-1.06.3a1.14,1.14,0,0,1-1.44.5,1.48,1.48,0,0,1-1-1.23c-.08-.47,0-.68.55-.66.88,0,1.77,0,2.65,0,.38,0,.61-.09.61-.55a2.66,2.66,0,0,0-1.87-2.58,2.45,2.45,0,0,0-2.93,1.55,3.31,3.31,0,0,0-.28,1.46Zm-14.33.13h1.43a.44.44,0,0,0,.51-.42,2.75,2.75,0,0,0-1.84-2.7,2.57,2.57,0,0,0-3.11,1.88,2.2,2.2,0,0,0-.06.37c-.36,1.71.54,3.44,1.95,3.68a2.37,2.37,0,0,0,2.17-.48c.35-.32,1-.72.56-1.23s-.88,0-1.18.42a.64.64,0,0,1-.24.22,1.2,1.2,0,0,1-1.52-.12,1.27,1.27,0,0,1-.5-1.37c.18-.51.77-.16,1.17-.24a3.64,3.64,0,0,1,.66,0Zm39,0c.37,0,.74,0,1.11,0s.84.19.9-.48a2.51,2.51,0,1,0-5-.36V52c-.22,1.8.5,3.29,1.83,3.57a2.39,2.39,0,0,0,2.67-.85c.16-.22.66-.54.14-.88a.56.56,0,0,0-.92.2,1.41,1.41,0,0,1-.64.59,1.23,1.23,0,0,1-1.42-.3,1.28,1.28,0,0,1-.47-1.28c.18-.54.76-.17,1.16-.25a3.51,3.51,0,0,1,.65,0Zm4.77,2.86c1.37,0,2.28-.61,2.38-1.61s-.5-1.66-1.91-2a8.3,8.3,0,0,1-1-.22c-.32-.1-.63-.31-.59-.69a.73.73,0,0,1,.67-.63,1.32,1.32,0,0,1,1.44.56c.25.38.61.26.87.09.44-.3,0-.6-.12-.82a2.43,2.43,0,0,0-2.62-.66,1.58,1.58,0,0,0-1.38,1.5,1.5,1.5,0,0,0,1.18,1.64c.52.17,1.07.25,1.6.39.37.1.71.3.68.74a.78.78,0,0,1-.73.72,1.5,1.5,0,0,1-1.74-.62.59.59,0,0,0-.77-.3.65.65,0,0,0-.15.1c-.48.31-.1.65.1.91a2.43,2.43,0,0,0,2,.86Zm-32.29,0c1.33,0,2.17-.57,2.3-1.58s-.46-1.68-1.86-2l-.86-.18c-.39-.09-.72-.24-.69-.71s.42-.63.85-.66a1.23,1.23,0,0,1,1.23.57.57.57,0,0,0,.8.16l.08-.06c.39-.28.09-.59-.11-.83a2.45,2.45,0,0,0-2.63-.66A1.53,1.53,0,0,0,61,51.24a1.5,1.5,0,0,0,1.18,1.64c.52.16,1.07.24,1.6.38.33.09.61.27.62.67a.75.75,0,0,1-.66.76A1.48,1.48,0,0,1,62,54.12a.61.61,0,0,0-.81-.33.82.82,0,0,0-.2.12c-.42.34,0,.67.21.92a2.36,2.36,0,0,0,2.06.84ZM77.89,54c-.48-1.51-.87-2.69-1.24-3.87a.72.72,0,0,0-.86-.55.44.44,0,0,0-.19.07c-.52.17-.18.54-.09.82.5,1.53,1,3,1.53,4.59a.77.77,0,0,0,.86.64c.48,0,.61-.33.72-.67l1.44-4.5c.1-.31.47-.72-.12-.9s-.72.15-.85.62c-.35,1.14-.73,2.29-1.2,3.75Zm5.83-1.35a4.78,4.78,0,0,1,.08-.76c.16-.57.35-1.16,1-1.28s1.05.38,1.26,1c.15.44.5.42.8.32s.22-.49.13-.74a2,2,0,0,0-1.51-1.43,2.15,2.15,0,0,0-2.2.66,4,4,0,0,0,0,4.52,2.12,2.12,0,0,0,2.17.73,2,2,0,0,0,1.6-1.5c.08-.22.27-.54-.07-.66s-.67-.2-.86.22c-.07.13-.12.27-.18.4a1,1,0,0,1-1,.66A1.07,1.07,0,0,1,84,54a3.34,3.34,0,0,1-.3-1.39ZM55.83,26.4C52,25,50.23,25,47.74,26.44A8.59,8.59,0,0,0,55.83,26.4ZM23.77,46.53a8.66,8.66,0,0,0,8,0A7.66,7.66,0,0,0,23.77,46.53Zm12-20.08a8.67,8.67,0,0,0,8,0A7.58,7.58,0,0,0,35.76,26.45Zm-6,10a8.5,8.5,0,0,0,8,0A7.52,7.52,0,0,0,29.8,36.49Zm-11.93,0a8.65,8.65,0,0,0,8,0,7.5,7.5,0,0,0-8,0ZM72.51,49.86c-.5,0-.69.12-.69.56,0,1.55,0,3.08,0,4.62,0,.39.11.6.56.63s.56-.32.55-.71c0-.77,0-1.55,0-2.31s.3-1.68,1.32-1.89c.44-.09.52-.37.46-.72s-.48-.34-.78-.32C73.44,49.75,73,50.82,72.51,49.86Zm9.42,2.84V50.17c0-.39-.13-.63-.56-.64s-.66.17-.66.64c0,1.61,0,3.23,0,4.84,0,.44.11.66.62.66s.62-.22.61-.66c0-.77,0-1.54,0-2.31ZM82,48.09a.62.62,0,0,0-.64-.62h-.11a.6.6,0,0,0-.59.62v0a.62.62,0,0,0,.57.67h.13c.45,0,.65-.27.65-.71Z"/><path id="Trazado_1903" data-name="Trazado 1903" class="cls-3" d="M53.64,38.09c1.85-1.7,3.06-1.62,4.54.29a2.62,2.62,0,0,1,2.68-1.46A2.22,2.22,0,0,1,63,39.08c.06,2.32,0,4.65,0,7,0,.49-.19.61-.65.65-1.77.14-1.77.16-1.77-1.65,0-1.43,0-2.87,0-4.31,0-.7,0-1.52-1-1.54s-1.27.75-1.29,1.58c0,1.59-.1,3.17,0,4.75.07,1.06-.35,1.19-1.25,1.19s-1.25-.17-1.2-1.14c.08-1.62,0-3.24,0-4.87,0-.73-.09-1.51-1-1.54s-1.19.74-1.21,1.52c0,1.69-.08,3.39,0,5.08.05,1-.51,1-1.16.92s-1.34.28-1.3-.88c.07-2.5,0-5,0-7.52,0-.43-.33-1.18.54-1.16S53.65,36.57,53.64,38.09Z"/><path id="Trazado_1904" data-name="Trazado 1904" class="cls-3" d="M72.12,41.5c.07,1.23-.11,2.44.62,3.63.36.61-.77.95-1.2,1.44s-.72.07-.89-.22c-.44-.73-.77-.67-1.41-.16a3.06,3.06,0,0,1-3.52.24,2.54,2.54,0,0,1-1.18-2.65,2.88,2.88,0,0,1,2-2.62,22.16,22.16,0,0,1,2.26-.48c.3-.07.81.17.8-.46s0-1.14-.61-1.4a1.36,1.36,0,0,0-1.81.58,2,2,0,0,1-2.17.44c-.22-.15-.22-.33-.16-.57a2.9,2.9,0,0,1,1-1.64,5,5,0,0,1,4.93-.3A2.69,2.69,0,0,1,72.13,40C72.12,40.47,72.12,41,72.12,41.5Zm-2.48,1.43c-.15-.28.33-1-.5-.88a2.55,2.55,0,0,0-1.53.52,1.65,1.65,0,0,0-.4,1.83.86.86,0,0,0,.91.66,1.48,1.48,0,0,0,1.31-1A3.59,3.59,0,0,0,69.64,42.93Z"/><path id="Trazado_1905" data-name="Trazado 1905" class="cls-3" d="M49.26,41.64c.08,1.1-.13,2.27.59,3.43.44.7-.73,1-1.14,1.49s-.7.13-.89-.18c-.47-.76-.86-.61-1.5-.14a3.05,3.05,0,0,1-3.43.21,2.55,2.55,0,0,1-1.16-2.77,2.79,2.79,0,0,1,2-2.52A21.42,21.42,0,0,1,46,40.68c.3-.07.83.2.85-.41s0-1.15-.61-1.42a1.34,1.34,0,0,0-1.83.51l-.05.09a2,2,0,0,1-2.2.36c-.26-.21-.17-.47-.09-.7a3,3,0,0,1,1.35-1.69,4.92,4.92,0,0,1,4.36-.22,2.53,2.53,0,0,1,1.51,2.69C49.25,40.45,49.26,41,49.26,41.64Zm-2.43,1.17c-.08-.26.2-.67-.31-.79a2.26,2.26,0,0,0-2.18,1.16,1.26,1.26,0,0,0,.47,1.72h0c.72.42,1.23,0,1.63-.63a2.83,2.83,0,0,0,.38-1.47Z"/><path id="Trazado_1906" data-name="Trazado 1906" class="cls-3" d="M93.26,38.33c.17-.22.29-.4.42-.56A2.25,2.25,0,0,1,96.15,37a2.15,2.15,0,0,1,1.75,1.9,67.61,67.61,0,0,1,.15,7.26c0,.18,0,.42-.22.46a3.83,3.83,0,0,1-2,0c-.47-.15-.22-.71-.22-1.08,0-1.47,0-2.94,0-4.4A6.61,6.61,0,0,0,95.51,40a.94.94,0,0,0-.84-.88,1.06,1.06,0,0,0-1.13.71,3.1,3.1,0,0,0-.29,1.5c0,1.43-.07,2.87,0,4.3.07,1.09-.51,1.06-1.27,1.05s-1.25,0-1.21-1c.08-2.53,0-5.07,0-7.6,0-.55,0-1.11.76-1,.59.1,1.62-.52,1.54.84A1.42,1.42,0,0,0,93.26,38.33Z"/><path id="Trazado_1907" data-name="Trazado 1907" class="cls-3" d="M89.54,41.92a5.44,5.44,0,0,1-.89,3.28,3.6,3.6,0,0,1-5,1.16A3.52,3.52,0,0,1,82.39,45,6.44,6.44,0,0,1,82.24,39a3.43,3.43,0,0,1,3.32-2.14A3.6,3.6,0,0,1,89,39.09a5.87,5.87,0,0,1,.57,2.83ZM87,41.64c-.05-.43-.13-1.2-.28-2a1.06,1.06,0,0,0-1.08-.92,1.09,1.09,0,0,0-1.16.83,7.84,7.84,0,0,0,.05,4.55,1.09,1.09,0,0,0,1,.89,1.15,1.15,0,0,0,1.14-.89A7.87,7.87,0,0,0,87,41.64Z"/><path id="Trazado_1908" data-name="Trazado 1908" class="cls-3" d="M77.53,39c-.92,0-1.58,0-2.24,0s-1.08-.2-1.08-1,.36-1,1.05-.93c1.36,0,2.73,0,4.08,0,.42,0,1-.24,1.22.22a1.85,1.85,0,0,1-.19,1.79c-.88,1.22-1.73,2.46-2.59,3.69l-.46.69a10.88,10.88,0,0,1,2.53.48,1.62,1.62,0,0,1,1,2.07.14.14,0,0,1,0,.06c-.15.4-.38.36-.69.22a6.51,6.51,0,0,0-5.54,0c-.43.19-.65.06-.67-.38a3.63,3.63,0,0,1,.55-2.51C75.48,42.07,76.42,40.63,77.53,39Z"/><path id="Trazado_1909" data-name="Trazado 1909" class="cls-1" d="M21.21,45.69c-1.52-.51-2.9-1-4.29-1.43a.62.62,0,0,1-.52-.7c0-1.88,0-3.76,0-5.63,0-.6.24-.71.74-.5l.1,0c1.29.42,3,.37,3.75,1.32s.17,2.54.21,3.85C21.23,43.58,21.21,44.54,21.21,45.69Z"/><path id="Trazado_1910" data-name="Trazado 1910" class="cls-1" d="M46.37,27.2c1.46.43,2.79.84,4.13,1.21a.67.67,0,0,1,.59.74v0c0,1.94,0,3.89,0,5.83,0,.54-.2.65-.67.45l-.2-.08c-1.24-.44-2.88-.53-3.62-1.4s-.18-2.53-.22-3.84C46.34,29.18,46.37,28.24,46.37,27.2Z"/><path id="Trazado_1911" data-name="Trazado 1911" class="cls-1" d="M39.14,32.09c0,.95,0,1.9,0,2.86,0,.57-.18.73-.7.48l-.1,0c-1.27-.44-2.93-.56-3.7-1.44s-.22-2.53-.21-3.84c0-.92-.46-2.19.24-2.67s1.7.36,2.58.61c1.9.55,1.9.56,1.9,2.5C39.14,31.06,39.14,31.57,39.14,32.09Z"/><path id="Trazado_1912" data-name="Trazado 1912" class="cls-1" d="M27.19,52c0,1.2,0,2.15,0,3.1,0,.5-.12.67-.64.48-1.14-.42-2.28-.81-3.44-1.16a.82.82,0,0,1-.66-1q0-2.7,0-5.4c0-.62.18-.8.76-.54.21.08.42.14.63.2,1.08.33,2.53.36,3.15,1.09S27.11,51,27.19,52Z"/><path id="Trazado_1913" data-name="Trazado 1913" class="cls-1" d="M39.14,40.68c0,.84,0,1.69,0,2.53a1,1,0,0,1-.72,1.17l-.08,0c-1.09.3-2.16.7-3.23,1.07-.48.17-.73.16-.72-.48,0-1.9,0-3.81,0-5.71,0-.42.11-.69.55-.81,1.2-.34,2.39-.7,3.58-1.07.54-.17.62.08.62.53,0,.92,0,1.84,0,2.75Z"/><path id="Trazado_1914" data-name="Trazado 1914" class="cls-1" d="M33.16,47.28v6.36a.66.66,0,0,1-.54.7c-1.19.38-2.38.76-3.55,1.19-.51.18-.66,0-.66-.46,0-2,0-3.9,0-5.84a.65.65,0,0,1,.52-.72C30.32,48.13,31.68,47.72,33.16,47.28Z"/><path id="Trazado_1915" data-name="Trazado 1915" class="cls-1" d="M22.46,42.08a16.21,16.21,0,0,0,0-2.09,1.35,1.35,0,0,1,.89-1.69l.36-.06a25.13,25.13,0,0,0,2.85-.82c.47-.15.66-.06.66.48,0,1.87,0,3.74,0,5.61a.69.69,0,0,1-.56.79c-1.15.37-2.3.76-3.44,1.17-.64.22-.75-.08-.74-.63C22.47,43.92,22.46,43,22.46,42.08Z"/><path id="Trazado_1916" data-name="Trazado 1916" class="cls-1" d="M33.17,45.69c-1.49-.5-2.84-.95-4.2-1.39a.7.7,0,0,1-.55-.8c0-1.84,0-3.67,0-5.5,0-.67.23-.72.8-.54,1.07.36,2.16.68,3.26,1a.79.79,0,0,1,.71.87v0C33.15,41.39,33.17,43.44,33.17,45.69Z"/><path id="Trazado_1917" data-name="Trazado 1917" class="cls-1" d="M40.39,35.64V29c0-.36.18-.5.5-.59,1.37-.39,2.73-.8,4.2-1.24v6.36a.6.6,0,0,1-.44.66Z"/><path id="Trazado_1918" data-name="Trazado 1918" class="cls-1" d="M52.34,31.75c.07-.91-.44-2.3.18-3s2-.76,3-1.08c1.51-.46,1.51-.44,1.51,1.13s0,2.94,0,4.42a1,1,0,0,1-.78,1.18h0a28.69,28.69,0,0,0-3.13,1c-.72.29-.8,0-.78-.61C52.36,33.85,52.34,32.89,52.34,31.75Z"/><path id="Trazado_1919" data-name="Trazado 1919" class="cls-3" d="M43.53,53.17c.22-.88.43-1.77.69-2.64.1-.34,0-.86.65-.87s.56.45.69.82a19.49,19.49,0,0,0,.94,2.92c.31-1.14.58-2.11.85-3.09.12-.43.34-.79.84-.6s.19.56.11.84c-.39,1.48-.82,3-1.21,4.45-.1.38-.16.69-.66.69s-.56-.39-.66-.73a19.41,19.41,0,0,0-1-2.74c-.26.92-.54,1.84-.77,2.77-.1.38-.13.68-.65.7s-.58-.37-.66-.7c-.44-1.51-.86-3-1.28-4.54-.08-.29-.35-.68.22-.76.35-.06.71-.08.84.44.26,1,.57,2,.86,3Z"/><path id="Trazado_1920" data-name="Trazado 1920" class="cls-3" d="M55.49,50.08c2-1,3.5-.19,3.72,1.93a4,4,0,0,1-.43,2.46,2,2,0,0,1-2.6,1c-.4-.16-.79-.86-1.3-.06-.12.19-.48,0-.48-.36V48.25c0-.37.19-.51.55-.53s.57.21.56.61C55.47,48.88,55.49,49.43,55.49,50.08Zm2.59,2.62c0-1.31-.53-2.26-1.28-2.24s-1.31.91-1.3,2.22.53,2.08,1.32,2.06,1.23-.86,1.25-2Z"/><path id="Trazado_1921" data-name="Trazado 1921" class="cls-3" d="M66.07,52.68a3.24,3.24,0,0,1,.27-1.44,2.45,2.45,0,0,1,2.93-1.54,2.64,2.64,0,0,1,1.87,2.57c0,.47-.22.55-.61.55-.88,0-1.77,0-2.65,0-.52,0-.62.18-.55.66a1.48,1.48,0,0,0,1,1.23,1.13,1.13,0,0,0,1.44-.5c.3-.49.66-.66,1.06-.29s-.07.73-.3,1a2.46,2.46,0,0,1-2.72.66A2.82,2.82,0,0,1,66.07,52.68ZM68.61,52c.38-.28,1.14.34,1.22-.44a1,1,0,0,0-1-1.08h-.18a1.13,1.13,0,0,0-1.24,1s0,.08,0,.12c0,.74.79.13,1.16.39Z"/><path id="Trazado_1922" data-name="Trazado 1922" class="cls-3" d="M51.74,52.81a3.75,3.75,0,0,0-.67,0c-.4.07-1-.27-1.16.24a1.28,1.28,0,0,0,.49,1.37,1.22,1.22,0,0,0,1.53.12,1,1,0,0,0,.24-.22c.3-.46.71-1,1.18-.43s-.22.91-.56,1.24a2.45,2.45,0,0,1-2.18.48c-1.4-.25-2.31-2-1.94-3.69a2.58,2.58,0,0,1,2.82-2.31,2.14,2.14,0,0,1,.35.06,2.76,2.76,0,0,1,1.84,2.7c0,.34-.22.42-.51.42ZM51.2,52c.39-.27,1.11.32,1.19-.37s-.44-1.17-1.2-1.15a1.11,1.11,0,0,0-1.19,1v0c0,.8.82.14,1.19.44Z"/><path id="Trazado_1923" data-name="Trazado 1923" class="cls-3" d="M90.73,52.82a3.75,3.75,0,0,0-.67,0c-.4.08-1-.29-1.16.25a1.31,1.31,0,0,0,.48,1.29,1.21,1.21,0,0,0,1.41.29,1.36,1.36,0,0,0,.64-.59.57.57,0,0,1,.74-.32.55.55,0,0,1,.19.12c.53.36,0,.66-.14.88a2.42,2.42,0,0,1-2.67.86c-1.33-.29-2.07-1.78-1.84-3.58a2.51,2.51,0,0,1,5,.24v.06c0,.66-.54.45-.9.48S91.09,52.82,90.73,52.82Zm-1.8-1s.06.12.22.13q1,0,2.1,0c.25,0,.26-.22.21-.41a1.18,1.18,0,0,0-1.24-1c-.71,0-1,.49-1.29,1.3Z"/><path id="Trazado_1924" data-name="Trazado 1924" class="cls-3" d="M95.5,55.67a2.35,2.35,0,0,1-2-.86c-.2-.26-.59-.6-.1-.91a.57.57,0,0,1,.82.05l.1.15a1.49,1.49,0,0,0,1.74.62.79.79,0,0,0,.72-.72c0-.42-.3-.64-.68-.74-.53-.14-1.07-.22-1.6-.38a1.5,1.5,0,0,1-1.17-1.64,1.58,1.58,0,0,1,1.37-1.51,2.47,2.47,0,0,1,2.62.66c.18.23.56.52.12.82a.56.56,0,0,1-.87-.09,1.34,1.34,0,0,0-1.44-.56.72.72,0,0,0-.66.63c-.05.38.24.6.58.69s.65.15,1,.23c1.41.29,2,.91,1.91,2S96.87,55.68,95.5,55.67Z"/><path id="Trazado_1925" data-name="Trazado 1925" class="cls-3" d="M63.21,55.67a2.42,2.42,0,0,1-2.07-.82c-.2-.26-.63-.59-.2-.92a.62.62,0,0,1,.87,0,.6.6,0,0,1,.14.21,1.48,1.48,0,0,0,1.75.57.75.75,0,0,0,.66-.77c0-.4-.28-.58-.61-.66-.53-.14-1.08-.22-1.6-.39A1.49,1.49,0,0,1,61,51.26a1.54,1.54,0,0,1,1.34-1.52,2.48,2.48,0,0,1,2.63.66c.2.24.5.55.12.83a.58.58,0,0,1-.82,0,.27.27,0,0,1-.07-.08A1.24,1.24,0,0,0,63,50.56c-.44,0-.82.15-.85.66s.29.63.68.71l.86.19c1.41.29,2,.93,1.87,2S64.55,55.67,63.21,55.67Z"/><path id="Trazado_1926" data-name="Trazado 1926" class="cls-3" d="M77.89,54c.47-1.46.85-2.6,1.2-3.76.14-.46.37-.76.85-.61s.22.58.12.9q-.7,2.25-1.44,4.5c-.11.34-.21.67-.72.66A.76.76,0,0,1,77,55c-.48-1.55-1-3.06-1.53-4.59-.09-.28-.44-.65.09-.82a.72.72,0,0,1,1,.3.75.75,0,0,1,.07.18C77,51.29,77.4,52.47,77.89,54Z"/><path id="Trazado_1927" data-name="Trazado 1927" class="cls-3" d="M83.71,52.63A3.31,3.31,0,0,0,84,54a1,1,0,0,0,.9.72,1,1,0,0,0,1-.66c.06-.14.11-.27.17-.4.2-.41.58-.31.86-.22s.15.44.08.66a2,2,0,0,1-1.6,1.5,2.15,2.15,0,0,1-2.18-.73,4,4,0,0,1,.06-4.52,2.09,2.09,0,0,1,2.19-.66,2,2,0,0,1,1.52,1.42c.08.26.28.61-.14.74s-.65.13-.8-.31c-.2-.59-.52-1.1-1.26-1s-.88.7-1,1.28A6.31,6.31,0,0,0,83.71,52.63Z"/><path id="Trazado_1928" data-name="Trazado 1928" class="cls-1" d="M55.83,26.4a8.59,8.59,0,0,1-8.09,0C50.23,25,52,25,55.83,26.4Z"/><path id="Trazado_1929" data-name="Trazado 1929" class="cls-1" d="M23.77,46.53a7.66,7.66,0,0,1,8,0A8.66,8.66,0,0,1,23.77,46.53Z"/><path id="Trazado_1930" data-name="Trazado 1930" class="cls-1" d="M35.76,26.45a7.56,7.56,0,0,1,8,0A8.65,8.65,0,0,1,35.76,26.45Z"/><path id="Trazado_1931" data-name="Trazado 1931" class="cls-1" d="M29.81,36.49a7.5,7.5,0,0,1,8,0A8.48,8.48,0,0,1,29.81,36.49Z"/><path id="Trazado_1932" data-name="Trazado 1932" class="cls-1" d="M17.86,36.5a7.48,7.48,0,0,1,8,0A8.61,8.61,0,0,1,17.86,36.5Z"/><path id="Trazado_1933" data-name="Trazado 1933" class="cls-3" d="M72.51,49.87c.5.94.93-.12,1.44-.15.31,0,.7-.18.79.32s0,.63-.46.73c-1,.2-1.27,1-1.33,1.89s0,1.55,0,2.31c0,.39,0,.73-.56.7s-.55-.24-.55-.63c0-1.54,0-3.08,0-4.61C71.82,50,72,49.82,72.51,49.87Z"/><path id="Trazado_1934" data-name="Trazado 1934" class="cls-3" d="M81.93,52.71c0,.77,0,1.55,0,2.31,0,.44-.11.66-.61.66s-.63-.22-.62-.66c0-1.62,0-3.24,0-4.84,0-.48.22-.66.66-.64s.56.25.56.64C81.92,51,81.93,51.86,81.93,52.71Z"/><path id="Trazado_1935" data-name="Trazado 1935" class="cls-3" d="M82,48.09a.63.63,0,0,1-.54.72h-.11a.63.63,0,0,1-.7-.54.24.24,0,0,1,0-.12.6.6,0,0,1,.55-.66h0A.64.64,0,0,1,82,48a.34.34,0,0,1,0,.1Z"/><path id="Trazado_1936" data-name="Trazado 1936" class="cls-2" d="M69.64,42.93a3.21,3.21,0,0,1-.2,1.11,1.5,1.5,0,0,1-1.32,1,.85.85,0,0,1-.91-.66,1.64,1.64,0,0,1,.4-1.82A2.58,2.58,0,0,1,69.14,42C70,42,69.49,42.65,69.64,42.93Z"/><path id="Trazado_1937" data-name="Trazado 1937" class="cls-2" d="M46.82,42.81a2.75,2.75,0,0,1-.38,1.48c-.4.59-.9,1-1.63.62a1.26,1.26,0,0,1-.47-1.72A2.27,2.27,0,0,1,46.51,42C47,42.15,46.74,42.55,46.82,42.81Z"/><path id="Trazado_1938" data-name="Trazado 1938" class="cls-2" d="M87,41.64a7.87,7.87,0,0,1-.32,2.51,1.18,1.18,0,0,1-1.14.89,1.09,1.09,0,0,1-1-.89,7.84,7.84,0,0,1,0-4.55,1.09,1.09,0,0,1,1.16-.83,1.05,1.05,0,0,1,1.08.92C86.88,40.44,87,41.21,87,41.64Z"/><path id="Trazado_1939" data-name="Trazado 1939" class="cls-2" d="M58.07,52.7c0,1.18-.53,2-1.25,2s-1.33-.8-1.33-2.06.52-2.21,1.3-2.22S58.08,51.39,58.07,52.7Z"/><path id="Trazado_1940" data-name="Trazado 1940" class="cls-2" d="M68.6,52c-.37-.27-1.12.34-1.16-.38a1.14,1.14,0,0,1,1.14-1.13h.11a1,1,0,0,1,1.13.9,1.09,1.09,0,0,1,0,.18C69.75,52.37,69,51.74,68.6,52Z"/><path id="Trazado_1941" data-name="Trazado 1941" class="cls-2" d="M51.2,52c-.37-.31-1.16.36-1.2-.44a1.1,1.1,0,0,1,1.14-1.08h0a1.07,1.07,0,0,1,1.2.91,1,1,0,0,1,0,.24C52.31,52.32,51.59,51.76,51.2,52Z"/><path id="Trazado_1942" data-name="Trazado 1942" class="cls-2" d="M88.93,51.81c.26-.8.6-1.26,1.29-1.3a1.21,1.21,0,0,1,1.24,1c.05.18,0,.4-.21.41q-1.05,0-2.1,0C89,51.94,89,51.78,88.93,51.81Z"/></svg>