<svg id="Capa_1" data-name="Capa 1" xmlns="http://www.w3.org/2000/svg" viewBox="0 0 112.14 54.11"><defs><style>.cls-1{fill:#4d453f;}.cls-1,.cls-2{fill-rule:evenodd;}.cls-2{fill:#ed1844;}.cls-3{fill:none;}</style></defs><g id="Page-1"><g id="OpenStack_Logo2016" data-name="OpenStack Logo2016"><path id="Fill-1" class="cls-1" d="M110.48,49.92a1.26,1.26,0,1,1,1.25-1.26,1.25,1.25,0,0,1-1.25,1.26m1.66-1.26a1.67,1.67,0,0,0-3.33,0,1.67,1.67,0,1,0,3.33,0"/><path id="Fill-3" class="cls-1" d="M110.76,48.37a.24.24,0,0,1-.22.25h-.29v-.5h.24a.24.24,0,0,1,.27.25Zm.34,0h0A.5.5,0,0,0,111,48a.64.64,0,0,0-.44-.15h-.61v1.63h.34v-.54h.21l.3.54h.39l-.35-.61a.49.49,0,0,0,.3-.48Z"/><path id="Fill-5" class="cls-1" d="M2.84,43.76v-.15c0-2.48,1.27-4.31,3.25-4.31S9.4,41.15,9.4,43.63v.15c0,2.49-1.27,4.34-3.25,4.34s-3.31-1.88-3.31-4.36m9.4.05v-.23c0-3.93-2.59-6.79-6.1-6.79S0,39.7,0,43.61v.22c0,3.94,2.58,6.77,6.09,6.77s6.14-2.88,6.14-6.79"/><path id="Fill-7" class="cls-1" d="M16.63,43.81v-.25c0-2.61,1.45-4.27,3.16-4.27s3.08,1.64,3.08,4.29v.23c0,2.66-1.35,4.26-3.08,4.26s-3.16-1.66-3.16-4.26m9.1,0v-.35c0-4.49-2.51-6.72-5.17-6.72a4.48,4.48,0,0,0-3.88,2.38V37H13.84V54.11h2.83V48.32a4.54,4.54,0,0,0,3.89,2.26c2.68,0,5.16-2.26,5.16-6.72"/><path id="Fill-10" class="cls-1" d="M32.93,39.17c1.66,0,2.61,1.53,2.76,3.64H30.08c.2-2.26,1.3-3.64,2.86-3.64M38,48.55l-1.48-1.76a4.21,4.21,0,0,1-3.06,1.4c-1.73,0-3.11-1.2-3.36-3.43h8.33c0-.4,0-.8,0-1,0-4-1.9-7-5.51-7-3.26,0-5.67,2.86-5.67,6.84v.2c0,4.17,2.66,6.77,6.07,6.77A6.09,6.09,0,0,0,38,48.54"/><path id="Fill-12" class="cls-1" d="M46.77,36.79A4.15,4.15,0,0,0,43.14,39V37H40.3V50.33h2.84v-8c0-1.83,1-2.94,2.51-2.94s2.38,1,2.38,2.89v8.1h2.83v-8.9c0-2.83-1.53-4.64-4.09-4.64"/><path id="Fill-14" class="cls-1" d="M62.28,46.54v0c0-2.08-1.56-3-3.61-4-1.56-.7-2.61-1.16-2.61-2v-.05c0-.72.63-1.3,1.68-1.3a6,6,0,0,1,3.16,1.18l1.2-2.08a7.67,7.67,0,0,0-4.31-1.43c-2.49,0-4.39,1.5-4.39,3.89v.05c0,2.18,1.65,3.08,3.63,3.93,1.58.68,2.61,1.1,2.61,2.06v0c0,.82-.68,1.45-1.85,1.45a6,6,0,0,1-3.66-1.56l-1.33,2a7.83,7.83,0,0,0,4.94,1.86c2.55,0,4.53-1.43,4.53-4"/><path id="Fill-16" class="cls-1" d="M71.05,50V47.62a3.27,3.27,0,0,1-1.53.38,1.27,1.27,0,0,1-1.43-1.09,1.15,1.15,0,0,1,0-.37V39.47h3V37h-3V33.46H65.26V37H63.8l.47,2.44h1v7.64c0,2.58,1.48,3.41,3.43,3.41A4.82,4.82,0,0,0,71.05,50"/><path id="Fill-18" class="cls-1" d="M80.5,45.87a2.67,2.67,0,0,1-2.72,2.59h-.16a2,2,0,0,1-2.16-1.89v-.27c0-1.4,1-2.23,2.58-2.23a6.46,6.46,0,0,1,2.46.48Zm1.4-7.63A5.3,5.3,0,0,0,78,36.89a9.44,9.44,0,0,0-4.39,1l.8,2.26a7.47,7.47,0,0,1,3.21-.8c1.8,0,2.86.93,2.86,2.71v.55a9.12,9.12,0,0,0-3.06-.53c-2.81,0-4.72,1.4-4.72,4.26v.13a3.88,3.88,0,0,0,3.7,4.06,2.28,2.28,0,0,0,.37,0,4.2,4.2,0,0,0,3.68-1.88v1.63h2.79V42.08a5.26,5.26,0,0,0-1.33-3.84Z"/><path id="Fill-20" class="cls-1" d="M95.28,48.6l-1.53-1.88A3.72,3.72,0,0,1,91,48.07c-1.93,0-3.29-1.73-3.29-4.31v-.13c0-2.5,1.36-4.28,3.21-4.28a3.57,3.57,0,0,1,2.69,1.33l1.58-2.08A5.61,5.61,0,0,0,91,36.79c-3.49,0-6.07,2.86-6.07,6.82v.25c0,4,2.51,6.75,6,6.75a5.56,5.56,0,0,0,4.41-2"/><path id="Fill-22" class="cls-1" d="M104,43.43l-2,2.13,2.67,4.76h3.28Z"/><path id="Fill-24" class="cls-1" d="M104.43,37l-4.54,5.84V32.22H97.06V50.33h2.83V46.49l7.9-9.45Z"/><path id="Fill-26" class="cls-2" d="M65.52,0H42.91a2.59,2.59,0,0,0-2.58,2.58V8.66H46.6v-1A1.4,1.4,0,0,1,48,6.27H60.44a1.4,1.4,0,0,1,1.4,1.4v1h6.27V2.58A2.58,2.58,0,0,0,65.52,0Z"/><path id="Fill-28" class="cls-2" d="M61.83,19.51a1.4,1.4,0,0,1-1.4,1.4H48a1.39,1.39,0,0,1-1.4-1.4v-1H40.32V24.6a2.59,2.59,0,0,0,2.58,2.58H65.52A2.59,2.59,0,0,0,68.1,24.6V18.52H61.83Z"/><path id="Clip-31" class="cls-3" d="M0,54.11H112.14V0H0Z"/><path id="Fill-30" class="cls-2" d="M40.33,16.73H46.6V10.46H40.33Z"/><path id="Fill-32" class="cls-2" d="M61.83,16.73H68.1V10.46H61.83Z"/></g></g></svg>