<svg id="Capa_1" data-name="Capa 1" xmlns="http://www.w3.org/2000/svg" viewBox="0 0 66.93 64.97"><defs><style>.cls-1{fill:#3f67b0;}.cls-2{fill:#fff;}.cls-3{fill:#4168b0;}</style></defs><g id="Logo_Kubernetes" data-name="Logo Kubernetes"><path id="Trazado_1968" data-name="Trazado 1968" class="cls-1" d="M33.45,65c-4.2,0-8.41,0-12.61,0A4.7,4.7,0,0,1,16.9,63.1Q9,53.26,1.09,43.45a4.67,4.67,0,0,1-.95-4.13Q3,27,5.82,14.66a4.49,4.49,0,0,1,2.57-3.21L31.23.52a4.87,4.87,0,0,1,4.37,0L58.4,11.38a4.69,4.69,0,0,1,2.73,3.41q2.82,12.3,5.66,24.6a4.39,4.39,0,0,1-.9,3.94l-16,19.87A4.48,4.48,0,0,1,46.2,65C41.94,64.94,37.7,65,33.45,65Zm-.88-51c.13.42-.54.89-.72,1.52-.05.16-.75.15-1.14.21l-.47.06a17.86,17.86,0,0,0-9.54,4.94c-.12.12-.22.35-.42.28a4.25,4.25,0,0,1-2.05-1A27,27,0,0,0,16,17.71a1.39,1.39,0,0,0-2,0l-.09.1a1.47,1.47,0,0,0,.28,2.06h0a10,10,0,0,0,1.14.73,17.35,17.35,0,0,1,2.27,1.48c.46.38.84,1.44.64,1.76a17.87,17.87,0,0,0-2.61,11.6c0,.18.1.45,0,.52-.65.3-1.07,1-1.91,1a14.39,14.39,0,0,0-1.61.16,9.91,9.91,0,0,0-1.88.27,1.49,1.49,0,0,0-1.12,1.7,1.44,1.44,0,0,0,1.75,1,5.74,5.74,0,0,0,1-.28c1.33-.46,2.58-1.28,4.13-.8.35.1.52.16.64.48A17.78,17.78,0,0,0,24,48.73c.13.08.39.19.34.29-.32.57.15,1.18-.2,1.76-.45.76-.86,1.54-1.37,2.26a4.2,4.2,0,0,0-.74,1.28A1.4,1.4,0,0,0,22.66,56a1.37,1.37,0,0,0,1.68-.24A2.78,2.78,0,0,0,25,54.64c.51-1.42.74-3,2.09-4,.2-.15.28-.26.54-.17a18,18,0,0,0,12.09,0c.13,0,.29-.19.44,0,.48.57,1.17.95,1.37,1.77s.52,1.44.75,2.17a3.51,3.51,0,0,0,.58,1.14,1.35,1.35,0,0,0,1.58.47,1.32,1.32,0,0,0,.88-1.39,2.83,2.83,0,0,0-.69-1.52,14.48,14.48,0,0,1-1.5-2.48c-.26-.59-.17-1.7.14-1.9a18,18,0,0,0,7.47-9.43c0-.13.06-.36.26-.36.7,0,1.36-.41,2.1-.07s1.4.48,2.09.76a6.28,6.28,0,0,0,1.3.38,1.49,1.49,0,0,0,1.6-.89c.2-.65-.24-1.06-.7-1.4a2.88,2.88,0,0,0-1.48-.42c-1.46-.21-3,0-4.24-1.17-.19-.19-.26-.29-.24-.52a18.32,18.32,0,0,0-2.6-11.56c-.1-.17-.3-.47-.26-.51.46-.45.38-1.19,1-1.57.8-.51,1.59-1,2.42-1.49a2.68,2.68,0,0,0,1.19-1.07,1.35,1.35,0,0,0-1.88-1.87,4.31,4.31,0,0,0-1.06.94,19,19,0,0,1-2.11,2c-.45.36-1,.17-1.52.48-.07.05-.48-.4-.72-.63a17,17,0,0,0-4.51-3.1,18,18,0,0,0-5.55-1.66c-.24,0-.54,0-.71-.26a4.38,4.38,0,0,1-.46-2.84A14.42,14.42,0,0,0,35,9.91a1.42,1.42,0,0,0-2.84-.07V10a5.5,5.5,0,0,0,.12,1.28c.14.8.21,1.59.34,2.7Z"/><path id="Trazado_1969" data-name="Trazado 1969" class="cls-2" d="M32.57,13.94c-.14-1.11-.19-1.9-.35-2.68A6.83,6.83,0,0,1,32.1,10a1.43,1.43,0,0,1,1.34-1.51,1.41,1.41,0,0,1,1.5,1.34.49.49,0,0,1,0,.12,15.26,15.26,0,0,1-.32,2.61,4.38,4.38,0,0,0,.46,2.84c.17.3.47.23.71.26a18,18,0,0,1,5.55,1.66,17.25,17.25,0,0,1,4.51,3.1c.24.23.66.68.72.64.47-.32,1.07-.12,1.52-.48a20,20,0,0,0,2.11-2,4.36,4.36,0,0,1,1.07-.94,1.36,1.36,0,0,1,1.88,1.87A2.71,2.71,0,0,1,52,20.56c-.83.46-1.62,1-2.42,1.49-.59.38-.52,1.13-1,1.57,0,0,.16.34.26.51a18.26,18.26,0,0,1,2.6,11.56.58.58,0,0,0,.24.53c1.21,1.19,2.79,1,4.24,1.16a3,3,0,0,1,1.48.43c.43.32.9.74.7,1.4a1.48,1.48,0,0,1-1.6.88,6.47,6.47,0,0,1-1.3-.38c-.69-.28-1.42-.46-2.09-.76S51.69,39,51,39c-.19,0-.2.23-.25.37a18.12,18.12,0,0,1-7.48,9.42c-.31.2-.4,1.31-.14,1.9a13.73,13.73,0,0,0,1.5,2.49,2.76,2.76,0,0,1,.69,1.52,1.32,1.32,0,0,1-.88,1.38,1.35,1.35,0,0,1-1.58-.47,3.24,3.24,0,0,1-.58-1.14c-.24-.73-.57-1.43-.75-2.17s-.9-1.2-1.38-1.77c-.14-.17-.3,0-.43,0a18.11,18.11,0,0,1-12.09,0c-.27-.1-.35,0-.55.16-1.35,1-1.57,2.55-2.09,4a2.67,2.67,0,0,1-.66,1.09,1.34,1.34,0,0,1-1.67.25,1.43,1.43,0,0,1-.6-1.66,4.58,4.58,0,0,1,.75-1.28c.51-.72.91-1.5,1.36-2.25.35-.59-.12-1.2.2-1.77.06-.1-.2-.2-.33-.28a17.91,17.91,0,0,1-7.42-9.24c-.11-.32-.29-.38-.63-.48-1.56-.47-2.8.35-4.14.81a5.36,5.36,0,0,1-1,.27,1.42,1.42,0,0,1-1.75-1,1.5,1.5,0,0,1,1.12-1.7,9.79,9.79,0,0,1,1.87-.26A12.72,12.72,0,0,1,13.73,37c.83,0,1.25-.73,1.91-1,.15-.07.06-.34,0-.51a17.9,17.9,0,0,1,2.61-11.6,2,2,0,0,0-.63-1.76,16.66,16.66,0,0,0-2.27-1.48,9.6,9.6,0,0,1-1.14-.73A1.47,1.47,0,0,1,14,17.82h0a1.38,1.38,0,0,1,1.95-.18l.1.09a24.15,24.15,0,0,1,2.2,2.21,4.43,4.43,0,0,0,2.05,1c.21.08.31-.15.43-.27a17.73,17.73,0,0,1,9.53-4.94l.47-.07c.4-.06,1.1,0,1.14-.21C32,14.83,32.7,14.36,32.57,13.94ZM41.25,45.8A13.38,13.38,0,0,0,44.48,43a12.77,12.77,0,0,0,2.37-3.92c.08-.23.28-.51-.21-.59-2.32-.38-4.63-.79-6.94-1.15a1.2,1.2,0,0,0-1.37,1,1.24,1.24,0,0,0,.08.63c.91,2.28,1.88,4.55,2.84,6.84ZM31.64,19.87c.12-.5-.07-.57-.46-.5a14.52,14.52,0,0,0-7.41,3.56c-.38.35-.35.5.05.78,1.76,1.23,3.51,2.47,5.25,3.74a1.31,1.31,0,0,0,1.49.28,1.44,1.44,0,0,0,.73-1.36c.11-2.18.24-4.38.35-6.5ZM19,33.78v.61c0,.58.16.76.78.57,2-.63,4.06-1.2,6.09-1.78a1.33,1.33,0,0,0,1.11-1,1.38,1.38,0,0,0-.57-1.42c-1.63-1.43-3.24-2.87-4.85-4.32-.34-.31-.48-.31-.71.11A15,15,0,0,0,19,33.77Zm8.1,3.58-1.73.3-5,.84c-.22,0-.52,0-.35.43a14.52,14.52,0,0,0,5.3,6.68c.27.19.38.12.48-.16s.32-.79.49-1.19c.7-1.68,1.41-3.36,2.09-5a1.27,1.27,0,0,0-.51-1.71A1.36,1.36,0,0,0,27.1,37.36Zm16.46-14a14.1,14.1,0,0,0-7.94-4c-.35-.05-.35.14-.34.39.13,2.28.25,4.55.38,6.82a1.2,1.2,0,0,0,1.15,1.24,1.18,1.18,0,0,0,.74-.23C39.56,26.21,41.53,24.79,43.56,23.35Zm2.21,2.76c-1.86,1.68-3.66,3.28-5.44,4.91a1.14,1.14,0,0,0-.23,1.62,1.18,1.18,0,0,0,.64.43c2.23.7,4.49,1.31,6.74,2,.24.07.37,0,.38-.26A15.07,15.07,0,0,0,45.77,26.11ZM28.83,47.38a14.76,14.76,0,0,0,8.85.11c.44-.13.23-.34.12-.54l-2.4-4.33c-.31-.55-.59-1.12-.94-1.65a1.17,1.17,0,0,0-2-.09c-1.22,2.13-2.39,4.3-3.6,6.5Zm4.66-16c-.44.12-1-.22-1.34.24s-1.09,1-1.12,1.63a2.8,2.8,0,0,0,.55,2,2.74,2.74,0,0,0,1.92.86,3.2,3.2,0,0,0,1.87-.85,2.75,2.75,0,0,0,.51-2c0-.72-.72-1.14-1.12-1.7s-.85-.12-1.27-.24Z"/><path id="Trazado_1970" data-name="Trazado 1970" class="cls-3" d="M41.25,45.8c-1-2.3-1.93-4.56-2.85-6.84a1.21,1.21,0,0,1,.66-1.57,1.23,1.23,0,0,1,.63-.07c2.32.36,4.63.78,6.94,1.15.49.08.3.36.21.59A12.58,12.58,0,0,1,44.47,43a13.36,13.36,0,0,1-3.22,2.82Z"/><path id="Trazado_1971" data-name="Trazado 1971" class="cls-3" d="M31.64,19.87c-.11,2.12-.23,4.31-.35,6.5a1.45,1.45,0,0,1-.73,1.36,1.35,1.35,0,0,1-1.49-.28c-1.74-1.26-3.48-2.51-5.24-3.74-.4-.28-.44-.43-.06-.78a14.52,14.52,0,0,1,7.42-3.56C31.57,19.31,31.76,19.37,31.64,19.87Z"/><path id="Trazado_1972" data-name="Trazado 1972" class="cls-3" d="M19,33.77a15,15,0,0,1,1.84-7.18c.23-.42.38-.41.72-.1q2.4,2.18,4.85,4.32A1.37,1.37,0,0,1,27,32.22c-.14.61-.58.8-1.11,1-2,.58-4.07,1.15-6.09,1.78-.62.19-.81,0-.78-.57Z"/><path id="Trazado_1973" data-name="Trazado 1973" class="cls-3" d="M27.1,37.36a1.28,1.28,0,0,1,1.43,1.09,1.35,1.35,0,0,1-.14.76c-.68,1.69-1.4,3.37-2.09,5-.16.39-.34.78-.49,1.19s-.2.35-.47.16A14.53,14.53,0,0,1,20,38.93c-.17-.42.14-.4.35-.43l5-.84Z"/><path id="Trazado_1974" data-name="Trazado 1974" class="cls-3" d="M43.55,23.35c-2,1.44-4,2.87-6,4.25a1.21,1.21,0,0,1-1.67-.27,1.24,1.24,0,0,1-.22-.74c-.14-2.28-.25-4.55-.38-6.82,0-.26,0-.45.34-.39A14,14,0,0,1,43.55,23.35Z"/><path id="Trazado_1975" data-name="Trazado 1975" class="cls-3" d="M45.77,26.11a15.07,15.07,0,0,1,2.09,8.67c0,.3-.14.33-.38.26-2.25-.66-4.5-1.28-6.74-2a1.17,1.17,0,0,1-.84-1.41,1.18,1.18,0,0,1,.43-.64C42.11,29.39,43.91,27.79,45.77,26.11Z"/><path id="Trazado_1976" data-name="Trazado 1976" class="cls-3" d="M28.83,47.38c1.21-2.2,2.38-4.37,3.6-6.5a1.17,1.17,0,0,1,1.62-.36,1.18,1.18,0,0,1,.41.45c.35.53.63,1.1.94,1.65L37.8,47c.11.2.32.41-.12.54A14.76,14.76,0,0,1,28.83,47.38Z"/><path id="Trazado_1977" data-name="Trazado 1977" class="cls-3" d="M33.49,31.36c.42.12.95-.21,1.27.24s1.13,1,1.12,1.7a2.76,2.76,0,0,1-.51,2,3.17,3.17,0,0,1-1.87.85,2.74,2.74,0,0,1-1.92-.86,2.88,2.88,0,0,1-.55-2c0-.69.72-1.1,1.12-1.63S33,31.48,33.49,31.36Z"/></g></svg>