<svg id="Capa_1" data-name="Capa 1" xmlns="http://www.w3.org/2000/svg" viewBox="0 0 108.51 69.72"><defs><style>.cls-1{fill:#377db5;}.cls-2{fill:#edf4fa;}.cls-3{fill:#acd2ec;}</style></defs><path id="Trazado_1943" data-name="Trazado 1943" class="cls-1" d="M108,51.15a23,23,0,0,1-10.31,14.9,22.47,22.47,0,0,1-10,3.5c-1.63.16-3.25.15-4.87.15-21.51,0-43,0-64.54,0A18.48,18.48,0,0,1,.36,54.83,23.17,23.17,0,0,1,.07,49a23.23,23.23,0,0,1,1.37-5.38,29.49,29.49,0,0,1,3-4.69A18,18,0,0,1,11.15,34a1.42,1.42,0,0,0,1-1.62,14.13,14.13,0,0,1,1.63-7.6,17.16,17.16,0,0,1,12.24-9.36A17.69,17.69,0,0,1,36.83,16.7c.51.22.69.2.91-.38a15.67,15.67,0,0,1,1.74-3.87,33.16,33.16,0,0,1,4.43-5.1A28.76,28.76,0,0,1,58.35.48a31,31,0,0,1,14.44.86A26.37,26.37,0,0,1,87.34,11.55,19.58,19.58,0,0,1,91,21.25a12,12,0,0,1,.18,2.08c0,.55.35.61.74.74A22.24,22.24,0,0,1,99.48,28a23.38,23.38,0,0,1,8.26,12.55c.05.15.11.3.17.45s0,.23.08.34a.64.64,0,0,0,.13.67,3,3,0,0,0,.07.32,10.33,10.33,0,0,0,.23,2.22l.09.82a25,25,0,0,0-.13,3.77c0,.18,0,.36-.07.53A3.42,3.42,0,0,0,108,51.15ZM23.32,46c2.75.2,5.5,0,8.26.08.66,0,.62-.45.62-.89,0-2.12-.05-4.25,0-6.37,0-1-.35-1.14-1.23-1-2.42.38-4.85.68-7.28,1-.17,0-.32,0-.38.18a.25.25,0,0,0,0,.17,7.48,7.48,0,0,0,0,2.83v.77A6.62,6.62,0,0,0,23.32,46Zm15.08.68H33.61c-.46,0-.86,0-.86.67,0,2.42,0,4.85,0,7.27,0,.55.2,1,.91.8a2.33,2.33,0,0,1,.79.07c2.79.35,5.59.7,8.38,1.07.72.09,1.1,0,1.08-.9q-.08-4,0-8c0-.84-.33-1-1.06-1-1.47,0-3,0-4.46,0Zm0-.6c1.57,0,3.13,0,4.69,0,.62,0,.88-.15.87-.83q0-4.14,0-8.27c0-.66-.17-.89-.85-.8-3.2.45-6.38.87-9.57,1.3-.49.06-.76.24-.76.81,0,2.33,0,4.65,0,7,0,.62.26.81.84.8Zm-6.18,4.83h0c0-1.17,0-2.33,0-3.49,0-.5-.17-.73-.69-.73H23.92c-.5,0-.7.2-.7.72,0,1.93,0,3.85-.07,5.78a.84.84,0,0,0,.69,1H24q3.66.43,7.31.92c.69.1.89-.13.87-.8,0-1.12,0-2.25,0-3.38Zm25.73,3.07a.72.72,0,0,1,.26-.65L60.89,50a.81.81,0,0,0,.24-.82c-.12-.31-.45-.2-.69-.21-1.13,0-2.26,0-3.4,0-.4,0-.71.15-.7.51s.33.5.72.49c.78,0,1.56,0,2.54,0L56.08,54.3c-.89-2.31-1.8-4.62-2.67-6.95-.16-.42-.38-.68-.86-.6-.31.06-.7-.18-.9.36-.88,2.4-1.82,4.75-2.72,7.14-.1.28-.31.68.17.83a.67.67,0,0,0,.89-.31.78.78,0,0,0,0-.14c.18-.54.4-1.06.6-1.59.08-.22.14-.51.4-.51a12.52,12.52,0,0,1,2.87,0c.62.12.51,1,.76,1.51s.22.88.89.86c1.69,0,3.39,0,5.07,0,.32,0,.6,0,.61-.45s-.22-.54-.61-.54H57.92ZM56.46,38.15l.2.06v6c0,.24-.12.61.27.64s.31-.35.31-.59c0-2.32,0-4.65,0-7,0-.3,0-.62-.42-.64s-.65.08-.75.49A41.38,41.38,0,0,1,54,42.66c-.11.29-.15.71-.59.7s-.43-.44-.55-.72q-1.16-2.73-2.29-5.48c-.13-.33-.3-.61-.72-.52s-.35.43-.35.72v6.78c0,.28-.1.69.35.69s.37-.4.37-.68c0-1.46,0-2.92,0-4.39,0-.33-.17-.73.34-1,.72,1.74,1.41,3.45,2.14,5.15.16.37.15,1,.7,1s.58-.64.74-1C55,41.94,55.7,40,56.47,38.15ZM75,52.27h1.6c.33,0,.63-.07.6-.49-.14-2.07-1.52-3.46-3.45-2.9a2.86,2.86,0,0,0-2.07,2.75,3.42,3.42,0,0,0,1.55,3.13A3,3,0,0,0,76.65,54c.19-.3.61-.72.16-1-.3-.2-.75-.17-1,.37a1.61,1.61,0,0,1-2.27.29,1.59,1.59,0,0,1-.29-.29,1.25,1.25,0,0,1-.26-.81c.07-.35.47-.29.77-.29Zm-9,1.88c0,.6.2.87.71.76s.33-.52.34-.8c0-1.47,0-2.93,0-4.39,0-.36.27-.95-.48-1s-.64.51-.65,1c0,1,0,2-.06,3A1.36,1.36,0,0,1,64.4,54l-.17,0c-.93,0-1-.65-1-1.38,0-1,0-2.06,0-3.1,0-.35-.1-.57-.5-.55s-.68-.08-.66.38a18.47,18.47,0,0,0,.18,4.46c.14.46.29,1,.86,1.08,1,.06,2,.37,2.86-.72ZM87.38,42.2c0-.66,0-1.33,0-2-.06-1,.69-.66,1.17-.69s1.1-.2,1,.71c-.06,1.16,0,2.33,0,3.49,0,.91.62,1.07,1.3,1.2a.33.33,0,0,0,.4-.2c.07-.29-.14-.34-.34-.35-.73-.06-.81-.56-.81-1.13,0-1,0-1.93,0-2.89,0-.55.07-.92.74-.84.2,0,.43,0,.44-.28s-.27-.25-.45-.24c-.46,0-.74-.08-.75-.65s.3-1.2-.34-1.22c-.35,0-.11.8-.17,1.23s0,.67-.44.61-1.33.34-1.72-.27a1,1,0,0,1,.85-1.52c.2,0,.44,0,.44-.28s-.22-.28-.43-.3a1.33,1.33,0,0,0-1.49,1.16,2.26,2.26,0,0,0,0,.26c0,.47.17,1.07-.67,1a.23.23,0,0,0-.27.18,0,0,0,0,0,0,0,.27.27,0,0,0,.23.31h.08c.67-.05.64.39.64.84,0,1.3,0,2.59,0,3.89,0,.24-.09.62.3.61s.28-.38.29-.63v-2ZM77.19,45h.3a1.92,1.92,0,0,0,2.08-1.46c.12-.83-.46-1.5-1.6-1.83l-1.68-.48a.92.92,0,0,1-.64-.69c-.13-.4.13-.65.38-.85a1.91,1.91,0,0,1,2.64.53l.07.11c.11.24.14.59.5.42s.11-.4.05-.62c-.34-1.09-1.61-1.58-3-1.16-.74.23-1.48.55-1.37,1.47A1.57,1.57,0,0,0,76.46,42a8.83,8.83,0,0,1,1.82.46.94.94,0,0,1,.69.88,1.06,1.06,0,0,1-.72,1,2,2,0,0,1-2.69-.81,1.63,1.63,0,0,1-.11-.23c-.09-.19,0-.54-.4-.44s-.21.42-.14.66c.3,1,1,1.48,2.29,1.49Zm3-3.11c0,2,.92,3.09,2.55,3.1,1.87,0,2.82-1,2.83-3a2.85,2.85,0,0,0-2.52-3.14l-.21,0c-1.59,0-2.64,1.21-2.65,3.07Zm-8.75,3.1c1.74,0,2.77-1.12,2.76-3s-1.09-3.14-2.7-3.15S68.84,40,68.83,41.93s1,3,2.63,3Zm-3.21,6.91c0,.7,0,1.4,0,2.09,0,.42-.2,1,.6,1s.53-.62.56-1c0-.6,0-1.2,0-1.8,0-1.35.24-1.75,1.57-2.14.5-.15.4-.42.43-.73s-.27-.49-.6-.47c-.76,0-1.46.45-2.26.22-.37-.11-.32.33-.32.58,0,.77,0,1.53,0,2.3ZM62.74,45A2.2,2.2,0,0,0,65,43.57c.12-.25.4-.58,0-.77s-.5.22-.63.52a1.69,1.69,0,0,1-2.15,1.09l-.17-.06c-1.34-.44-1.9-2.53-1.06-4a2,2,0,0,1,2.68-.84,2,2,0,0,1,.81.78c.13.21.11.74.55.47s0-.55-.08-.8a1.58,1.58,0,0,0-.42-.54,2.66,2.66,0,0,0-3.13-.33A3.33,3.33,0,0,0,60.24,43a2.31,2.31,0,0,0,2.5,2Zm4-5.15c-.21-.29.08-.73-.38-.79-.2,0-.25.18-.26.35v5.07c0,.18.08.37.26.38s.26-.23.26-.42V42.1a2.25,2.25,0,0,1,1.86-2.59h0c.2-.06.43-.1.38-.35s-.31-.17-.49-.19a2.32,2.32,0,0,0-1.66.84Zm-7.5,2.08h0c0-.73,0-1.45,0-2.18,0-.3.12-.75-.41-.73s-.36.4-.36.69c0,1.48,0,3,0,4.46,0,.3-.11.77.4.74s.37-.47.38-.8c0-.72,0-1.45,0-2.18Zm0-4.59c0-.26.06-.62-.36-.66s-.44.31-.42.6-.11.73.4.73.35-.38.38-.68Z"/><path id="Trazado_1944" data-name="Trazado 1944" class="cls-2" d="M38.4,46.65c1.49,0,3,0,4.48,0,.72,0,1.07.16,1,1,0,2.65,0,5.3,0,8,0,.87-.35,1-1.07.9-2.8-.37-5.59-.72-8.38-1.07a2.36,2.36,0,0,0-.79-.07c-.72.18-.91-.24-.91-.8,0-2.42,0-4.85,0-7.27,0-.65.4-.67.85-.67Z"/><path id="Trazado_1945" data-name="Trazado 1945" class="cls-2" d="M38.37,46H33.58c-.58,0-.84-.18-.83-.8q0-3.49,0-7c0-.58.27-.76.76-.82,3.19-.43,6.39-.85,9.56-1.3.68-.1.86.13.86.8,0,2.76,0,5.51,0,8.27,0,.68-.25.85-.87.84C41.5,46,39.94,46,38.37,46Z"/><path id="Trazado_1946" data-name="Trazado 1946" class="cls-2" d="M32.2,50.86c0,1.13,0,2.26,0,3.4,0,.65-.19.88-.87.8-2.44-.34-4.87-.64-7.31-.93a.84.84,0,0,1-.87-.8.49.49,0,0,1,0-.17c0-1.93.06-3.85.07-5.78,0-.51.2-.72.7-.72q3.79,0,7.57,0c.53,0,.7.23.69.73,0,1.16,0,2.32,0,3.49Z"/><path id="Trazado_1947" data-name="Trazado 1947" class="cls-2" d="M23.31,39.14a.25.25,0,0,1,0-.17l.38-.18c2.43-.33,4.86-.64,7.28-1,.88-.14,1.26,0,1.23,1-.08,2.12,0,4.24,0,6.37,0,.44,0,.9-.62.89-2.75,0-5.5.11-8.26-.09l0-3.21v-3.6Z"/><path id="Trazado_1948" data-name="Trazado 1948" class="cls-2" d="M57.93,53.93h2.7c.4,0,.63.07.61.55s-.29.44-.61.44c-1.69,0-3.39,0-5.08,0-.67,0-.69-.46-.88-.86s-.15-1.4-.76-1.51a13.12,13.12,0,0,0-2.87,0c-.26,0-.32.29-.4.51-.19.54-.41,1.05-.6,1.59a.67.67,0,0,1-.8.5l-.14-.05c-.49-.15-.28-.55-.17-.83.9-2.38,1.84-4.76,2.72-7.14.2-.54.59-.29.9-.35.48-.1.7.16.86.6.87,2.32,1.77,4.63,2.67,7l3.53-4.39c-1,0-1.76,0-2.53,0-.4,0-.72-.13-.73-.49s.3-.51.7-.51c1.13,0,2.26,0,3.4,0,.24,0,.57-.12.69.21a.77.77,0,0,1-.24.82l-2.7,3.31A.72.72,0,0,0,57.93,53.93Zm-4.34-2.67c-.07-.83-.67-1.46-.79-2.28-.07-.47-.56-.27-.7.08-.27.7-.87,1.5-.6,2.13.2.44,1.22.1,1.86.14a1,1,0,0,0,.23-.07Z"/><path id="Trazado_1949" data-name="Trazado 1949" class="cls-2" d="M56.47,38.15C55.7,40,55,41.94,54.15,43.82c-.17.38-.12,1-.75,1s-.54-.6-.7-1c-.72-1.7-1.42-3.41-2.13-5.15-.51.32-.34.72-.34,1.05,0,1.46,0,2.93,0,4.39,0,.29.05.69-.38.68s-.34-.41-.34-.69V37.37c0-.3,0-.63.35-.72s.58.19.72.52q1.14,2.74,2.29,5.48c.12.28.1.72.55.72s.47-.41.58-.7a41.43,41.43,0,0,0,2.12-5.55c.09-.4.37-.5.74-.49s.42.34.42.64v7c0,.24.11.62-.31.59s-.27-.4-.27-.64v-6Z"/><path id="Trazado_1950" data-name="Trazado 1950" class="cls-2" d="M75,52.27h-1.3c-.3,0-.69-.05-.76.29a1.26,1.26,0,0,0,.26.82,1.61,1.61,0,0,0,2.28.27,1.44,1.44,0,0,0,.28-.27c.3-.54.74-.57,1-.38.46.3,0,.72-.15,1a3,3,0,0,1-3.44.74,3.4,3.4,0,0,1-1.54-3.13,2.86,2.86,0,0,1,2.07-2.75c1.92-.55,3.31.84,3.45,2.91,0,.41-.27.49-.6.49H75Zm-.75-1.08h.7c.33,0,.73.06.84-.35s-.23-.6-.52-.77a2.39,2.39,0,0,0-.71-.32c-.6-.1-1.66.63-1.54,1.13s.75.2,1.14.31a.17.17,0,0,0,.1,0Z"/><path id="Trazado_1951" data-name="Trazado 1951" class="cls-2" d="M66,54.15c-.85,1.08-1.9.78-2.87.72-.57,0-.72-.63-.85-1.09-.42-1.46-.13-3-.19-4.46,0-.46.37-.36.66-.38s.51.2.51.56c0,1,0,2.06,0,3.09,0,.73.07,1.35,1,1.38a1.37,1.37,0,0,0,1.58-1.1s0-.11,0-.17c.07-1,0-2,0-3,0-.46-.08-1,.65-1s.47.61.48,1c0,1.46,0,2.92,0,4.39,0,.29.17.69-.34.8S66,54.74,66,54.15Z"/><path id="Trazado_1952" data-name="Trazado 1952" class="cls-2" d="M87.39,42.2v2c0,.25.09.62-.29.63s-.3-.36-.3-.61V40.33c0-.45,0-.88-.63-.83a.27.27,0,0,1-.31-.22.25.25,0,0,1,0-.08A.24.24,0,0,1,86.1,39h0c.83.08.65-.52.67-1a1.33,1.33,0,0,1,1.24-1.43,1.15,1.15,0,0,1,.26,0c.2,0,.42.05.43.31s-.25.24-.44.27a1,1,0,0,0-.86,1.52c.4.61,1.15.2,1.73.27s.39-.32.43-.61-.17-1.25.18-1.23c.64,0,.32.79.33,1.22s.3.66.76.64c.18,0,.44,0,.44.24s-.24.31-.44.29c-.67-.08-.76.29-.74.84,0,1,0,1.92,0,2.89,0,.57.09,1.07.81,1.13.2,0,.42.06.34.35a.32.32,0,0,1-.4.2c-.67-.13-1.31-.29-1.3-1.2,0-1.17,0-2.33,0-3.49,0-.91-.56-.74-1-.71s-1.22-.33-1.16.69C87.42,40.87,87.39,41.54,87.39,42.2Z"/><path id="Trazado_1953" data-name="Trazado 1953" class="cls-2" d="M77.2,45c-1.29,0-2-.46-2.28-1.49-.06-.24-.23-.55.15-.66s.3.26.4.44A2,2,0,0,0,78,44.38l.22-.1a1,1,0,0,0,.73-1,.92.92,0,0,0-.69-.88A7.72,7.72,0,0,0,76.48,42a1.6,1.6,0,0,1-1.54-1.58c-.11-.92.63-1.23,1.38-1.47,1.37-.42,2.65.07,3,1.16.07.22.2.51,0,.63s-.38-.19-.5-.42a1.89,1.89,0,0,0-2.59-.72l-.11.07c-.26.2-.52.46-.39.85a.92.92,0,0,0,.64.69c.57.15,1.13.32,1.68.49,1.13.32,1.72,1,1.6,1.82A1.91,1.91,0,0,1,77.51,45Z"/><path id="Trazado_1954" data-name="Trazado 1954" class="cls-2" d="M80.21,41.84c0-1.87,1-3.05,2.65-3.07s2.74,1.32,2.73,3.15c0,2-1,3-2.83,3C81.13,44.94,80.2,43.81,80.21,41.84Zm.59.08a2.34,2.34,0,0,0,1.36,2.42,1.83,1.83,0,0,0,2.16-.53,2.56,2.56,0,0,0,.53-2.69c-.32-.76-.58-1.63-1.64-1.76-1.43-.18-2.43.85-2.41,2.56Z"/><path id="Trazado_1955" data-name="Trazado 1955" class="cls-2" d="M71.46,44.94c-1.62,0-2.63-1.15-2.63-3s1.08-3.16,2.69-3.15,2.69,1.27,2.7,3.15S73.2,44.94,71.46,44.94Zm-2-3a2.34,2.34,0,0,0,2.06,2.59h.1c1.29-.07,2.14-1.28,2-2.92a2.17,2.17,0,0,0-2.1-2.24h-.26C70.18,39.45,69.42,40.51,69.42,41.92Z"/><path id="Trazado_1956" data-name="Trazado 1956" class="cls-2" d="M68.25,51.85V49.56c0-.25,0-.69.32-.58.8.23,1.5-.17,2.25-.22.33,0,.62,0,.6.46s.08.59-.42.74c-1.33.4-1.57.8-1.58,2.14,0,.6,0,1.2,0,1.8,0,.4.25,1-.55,1s-.58-.55-.6-1C68.23,53.25,68.25,52.55,68.25,51.85Z"/><path id="Trazado_1957" data-name="Trazado 1957" class="cls-2" d="M62.74,45a2.3,2.3,0,0,1-2.5-2,3.35,3.35,0,0,1,1.2-3.88,2.64,2.64,0,0,1,3.13.34A1.46,1.46,0,0,1,65,40c.09.25.43.59.08.8s-.42-.26-.55-.47a2,2,0,0,0-3.49.06c-.84,1.44-.28,3.53,1.06,4a1.71,1.71,0,0,0,2.26-.86,1.15,1.15,0,0,0,.06-.17c.13-.3.18-.73.63-.51s.11.51,0,.76A2.19,2.19,0,0,1,62.74,45Z"/><path id="Trazado_1958" data-name="Trazado 1958" class="cls-2" d="M66.73,39.8A2.3,2.3,0,0,1,68.4,39c.18,0,.44-.08.49.19s-.18.3-.37.35a2.26,2.26,0,0,0-1.89,2.57V44.4c0,.2,0,.45-.27.42s-.25-.2-.25-.38V39.37c0-.17,0-.37.26-.35C66.82,39.08,66.52,39.51,66.73,39.8Z"/><path id="Trazado_1959" data-name="Trazado 1959" class="cls-2" d="M59.24,41.88v2.18c0,.33.06.77-.38.8s-.38-.43-.4-.73q0-2.24,0-4.47c0-.27-.09-.67.36-.68s.4.43.41.72c0,.73,0,1.46,0,2.19Z"/><path id="Trazado_1960" data-name="Trazado 1960" class="cls-2" d="M59.25,37.28c0,.3,0,.68-.38.68s-.38-.43-.4-.73,0-.63.42-.6S59.22,37,59.25,37.28Z"/><path id="Trazado_1961" data-name="Trazado 1961" class="cls-3" d="M23.3,42.74l0,3.21A6.7,6.7,0,0,1,23.3,42.74Z"/><path id="Trazado_1962" data-name="Trazado 1962" class="cls-3" d="M23.31,39.14V42A7.48,7.48,0,0,1,23.31,39.14Z"/><path id="Trazado_1963" data-name="Trazado 1963" class="cls-3" d="M23.72,38.79l-.38.18C23.4,38.77,23.55,38.76,23.72,38.79Z"/><path id="Trazado_1964" data-name="Trazado 1964" class="cls-1" d="M53.59,51.26a.88.88,0,0,1-.23.07c-.64,0-1.66.3-1.86-.14-.27-.62.34-1.42.6-2.13.14-.35.63-.55.7-.08C52.92,49.8,53.53,50.43,53.59,51.26Z"/><path id="Trazado_1965" data-name="Trazado 1965" class="cls-1" d="M74.25,51.19a.17.17,0,0,1-.1,0c-.38-.12-1,.31-1.14-.31s.94-1.23,1.54-1.12a2.31,2.31,0,0,1,.72.31c.28.17.61.39.51.77s-.51.34-.83.35S74.48,51.19,74.25,51.19Z"/><path id="Trazado_1966" data-name="Trazado 1966" class="cls-1" d="M80.8,41.92c0-1.71,1-2.74,2.41-2.56,1.06.13,1.32,1,1.64,1.76a2.56,2.56,0,0,1-.53,2.69,1.84,1.84,0,0,1-2.16.53A2.34,2.34,0,0,1,80.8,41.92Z"/><path id="Trazado_1967" data-name="Trazado 1967" class="cls-1" d="M69.42,41.92c0-1.41.76-2.47,1.84-2.56a2.19,2.19,0,0,1,2.37,2.23c.09,1.64-.76,2.86-2,2.92A2.33,2.33,0,0,1,69.41,42S69.42,42,69.42,41.92Z"/></svg>