<svg id="Capa_1" data-name="Capa 1" xmlns="http://www.w3.org/2000/svg" viewBox="0 0 34.75 34.75"><defs><style>.cls-1{fill:#c4c4c4;}</style></defs><path class="cls-1" d="M14.15,19.46a13,13,0,0,1,4.12-2.24c-.19-.43-.38-.84-.58-1.23a23.64,23.64,0,0,1-3,.7,29.49,29.49,0,0,1-5,.4H8.93v.29h0A8.39,8.39,0,0,0,11,22.94,14.82,14.82,0,0,1,14.15,19.46Z"/><path class="cls-1" d="M13.58,9.83h0a8.49,8.49,0,0,0-4.39,5.45,27,27,0,0,0,7.64-.92A26.37,26.37,0,0,0,13.58,9.83Z"/><path class="cls-1" d="M15.28,20.86a13.15,13.15,0,0,0-2.91,3.31h0a8.41,8.41,0,0,0,8.1,1.06,27.75,27.75,0,0,0-1.53-6.35A11.41,11.41,0,0,0,15.28,20.86Z"/><path class="cls-1" d="M18.56,13.75a10.38,10.38,0,0,0,4.16-2.91A8.49,8.49,0,0,0,15.4,9.16,29.23,29.23,0,0,1,18,12.86C18.21,13.14,18.39,13.44,18.56,13.75Z"/><path class="cls-1" d="M17.37,0A17.38,17.38,0,1,0,34.75,17.38,17.38,17.38,0,0,0,17.37,0Zm0,27.63A10.25,10.25,0,1,1,27.63,17.38,10.25,10.25,0,0,1,17.38,27.63Z"/><path class="cls-1" d="M24,12.13a12.37,12.37,0,0,1-4.59,3.23c.22.44.43.91.64,1.4a15.34,15.34,0,0,1,5.77.11A8.44,8.44,0,0,0,24,12.13Z"/><path class="cls-1" d="M20.71,18.46a30.45,30.45,0,0,1,1.46,5.86h0a8.46,8.46,0,0,0,3.55-5.64A14.07,14.07,0,0,0,20.71,18.46Z"/></svg>