<svg id="Capa_1" data-name="Capa 1" xmlns="http://www.w3.org/2000/svg" viewBox="0 0 34.75 34.75"><defs><style>.cls-1{fill:#c4c4c4;fill-rule:evenodd;}</style></defs><path class="cls-1" d="M17.38,0A17.38,17.38,0,1,0,34.75,17.37,17.38,17.38,0,0,0,17.38,0Zm4.39,10.92h-.26c-.64,0-1.27,0-1.9,0-.87,0-1.51.36-1.54,1.45,0,.79,0,2.61,0,2.61h3.62c-.16,1.26-.32,2.46-.48,3.69H18.07v9.21H14.24V18.65H11.12V15h3.15V14.7c0-.74,0-1.47,0-2.21a9.46,9.46,0,0,1,.11-1.41A4.14,4.14,0,0,1,16,8.33a4.83,4.83,0,0,1,2.75-.85c.65,0,1.3,0,1.95,0,.35,0,.7.06,1,.1Z"/></svg>