<svg id="Capa_1" data-name="Capa 1" xmlns="http://www.w3.org/2000/svg" viewBox="0 0 34.75 34.75"><defs><style>.cls-1{fill:#c4c4c4;fill-rule:evenodd;}</style></defs><path class="cls-1" d="M17.37,0A17.38,17.38,0,1,0,34.75,17.37,17.37,17.37,0,0,0,17.37,0ZM23.3,20.59c-2,2.53-5.34,2.7-6.87,1.14-.11-.12-.2-.26-.32-.4a1.55,1.55,0,0,1,0,.15c-.73,2.87-.81,3.5-1.57,4.84a15.42,15.42,0,0,1-1.21,1.81c0,.06-.1.14-.2.12S13,28.13,13,28a15.24,15.24,0,0,1-.15-2.62c0-1.15.18-1.54,1.65-7.75a.39.39,0,0,0,0-.26,4.38,4.38,0,0,1-.12-2.9c.67-2.12,3.07-2.28,3.5-.53.25,1.08-.43,2.5-1,4.58-.43,1.73,1.6,3,3.33,1.7s2.23-4,2.1-5.92c-.23-3.94-4.54-4.79-7.28-3.52-3.14,1.45-3.85,5.34-2.43,7.12.18.22.31.36.26.59s-.18.71-.27,1.07a.38.38,0,0,1-.45.29l-.11,0a3.19,3.19,0,0,1-1.31-1,6.21,6.21,0,0,1,0-6.93,8.34,8.34,0,0,1,8-3.55A6.82,6.82,0,0,1,25,14,9.36,9.36,0,0,1,23.3,20.59Z"/></svg>