<svg id="Capa_1" data-name="Capa 1" xmlns="http://www.w3.org/2000/svg" viewBox="0 0 34.75 34.75"><defs><style>.cls-1{fill:#c4c4c4;}</style></defs><path class="cls-1" d="M17.58,14.36a3.05,3.05,0,1,0,0,6.1h0a3.06,3.06,0,0,0,3.08-3h0A3.05,3.05,0,0,0,17.58,14.36Z"/><path class="cls-1" d="M22.18,10.05a65.22,65.22,0,0,0-9.06,0,3.1,3.1,0,0,0-2.91,2.76,60,60,0,0,0,0,9.29,3,3,0,0,0,2.29,2.6c1.37.39,8,.3,9.49.13A3.12,3.12,0,0,0,24.92,22h0a66.37,66.37,0,0,0,0-9A3.13,3.13,0,0,0,22.18,10.05ZM17.55,22.13a4.72,4.72,0,0,1,0-9.44h0a4.72,4.72,0,1,1,0,9.44Zm6-9.62h0a1.11,1.11,0,0,1-1.11,1.09,1.1,1.1,0,1,1,1.11-1.1Z"/><path class="cls-1" d="M17.37,0A17.38,17.38,0,1,0,34.75,17.37,17.37,17.37,0,0,0,17.37,0Zm9.11,22.72a4.65,4.65,0,0,1-4,3.68,54.09,54.09,0,0,1-10.18-.06,4.65,4.65,0,0,1-3.7-4c-.25-1.55-.34-8.76.1-10.33a4.64,4.64,0,0,1,4-3.58,67.41,67.41,0,0,1,9.1-.1,5.16,5.16,0,0,1,3.37,1.37,4.85,4.85,0,0,1,1.49,3.15C26.75,14.28,26.91,21.11,26.48,22.72Z"/></svg>