<svg id="Capa_1" data-name="Capa 1" xmlns="http://www.w3.org/2000/svg" viewBox="0 0 34.75 34.75"><defs><style>.cls-1{fill:#c4c4c4;fill-rule:evenodd;}</style></defs><path class="cls-1" d="M17.38,0A17.38,17.38,0,1,0,34.75,17.37,17.38,17.38,0,0,0,17.38,0ZM27.59,12.43a8.24,8.24,0,0,1-1.48,1.41A.12.12,0,0,0,26,14,11,11,0,0,1,26,15.78a12,12,0,0,1-3.26,6.86,11,11,0,0,1-5.61,3.13,12.45,12.45,0,0,1-2.28.27,11.55,11.55,0,0,1-6.54-1.76l-.1-.06a8.28,8.28,0,0,0,4.09-.57,7.93,7.93,0,0,0,2-1.13,4.09,4.09,0,0,1-3.8-2.83,4,4,0,0,0,1.75-.06l.06,0a4.08,4.08,0,0,1-2.66-1.88A4,4,0,0,1,9,15.56a4,4,0,0,0,1.82.5A4.13,4.13,0,0,1,9.1,13.58a4,4,0,0,1,.44-3A11.72,11.72,0,0,0,18,14.89c0-.17,0-.3-.06-.45a4,4,0,0,1,.6-2.67,3.93,3.93,0,0,1,2.77-1.85,4,4,0,0,1,3.57,1.14.23.23,0,0,0,.22.07,8.11,8.11,0,0,0,2.38-.92l0,0h0a4.17,4.17,0,0,1-1.75,2.23A8,8,0,0,0,28,11.8h0C27.91,12,27.75,12.23,27.59,12.43Z"/></svg>