<svg id="Capa_1" data-name="Capa 1" xmlns="http://www.w3.org/2000/svg" viewBox="0 0 34.75 34.75"><defs><style>.cls-1{fill:#c4c4c4;fill-rule:evenodd;}</style></defs><path class="cls-1" d="M16.58,9a8,8,0,0,0-6.64,9.11,8.08,8.08,0,0,0,.89,2.61A1.67,1.67,0,0,1,11,22.28c-.23.67-.38,1.37-.59,2.13.95-.25,1.83-.47,2.7-.71a.78.78,0,0,1,.65.09,7.8,7.8,0,0,0,5.28,1A8,8,0,1,0,16.58,9Zm4,12.45h-.28c-1.87-.07-4.83-1.54-6.87-5.07a2.86,2.86,0,0,1,.44-3.66,1.32,1.32,0,0,1,1.23-.18c.1,0,.21.17.26.29.27.61.54,1.23.77,1.86.13.33-.1.65-.58,1.2a.4.4,0,0,0-.07.54,6.52,6.52,0,0,0,3.31,2.84.39.39,0,0,0,.5-.13c.76-.93.84-1.2,1.24-1,1.93.92,2.08,1,2.09,1.18A2.09,2.09,0,0,1,20.57,21.49Z"/><path class="cls-1" d="M17.37,0A17.38,17.38,0,1,0,34.75,17.37,17.37,17.37,0,0,0,17.37,0Zm4.92,25.34a9.51,9.51,0,0,1-8.79.11,1,1,0,0,0-.58-.06C10.39,26,8.71,26.5,8.2,26.6c.11-.42.2-.78.3-1.14.32-1.15.64-2.31.94-3.46a.83.83,0,0,0,0-.56,9.53,9.53,0,1,1,12.9,3.9Z"/></svg>