<svg id="Capa_1" data-name="Capa 1" xmlns="http://www.w3.org/2000/svg" viewBox="0 0 34.75 34.75"><defs><style>.cls-1{fill:#c4c4c4;}</style></defs><path class="cls-1" d="M17.37,0A17.38,17.38,0,1,0,34.75,17.38,17.38,17.38,0,0,0,17.37,0Zm8.14,23c-1.13.28-1.37.09-1.59.68s-.15.85-.43.85a7.16,7.16,0,0,0-2.69,0c-.7.31-1.79,1.63-3.43,1.71s-2.72-1.4-3.42-1.71a7.16,7.16,0,0,0-2.69,0c-.28,0-.19-.26-.42-.85s-.46-.39-1.59-.68-1-.9-1-1.05a3.51,3.51,0,0,0,2.21-.85,5.11,5.11,0,0,0,2-2.85c0-.77-.94-1-1.53-1.24s-1.06-.63-.67-1,.8-.28,1.28,0a1.39,1.39,0,0,0,1,.07V13.22a4.71,4.71,0,0,1,4.7-4.69h.18a4.69,4.69,0,0,1,4.69,4.69V16a1.38,1.38,0,0,0,1-.07c.49-.25.88-.37,1.28,0s0,.78-.66,1-1.51.47-1.53,1.24a5.09,5.09,0,0,0,2,2.85,3.54,3.54,0,0,0,2.21.85C26.52,22.11,26.64,22.72,25.51,23Z"/></svg>